%TF.GenerationSoftware,KiCad,Pcbnew,9.0.6*%
%TF.CreationDate,2026-05-13T11:04:59+05:30*%
%TF.ProjectId,Microcontroller based Digital IC Tester,4d696372-6f63-46f6-9e74-726f6c6c6572,rev?*%
%TF.SameCoordinates,Original*%
%TF.FileFunction,Copper,L2,Bot*%
%TF.FilePolarity,Positive*%
%FSLAX46Y46*%
G04 Gerber Fmt 4.6, Leading zero omitted, Abs format (unit mm)*
G04 Created by KiCad (PCBNEW 9.0.6) date 2026-05-13 11:04:59*
%MOMM*%
%LPD*%
G01*
G04 APERTURE LIST*
G04 Aperture macros list*
%AMRoundRect*
0 Rectangle with rounded corners*
0 $1 Rounding radius*
0 $2 $3 $4 $5 $6 $7 $8 $9 X,Y pos of 4 corners*
0 Add a 4 corners polygon primitive as box body*
4,1,4,$2,$3,$4,$5,$6,$7,$8,$9,$2,$3,0*
0 Add four circle primitives for the rounded corners*
1,1,$1+$1,$2,$3*
1,1,$1+$1,$4,$5*
1,1,$1+$1,$6,$7*
1,1,$1+$1,$8,$9*
0 Add four rect primitives between the rounded corners*
20,1,$1+$1,$2,$3,$4,$5,0*
20,1,$1+$1,$4,$5,$6,$7,0*
20,1,$1+$1,$6,$7,$8,$9,0*
20,1,$1+$1,$8,$9,$2,$3,0*%
G04 Aperture macros list end*
%TA.AperFunction,ComponentPad*%
%ADD10C,1.600000*%
%TD*%
%TA.AperFunction,ComponentPad*%
%ADD11R,2.000000X2.000000*%
%TD*%
%TA.AperFunction,ComponentPad*%
%ADD12C,2.000000*%
%TD*%
%TA.AperFunction,ComponentPad*%
%ADD13R,1.700000X1.700000*%
%TD*%
%TA.AperFunction,ComponentPad*%
%ADD14C,1.700000*%
%TD*%
%TA.AperFunction,ComponentPad*%
%ADD15R,3.000000X3.000000*%
%TD*%
%TA.AperFunction,ComponentPad*%
%ADD16C,3.000000*%
%TD*%
%TA.AperFunction,ComponentPad*%
%ADD17RoundRect,0.250000X-0.550000X-0.550000X0.550000X-0.550000X0.550000X0.550000X-0.550000X0.550000X0*%
%TD*%
%TA.AperFunction,ComponentPad*%
%ADD18R,1.800000X1.800000*%
%TD*%
%TA.AperFunction,ComponentPad*%
%ADD19C,1.800000*%
%TD*%
%TA.AperFunction,ComponentPad*%
%ADD20R,1.600000X1.600000*%
%TD*%
%TA.AperFunction,ComponentPad*%
%ADD21O,1.600000X1.600000*%
%TD*%
%TA.AperFunction,ViaPad*%
%ADD22C,0.600000*%
%TD*%
%TA.AperFunction,Conductor*%
%ADD23C,0.500000*%
%TD*%
%TA.AperFunction,Conductor*%
%ADD24C,0.800000*%
%TD*%
%TA.AperFunction,Conductor*%
%ADD25C,0.300000*%
%TD*%
G04 APERTURE END LIST*
D10*
X171500000Y-88500000D03*
X176500000Y-88500000D03*
D11*
X193000000Y-71500000D03*
D12*
X193000000Y-79100000D03*
D13*
X182500000Y-118460000D03*
D14*
X182500000Y-121000000D03*
X182500000Y-123540000D03*
D13*
X182500000Y-77460000D03*
D14*
X182500000Y-80000000D03*
X182500000Y-82540000D03*
D15*
X110500000Y-74420000D03*
D16*
X110500000Y-79500000D03*
D13*
X108190000Y-133000000D03*
D14*
X110730000Y-133000000D03*
X113270000Y-133000000D03*
X115810000Y-133000000D03*
D10*
X159690000Y-81250000D03*
X167310000Y-81250000D03*
X159690000Y-85300000D03*
X167310000Y-85300000D03*
X149500000Y-127190000D03*
X149500000Y-134810000D03*
X159690000Y-117700000D03*
X167310000Y-117700000D03*
X192000000Y-135310000D03*
X192000000Y-127690000D03*
D12*
X136250000Y-128750000D03*
X142750000Y-128750000D03*
X136250000Y-133250000D03*
X142750000Y-133250000D03*
D17*
X128817621Y-86500000D03*
D10*
X131317621Y-86500000D03*
X159690000Y-121750000D03*
X167310000Y-121750000D03*
D18*
X196225000Y-131500000D03*
D19*
X198765000Y-131500000D03*
D10*
X159690000Y-89350000D03*
X167310000Y-89350000D03*
X159690000Y-97450000D03*
X167310000Y-97450000D03*
X159690000Y-93400000D03*
X167310000Y-93400000D03*
D18*
X183225000Y-131500000D03*
D19*
X185765000Y-131500000D03*
D13*
X125500000Y-75225000D03*
D14*
X125500000Y-77765000D03*
D10*
X131500000Y-134310000D03*
X131500000Y-126690000D03*
D12*
X154250000Y-128750000D03*
X160750000Y-128750000D03*
X154250000Y-133250000D03*
X160750000Y-133250000D03*
D10*
X159690000Y-101500000D03*
X167310000Y-101500000D03*
X159690000Y-109600000D03*
X167310000Y-109600000D03*
X178725000Y-135310000D03*
X178725000Y-127690000D03*
X159690000Y-105550000D03*
X167310000Y-105550000D03*
X159690000Y-113650000D03*
X167310000Y-113650000D03*
D20*
X151000000Y-82380000D03*
D21*
X151000000Y-84920000D03*
X151000000Y-87460000D03*
X151000000Y-90000000D03*
X151000000Y-92540000D03*
X151000000Y-95080000D03*
X151000000Y-97620000D03*
X151000000Y-100160000D03*
X151000000Y-102700000D03*
X151000000Y-105240000D03*
X151000000Y-107780000D03*
X151000000Y-110320000D03*
X151000000Y-112860000D03*
X151000000Y-115400000D03*
X151000000Y-117940000D03*
X135760000Y-117940000D03*
X135760000Y-115400000D03*
X135760000Y-112860000D03*
X135760000Y-110320000D03*
X135760000Y-107780000D03*
X135760000Y-105240000D03*
X135760000Y-102700000D03*
X135760000Y-100160000D03*
X135760000Y-97620000D03*
X135760000Y-95080000D03*
X135760000Y-92540000D03*
X135760000Y-90000000D03*
X135760000Y-87460000D03*
X135760000Y-84920000D03*
X135760000Y-82380000D03*
D13*
X181500000Y-92340000D03*
D14*
X184040000Y-92340000D03*
X181500000Y-94880000D03*
X184040000Y-94880000D03*
X181500000Y-97420000D03*
X184040000Y-97420000D03*
X181500000Y-99960000D03*
X184040000Y-99960000D03*
X181500000Y-102500000D03*
X184040000Y-102500000D03*
X181500000Y-105040000D03*
X184040000Y-105040000D03*
X181500000Y-107580000D03*
X184040000Y-107580000D03*
X181500000Y-110120000D03*
X184040000Y-110120000D03*
D22*
X151000000Y-120500000D03*
X160000000Y-124000000D03*
X180950000Y-114950000D03*
X131000000Y-107000000D03*
X126500000Y-110000000D03*
X121000000Y-115500000D03*
X164500000Y-125000000D03*
X171000000Y-133500000D03*
X150500000Y-123500000D03*
X118000000Y-78000000D03*
X121500000Y-87000000D03*
X131000000Y-78000000D03*
X190000000Y-115000000D03*
X190000000Y-90500000D03*
X123000000Y-108500000D03*
X127000000Y-104500000D03*
X174000000Y-134000000D03*
X132500000Y-120500000D03*
X184000000Y-127500000D03*
X192000000Y-120500000D03*
X187000000Y-106000000D03*
X173000000Y-105000000D03*
X179000000Y-103000000D03*
X180500000Y-89500000D03*
X170500000Y-85500000D03*
D23*
X180950000Y-114950000D02*
X171900000Y-124000000D01*
X151000000Y-120500000D02*
X137011000Y-106511000D01*
X137011000Y-106511000D02*
X137011000Y-96331000D01*
X137011000Y-96331000D02*
X135760000Y-95080000D01*
X171900000Y-124000000D02*
X160000000Y-124000000D01*
X126500000Y-110000000D02*
X128000000Y-110000000D01*
X121000000Y-127810000D02*
X121000000Y-115500000D01*
X128000000Y-110000000D02*
X131000000Y-107000000D01*
X115810000Y-133000000D02*
X121000000Y-127810000D01*
X164500000Y-127000000D02*
X171000000Y-133500000D01*
X148940000Y-123500000D02*
X135760000Y-110320000D01*
X164500000Y-125000000D02*
X164500000Y-127000000D01*
X150500000Y-123500000D02*
X148940000Y-123500000D01*
D24*
X118000000Y-83500000D02*
X121500000Y-87000000D01*
X118000000Y-78000000D02*
X118000000Y-83500000D01*
D23*
X154250000Y-133250000D02*
X149500000Y-128500000D01*
X149500000Y-128500000D02*
X149500000Y-127190000D01*
D24*
X135760000Y-117940000D02*
X124560000Y-117940000D01*
X131000000Y-78000000D02*
X124500000Y-84500000D01*
X124560000Y-117940000D02*
X124500000Y-118000000D01*
X124500000Y-84500000D02*
X124500000Y-118000000D01*
X131317621Y-86500000D02*
X134180000Y-86500000D01*
X134180000Y-86500000D02*
X135760000Y-84920000D01*
X190000000Y-115000000D02*
X190000000Y-90500000D01*
D23*
X135760000Y-100160000D02*
X131340000Y-100160000D01*
X113270000Y-118230000D02*
X123000000Y-108500000D01*
X131340000Y-100160000D02*
X127000000Y-104500000D01*
X113270000Y-133000000D02*
X113270000Y-118230000D01*
X148500000Y-120520000D02*
X148500000Y-121500000D01*
X173749000Y-134251000D02*
X168303024Y-134251000D01*
X155552024Y-121500000D02*
X148500000Y-121500000D01*
X135760000Y-107780000D02*
X148500000Y-120520000D01*
X168303024Y-134251000D02*
X155552024Y-121500000D01*
X174000000Y-134000000D02*
X173749000Y-134251000D01*
X126500000Y-126500000D02*
X132500000Y-120500000D01*
X136250000Y-133250000D02*
X127250000Y-133250000D01*
X127250000Y-133250000D02*
X126500000Y-132500000D01*
X126500000Y-132500000D02*
X126500000Y-126500000D01*
X185765000Y-129265000D02*
X184000000Y-127500000D01*
X185765000Y-131500000D02*
X185765000Y-129265000D01*
X192000000Y-123000000D02*
X192000000Y-120500000D01*
X191460000Y-123540000D02*
X192000000Y-123000000D01*
X182500000Y-123540000D02*
X191460000Y-123540000D01*
X182500000Y-77460000D02*
X188500000Y-83460000D01*
X182500000Y-77460000D02*
X182960000Y-77460000D01*
X188420000Y-107580000D02*
X184040000Y-107580000D01*
X188500000Y-83460000D02*
X188500000Y-107500000D01*
X188500000Y-107500000D02*
X188420000Y-107580000D01*
X182960000Y-77460000D02*
X183000000Y-77500000D01*
X182500000Y-82540000D02*
X187000000Y-87040000D01*
X182500000Y-82540000D02*
X182540000Y-82540000D01*
X182540000Y-82540000D02*
X183000000Y-83000000D01*
X187000000Y-87040000D02*
X187000000Y-106000000D01*
X167310000Y-121750000D02*
X181480000Y-107580000D01*
X181480000Y-107580000D02*
X181500000Y-107580000D01*
X175750000Y-81250000D02*
X181500000Y-87000000D01*
X167310000Y-81250000D02*
X175750000Y-81250000D01*
X181500000Y-87000000D02*
X181500000Y-92340000D01*
D25*
X180839000Y-101161000D02*
X179000000Y-103000000D01*
D23*
X167310000Y-109600000D02*
X171910000Y-105000000D01*
X171910000Y-105000000D02*
X173000000Y-105000000D01*
D25*
X184040000Y-102500000D02*
X182701000Y-101161000D01*
X182701000Y-101161000D02*
X180839000Y-101161000D01*
D23*
X169450000Y-105550000D02*
X171000000Y-104000000D01*
X180000000Y-104000000D02*
X181500000Y-102500000D01*
X171000000Y-104000000D02*
X180000000Y-104000000D01*
X167310000Y-105550000D02*
X169450000Y-105550000D01*
X180540000Y-106000000D02*
X181500000Y-105040000D01*
X167310000Y-112190000D02*
X173500000Y-106000000D01*
X173500000Y-106000000D02*
X180540000Y-106000000D01*
X167310000Y-113650000D02*
X167310000Y-112190000D01*
X170500000Y-85500000D02*
X176500000Y-85500000D01*
X176500000Y-85500000D02*
X180500000Y-89500000D01*
D25*
X181148942Y-106241000D02*
X182839000Y-106241000D01*
X167310000Y-117700000D02*
X178409000Y-106601000D01*
X182839000Y-106241000D02*
X184040000Y-105040000D01*
X180788942Y-106601000D02*
X181148942Y-106241000D01*
X178409000Y-106601000D02*
X180788942Y-106601000D01*
%TA.AperFunction,Conductor*%
G36*
X200942539Y-67520185D02*
G01*
X200988294Y-67572989D01*
X200999500Y-67624500D01*
X200999500Y-136375500D01*
X200979815Y-136442539D01*
X200927011Y-136488294D01*
X200875500Y-136499500D01*
X192949047Y-136499500D01*
X192882008Y-136479815D01*
X192836253Y-136427011D01*
X192826309Y-136357853D01*
X192855334Y-136294297D01*
X192861366Y-136287819D01*
X192991966Y-136157219D01*
X192991968Y-136157215D01*
X192991971Y-136157213D01*
X193095471Y-136014755D01*
X193112287Y-135991610D01*
X193205220Y-135809219D01*
X193268477Y-135614534D01*
X193300500Y-135412352D01*
X193300500Y-135207648D01*
X193268477Y-135005466D01*
X193267188Y-135001500D01*
X193222077Y-134862661D01*
X193205220Y-134810781D01*
X193205218Y-134810778D01*
X193205218Y-134810776D01*
X193155680Y-134713553D01*
X193112287Y-134628390D01*
X193065792Y-134564394D01*
X192991971Y-134462786D01*
X192847213Y-134318028D01*
X192681613Y-134197715D01*
X192681612Y-134197714D01*
X192681610Y-134197713D01*
X192624653Y-134168691D01*
X192499223Y-134104781D01*
X192304534Y-134041522D01*
X192129995Y-134013878D01*
X192102352Y-134009500D01*
X191897648Y-134009500D01*
X191873329Y-134013351D01*
X191695465Y-134041522D01*
X191500776Y-134104781D01*
X191318386Y-134197715D01*
X191152786Y-134318028D01*
X191008028Y-134462786D01*
X190887715Y-134628386D01*
X190794781Y-134810776D01*
X190731522Y-135005465D01*
X190699500Y-135207648D01*
X190699500Y-135412351D01*
X190731522Y-135614534D01*
X190794781Y-135809223D01*
X190887715Y-135991613D01*
X191008028Y-136157213D01*
X191138634Y-136287819D01*
X191172119Y-136349142D01*
X191167135Y-136418834D01*
X191125263Y-136474767D01*
X191059799Y-136499184D01*
X191050953Y-136499500D01*
X179674047Y-136499500D01*
X179607008Y-136479815D01*
X179561253Y-136427011D01*
X179551309Y-136357853D01*
X179580334Y-136294297D01*
X179586366Y-136287819D01*
X179716966Y-136157219D01*
X179716968Y-136157215D01*
X179716971Y-136157213D01*
X179820471Y-136014755D01*
X179837287Y-135991610D01*
X179930220Y-135809219D01*
X179993477Y-135614534D01*
X180025500Y-135412352D01*
X180025500Y-135207648D01*
X179993477Y-135005466D01*
X179992188Y-135001500D01*
X179947077Y-134862661D01*
X179930220Y-134810781D01*
X179930218Y-134810778D01*
X179930218Y-134810776D01*
X179880680Y-134713553D01*
X179837287Y-134628390D01*
X179790792Y-134564394D01*
X179716971Y-134462786D01*
X179572213Y-134318028D01*
X179406613Y-134197715D01*
X179406612Y-134197714D01*
X179406610Y-134197713D01*
X179349653Y-134168691D01*
X179224223Y-134104781D01*
X179029534Y-134041522D01*
X178854995Y-134013878D01*
X178827352Y-134009500D01*
X178622648Y-134009500D01*
X178598329Y-134013351D01*
X178420465Y-134041522D01*
X178225776Y-134104781D01*
X178043386Y-134197715D01*
X177877786Y-134318028D01*
X177733028Y-134462786D01*
X177612715Y-134628386D01*
X177519781Y-134810776D01*
X177456522Y-135005465D01*
X177424500Y-135207648D01*
X177424500Y-135412351D01*
X177456522Y-135614534D01*
X177519781Y-135809223D01*
X177612715Y-135991613D01*
X177733028Y-136157213D01*
X177863634Y-136287819D01*
X177897119Y-136349142D01*
X177892135Y-136418834D01*
X177850263Y-136474767D01*
X177784799Y-136499184D01*
X177775953Y-136499500D01*
X102124500Y-136499500D01*
X102057461Y-136479815D01*
X102011706Y-136427011D01*
X102000500Y-136375500D01*
X102000500Y-132102155D01*
X106840000Y-132102155D01*
X106840000Y-132750000D01*
X107756988Y-132750000D01*
X107724075Y-132807007D01*
X107690000Y-132934174D01*
X107690000Y-133065826D01*
X107724075Y-133192993D01*
X107756988Y-133250000D01*
X106840000Y-133250000D01*
X106840000Y-133897844D01*
X106846401Y-133957372D01*
X106846403Y-133957379D01*
X106896645Y-134092086D01*
X106896649Y-134092093D01*
X106982809Y-134207187D01*
X106982812Y-134207190D01*
X107097906Y-134293350D01*
X107097913Y-134293354D01*
X107232620Y-134343596D01*
X107232627Y-134343598D01*
X107292155Y-134349999D01*
X107292172Y-134350000D01*
X107940000Y-134350000D01*
X107940000Y-133433012D01*
X107997007Y-133465925D01*
X108124174Y-133500000D01*
X108255826Y-133500000D01*
X108382993Y-133465925D01*
X108440000Y-133433012D01*
X108440000Y-134350000D01*
X109087828Y-134350000D01*
X109087844Y-134349999D01*
X109147372Y-134343598D01*
X109147379Y-134343596D01*
X109282086Y-134293354D01*
X109282093Y-134293350D01*
X109397187Y-134207190D01*
X109397190Y-134207187D01*
X109483350Y-134092093D01*
X109483354Y-134092086D01*
X109532422Y-133960529D01*
X109574293Y-133904595D01*
X109639757Y-133880178D01*
X109708030Y-133895030D01*
X109736285Y-133916181D01*
X109850213Y-134030109D01*
X110022179Y-134155048D01*
X110022181Y-134155049D01*
X110022184Y-134155051D01*
X110211588Y-134251557D01*
X110413757Y-134317246D01*
X110623713Y-134350500D01*
X110623714Y-134350500D01*
X110836286Y-134350500D01*
X110836287Y-134350500D01*
X111046243Y-134317246D01*
X111248412Y-134251557D01*
X111437816Y-134155051D01*
X111524471Y-134092093D01*
X111609786Y-134030109D01*
X111609788Y-134030106D01*
X111609792Y-134030104D01*
X111760104Y-133879792D01*
X111760106Y-133879788D01*
X111760109Y-133879786D01*
X111885048Y-133707820D01*
X111885047Y-133707820D01*
X111885051Y-133707816D01*
X111889514Y-133699054D01*
X111937488Y-133648259D01*
X112005308Y-133631463D01*
X112071444Y-133653999D01*
X112110486Y-133699056D01*
X112114951Y-133707820D01*
X112239890Y-133879786D01*
X112390213Y-134030109D01*
X112562179Y-134155048D01*
X112562181Y-134155049D01*
X112562184Y-134155051D01*
X112751588Y-134251557D01*
X112953757Y-134317246D01*
X113163713Y-134350500D01*
X113163714Y-134350500D01*
X113376286Y-134350500D01*
X113376287Y-134350500D01*
X113586243Y-134317246D01*
X113788412Y-134251557D01*
X113977816Y-134155051D01*
X114064471Y-134092093D01*
X114149786Y-134030109D01*
X114149788Y-134030106D01*
X114149792Y-134030104D01*
X114300104Y-133879792D01*
X114300106Y-133879788D01*
X114300109Y-133879786D01*
X114425048Y-133707820D01*
X114425047Y-133707820D01*
X114425051Y-133707816D01*
X114429514Y-133699054D01*
X114477488Y-133648259D01*
X114545308Y-133631463D01*
X114611444Y-133653999D01*
X114650486Y-133699056D01*
X114654951Y-133707820D01*
X114779890Y-133879786D01*
X114930213Y-134030109D01*
X115102179Y-134155048D01*
X115102181Y-134155049D01*
X115102184Y-134155051D01*
X115291588Y-134251557D01*
X115493757Y-134317246D01*
X115703713Y-134350500D01*
X115703714Y-134350500D01*
X115916286Y-134350500D01*
X115916287Y-134350500D01*
X116126243Y-134317246D01*
X116328412Y-134251557D01*
X116517816Y-134155051D01*
X116604471Y-134092093D01*
X116689786Y-134030109D01*
X116689788Y-134030106D01*
X116689792Y-134030104D01*
X116840104Y-133879792D01*
X116840106Y-133879788D01*
X116840109Y-133879786D01*
X116965048Y-133707820D01*
X116965047Y-133707820D01*
X116965051Y-133707816D01*
X117061557Y-133518412D01*
X117127246Y-133316243D01*
X117160500Y-133106287D01*
X117160500Y-132893713D01*
X117145382Y-132798268D01*
X117154336Y-132728979D01*
X117180171Y-132691195D01*
X117297446Y-132573920D01*
X125749499Y-132573920D01*
X125778340Y-132718907D01*
X125778343Y-132718917D01*
X125834913Y-132855490D01*
X125834914Y-132855492D01*
X125860982Y-132894505D01*
X125860983Y-132894507D01*
X125917045Y-132978414D01*
X125917049Y-132978418D01*
X126771580Y-133832948D01*
X126771584Y-133832951D01*
X126894498Y-133915080D01*
X126894511Y-133915087D01*
X126996597Y-133957372D01*
X127031087Y-133971658D01*
X127031091Y-133971658D01*
X127031092Y-133971659D01*
X127176079Y-134000500D01*
X127176082Y-134000500D01*
X127323917Y-134000500D01*
X130087124Y-134000500D01*
X130154163Y-134020185D01*
X130199918Y-134072989D01*
X130209862Y-134142147D01*
X130209597Y-134143898D01*
X130199500Y-134207648D01*
X130199500Y-134412351D01*
X130231522Y-134614534D01*
X130294781Y-134809223D01*
X130349232Y-134916087D01*
X130378056Y-134972658D01*
X130387715Y-134991613D01*
X130508028Y-135157213D01*
X130652786Y-135301971D01*
X130807749Y-135414556D01*
X130818390Y-135422287D01*
X130934607Y-135481503D01*
X131000776Y-135515218D01*
X131000778Y-135515218D01*
X131000781Y-135515220D01*
X131105137Y-135549127D01*
X131195465Y-135578477D01*
X131296557Y-135594488D01*
X131397648Y-135610500D01*
X131397649Y-135610500D01*
X131602351Y-135610500D01*
X131602352Y-135610500D01*
X131804534Y-135578477D01*
X131999219Y-135515220D01*
X132181610Y-135422287D01*
X132274590Y-135354732D01*
X132347213Y-135301971D01*
X132347215Y-135301968D01*
X132347219Y-135301966D01*
X132491966Y-135157219D01*
X132491968Y-135157215D01*
X132491971Y-135157213D01*
X132544732Y-135084590D01*
X132612287Y-134991610D01*
X132705220Y-134809219D01*
X132768477Y-134614534D01*
X132800500Y-134412352D01*
X132800500Y-134207648D01*
X132790403Y-134143898D01*
X132799358Y-134074604D01*
X132844354Y-134021152D01*
X132911106Y-134000513D01*
X132912876Y-134000500D01*
X134877369Y-134000500D01*
X134944408Y-134020185D01*
X134977685Y-134051613D01*
X135105483Y-134227510D01*
X135272490Y-134394517D01*
X135463567Y-134533343D01*
X135524508Y-134564394D01*
X135674003Y-134640566D01*
X135674005Y-134640566D01*
X135674008Y-134640568D01*
X135794412Y-134679689D01*
X135898631Y-134713553D01*
X136131903Y-134750500D01*
X136131908Y-134750500D01*
X136368097Y-134750500D01*
X136601368Y-134713553D01*
X136619437Y-134707682D01*
X136825992Y-134640568D01*
X137036433Y-134533343D01*
X137227510Y-134394517D01*
X137394517Y-134227510D01*
X137533343Y-134036433D01*
X137640568Y-133825992D01*
X137713553Y-133601368D01*
X137750500Y-133368097D01*
X137750500Y-133131902D01*
X141249500Y-133131902D01*
X141249500Y-133368097D01*
X141286446Y-133601368D01*
X141359433Y-133825996D01*
X141452934Y-134009500D01*
X141466657Y-134036433D01*
X141605483Y-134227510D01*
X141772490Y-134394517D01*
X141963567Y-134533343D01*
X142024508Y-134564394D01*
X142174003Y-134640566D01*
X142174005Y-134640566D01*
X142174008Y-134640568D01*
X142294412Y-134679689D01*
X142398631Y-134713553D01*
X142631903Y-134750500D01*
X142631908Y-134750500D01*
X142868097Y-134750500D01*
X143101368Y-134713553D01*
X143119437Y-134707682D01*
X148200000Y-134707682D01*
X148200000Y-134912317D01*
X148232009Y-135114417D01*
X148295244Y-135309031D01*
X148388141Y-135491350D01*
X148388147Y-135491359D01*
X148420523Y-135535921D01*
X148420524Y-135535922D01*
X149100000Y-134856446D01*
X149100000Y-134862661D01*
X149127259Y-134964394D01*
X149179920Y-135055606D01*
X149254394Y-135130080D01*
X149345606Y-135182741D01*
X149447339Y-135210000D01*
X149453553Y-135210000D01*
X148774076Y-135889474D01*
X148818650Y-135921859D01*
X149000968Y-136014755D01*
X149195582Y-136077990D01*
X149397683Y-136110000D01*
X149602317Y-136110000D01*
X149804417Y-136077990D01*
X149999031Y-136014755D01*
X150181349Y-135921859D01*
X150225921Y-135889474D01*
X149546447Y-135210000D01*
X149552661Y-135210000D01*
X149654394Y-135182741D01*
X149745606Y-135130080D01*
X149820080Y-135055606D01*
X149872741Y-134964394D01*
X149900000Y-134862661D01*
X149900000Y-134856448D01*
X150579474Y-135535922D01*
X150579474Y-135535921D01*
X150611859Y-135491349D01*
X150704755Y-135309031D01*
X150767990Y-135114417D01*
X150800000Y-134912317D01*
X150800000Y-134707682D01*
X150767989Y-134505581D01*
X150767990Y-134505581D01*
X150704755Y-134310968D01*
X150611859Y-134128650D01*
X150579474Y-134084077D01*
X150579474Y-134084076D01*
X149900000Y-134763551D01*
X149900000Y-134757339D01*
X149872741Y-134655606D01*
X149820080Y-134564394D01*
X149745606Y-134489920D01*
X149654394Y-134437259D01*
X149552661Y-134410000D01*
X149546446Y-134410000D01*
X150225922Y-133730524D01*
X150225921Y-133730523D01*
X150181359Y-133698147D01*
X150181350Y-133698141D01*
X149999031Y-133605244D01*
X149804417Y-133542009D01*
X149602317Y-133510000D01*
X149397683Y-133510000D01*
X149195582Y-133542009D01*
X149000968Y-133605244D01*
X148818644Y-133698143D01*
X148774077Y-133730523D01*
X148774077Y-133730524D01*
X149453554Y-134410000D01*
X149447339Y-134410000D01*
X149345606Y-134437259D01*
X149254394Y-134489920D01*
X149179920Y-134564394D01*
X149127259Y-134655606D01*
X149100000Y-134757339D01*
X149100000Y-134763553D01*
X148420524Y-134084077D01*
X148420523Y-134084077D01*
X148388143Y-134128644D01*
X148295244Y-134310968D01*
X148232010Y-134505581D01*
X148200000Y-134707682D01*
X143119437Y-134707682D01*
X143325992Y-134640568D01*
X143377087Y-134614534D01*
X143420663Y-134592331D01*
X143444808Y-134580027D01*
X143536433Y-134533343D01*
X143727510Y-134394517D01*
X143894517Y-134227510D01*
X144033343Y-134036433D01*
X144140568Y-133825992D01*
X144213553Y-133601368D01*
X144250500Y-133368097D01*
X144250500Y-133131902D01*
X144213553Y-132898631D01*
X144172202Y-132771368D01*
X144140568Y-132674008D01*
X144140566Y-132674005D01*
X144140566Y-132674003D01*
X144071446Y-132538349D01*
X144033343Y-132463567D01*
X143894517Y-132272490D01*
X143727510Y-132105483D01*
X143536433Y-131966657D01*
X143503742Y-131950000D01*
X143325996Y-131859433D01*
X143101368Y-131786446D01*
X142868097Y-131749500D01*
X142868092Y-131749500D01*
X142631908Y-131749500D01*
X142631903Y-131749500D01*
X142398631Y-131786446D01*
X142174003Y-131859433D01*
X141963566Y-131966657D01*
X141865914Y-132037606D01*
X141772490Y-132105483D01*
X141772488Y-132105485D01*
X141772487Y-132105485D01*
X141605485Y-132272487D01*
X141605485Y-132272488D01*
X141605483Y-132272490D01*
X141552076Y-132345998D01*
X141466657Y-132463566D01*
X141359433Y-132674003D01*
X141286446Y-132898631D01*
X141249500Y-133131902D01*
X137750500Y-133131902D01*
X137713553Y-132898631D01*
X137672202Y-132771368D01*
X137640568Y-132674008D01*
X137640566Y-132674005D01*
X137640566Y-132674003D01*
X137571446Y-132538349D01*
X137533343Y-132463567D01*
X137394517Y-132272490D01*
X137227510Y-132105483D01*
X137036433Y-131966657D01*
X137003742Y-131950000D01*
X136825996Y-131859433D01*
X136601368Y-131786446D01*
X136368097Y-131749500D01*
X136368092Y-131749500D01*
X136131908Y-131749500D01*
X136131903Y-131749500D01*
X135898631Y-131786446D01*
X135674003Y-131859433D01*
X135463566Y-131966657D01*
X135365914Y-132037606D01*
X135272490Y-132105483D01*
X135272488Y-132105485D01*
X135272487Y-132105485D01*
X135105485Y-132272487D01*
X135105485Y-132272488D01*
X135105483Y-132272490D01*
X134977687Y-132448386D01*
X134922357Y-132491051D01*
X134877369Y-132499500D01*
X127612229Y-132499500D01*
X127545190Y-132479815D01*
X127524548Y-132463181D01*
X127286819Y-132225451D01*
X127253334Y-132164128D01*
X127250500Y-132137770D01*
X127250500Y-128631902D01*
X134749500Y-128631902D01*
X134749500Y-128868097D01*
X134786446Y-129101368D01*
X134859433Y-129325996D01*
X134966657Y-129536433D01*
X135105483Y-129727510D01*
X135272490Y-129894517D01*
X135463567Y-130033343D01*
X135562991Y-130084002D01*
X135674003Y-130140566D01*
X135674005Y-130140566D01*
X135674008Y-130140568D01*
X135794412Y-130179689D01*
X135898631Y-130213553D01*
X136131903Y-130250500D01*
X136131908Y-130250500D01*
X136368097Y-130250500D01*
X136601368Y-130213553D01*
X136636607Y-130202103D01*
X136825992Y-130140568D01*
X137036433Y-130033343D01*
X137227510Y-129894517D01*
X137394517Y-129727510D01*
X137533343Y-129536433D01*
X137640568Y-129325992D01*
X137713553Y-129101368D01*
X137722309Y-129046087D01*
X137750500Y-128868097D01*
X137750500Y-128631902D01*
X141249500Y-128631902D01*
X141249500Y-128868097D01*
X141286446Y-129101368D01*
X141359433Y-129325996D01*
X141466657Y-129536433D01*
X141605483Y-129727510D01*
X141772490Y-129894517D01*
X141963567Y-130033343D01*
X142062991Y-130084002D01*
X142174003Y-130140566D01*
X142174005Y-130140566D01*
X142174008Y-130140568D01*
X142294412Y-130179689D01*
X142398631Y-130213553D01*
X142631903Y-130250500D01*
X142631908Y-130250500D01*
X142868097Y-130250500D01*
X143101368Y-130213553D01*
X143136607Y-130202103D01*
X143325992Y-130140568D01*
X143536433Y-130033343D01*
X143727510Y-129894517D01*
X143894517Y-129727510D01*
X144033343Y-129536433D01*
X144140568Y-129325992D01*
X144213553Y-129101368D01*
X144222309Y-129046087D01*
X144250500Y-128868097D01*
X144250500Y-128631902D01*
X144213553Y-128398631D01*
X144179689Y-128294412D01*
X144140568Y-128174008D01*
X144140566Y-128174005D01*
X144140566Y-128174003D01*
X144084002Y-128062991D01*
X144033343Y-127963567D01*
X143894517Y-127772490D01*
X143727510Y-127605483D01*
X143536433Y-127466657D01*
X143536429Y-127466655D01*
X143325996Y-127359433D01*
X143101368Y-127286446D01*
X142868097Y-127249500D01*
X142868092Y-127249500D01*
X142631908Y-127249500D01*
X142631903Y-127249500D01*
X142398631Y-127286446D01*
X142174003Y-127359433D01*
X141963566Y-127466657D01*
X141918869Y-127499132D01*
X141772490Y-127605483D01*
X141772488Y-127605485D01*
X141772487Y-127605485D01*
X141605485Y-127772487D01*
X141605485Y-127772488D01*
X141605483Y-127772490D01*
X141584145Y-127801859D01*
X141466657Y-127963566D01*
X141359433Y-128174003D01*
X141286446Y-128398631D01*
X141249500Y-128631902D01*
X137750500Y-128631902D01*
X137713553Y-128398631D01*
X137679689Y-128294412D01*
X137640568Y-128174008D01*
X137640566Y-128174005D01*
X137640566Y-128174003D01*
X137584002Y-128062991D01*
X137533343Y-127963567D01*
X137394517Y-127772490D01*
X137227510Y-127605483D01*
X137036433Y-127466657D01*
X137036429Y-127466655D01*
X136825996Y-127359433D01*
X136601368Y-127286446D01*
X136368097Y-127249500D01*
X136368092Y-127249500D01*
X136131908Y-127249500D01*
X136131903Y-127249500D01*
X135898631Y-127286446D01*
X135674003Y-127359433D01*
X135463566Y-127466657D01*
X135418869Y-127499132D01*
X135272490Y-127605483D01*
X135272488Y-127605485D01*
X135272487Y-127605485D01*
X135105485Y-127772487D01*
X135105485Y-127772488D01*
X135105483Y-127772490D01*
X135084145Y-127801859D01*
X134966657Y-127963566D01*
X134859433Y-128174003D01*
X134786446Y-128398631D01*
X134749500Y-128631902D01*
X127250500Y-128631902D01*
X127250500Y-126862228D01*
X127270185Y-126795189D01*
X127286814Y-126774552D01*
X127473684Y-126587682D01*
X130200000Y-126587682D01*
X130200000Y-126792317D01*
X130232009Y-126994417D01*
X130295244Y-127189031D01*
X130388141Y-127371350D01*
X130388147Y-127371359D01*
X130420523Y-127415921D01*
X130420524Y-127415922D01*
X131100000Y-126736446D01*
X131100000Y-126742661D01*
X131127259Y-126844394D01*
X131179920Y-126935606D01*
X131254394Y-127010080D01*
X131345606Y-127062741D01*
X131447339Y-127090000D01*
X131453553Y-127090000D01*
X130774076Y-127769474D01*
X130818650Y-127801859D01*
X131000968Y-127894755D01*
X131195582Y-127957990D01*
X131397683Y-127990000D01*
X131602317Y-127990000D01*
X131804417Y-127957990D01*
X131999031Y-127894755D01*
X132181349Y-127801859D01*
X132225921Y-127769474D01*
X131546447Y-127090000D01*
X131552661Y-127090000D01*
X131654394Y-127062741D01*
X131745606Y-127010080D01*
X131820080Y-126935606D01*
X131872741Y-126844394D01*
X131900000Y-126742661D01*
X131900000Y-126736447D01*
X132579474Y-127415921D01*
X132611859Y-127371349D01*
X132704755Y-127189031D01*
X132737697Y-127087648D01*
X148199500Y-127087648D01*
X148199500Y-127292351D01*
X148231522Y-127494534D01*
X148294781Y-127689223D01*
X148387715Y-127871613D01*
X148508028Y-128037213D01*
X148508034Y-128037219D01*
X148652781Y-128181966D01*
X148698384Y-128215098D01*
X148741050Y-128270425D01*
X148749500Y-128315416D01*
X148749500Y-128573918D01*
X148749500Y-128573920D01*
X148749499Y-128573920D01*
X148778340Y-128718907D01*
X148778343Y-128718917D01*
X148834074Y-128853463D01*
X148834916Y-128855495D01*
X148852689Y-128882095D01*
X148861458Y-128895219D01*
X148917049Y-128978418D01*
X148917052Y-128978421D01*
X152748719Y-132810086D01*
X152782204Y-132871409D01*
X152783511Y-132917165D01*
X152749500Y-133131902D01*
X152749500Y-133368097D01*
X152786446Y-133601368D01*
X152859433Y-133825996D01*
X152952934Y-134009500D01*
X152966657Y-134036433D01*
X153105483Y-134227510D01*
X153272490Y-134394517D01*
X153463567Y-134533343D01*
X153524508Y-134564394D01*
X153674003Y-134640566D01*
X153674005Y-134640566D01*
X153674008Y-134640568D01*
X153794412Y-134679689D01*
X153898631Y-134713553D01*
X154131903Y-134750500D01*
X154131908Y-134750500D01*
X154368097Y-134750500D01*
X154601368Y-134713553D01*
X154619437Y-134707682D01*
X154825992Y-134640568D01*
X155036433Y-134533343D01*
X155227510Y-134394517D01*
X155394517Y-134227510D01*
X155533343Y-134036433D01*
X155640568Y-133825992D01*
X155713553Y-133601368D01*
X155750500Y-133368097D01*
X155750500Y-133131902D01*
X159249500Y-133131902D01*
X159249500Y-133368097D01*
X159286446Y-133601368D01*
X159359433Y-133825996D01*
X159452934Y-134009500D01*
X159466657Y-134036433D01*
X159605483Y-134227510D01*
X159772490Y-134394517D01*
X159963567Y-134533343D01*
X160024508Y-134564394D01*
X160174003Y-134640566D01*
X160174005Y-134640566D01*
X160174008Y-134640568D01*
X160294412Y-134679689D01*
X160398631Y-134713553D01*
X160631903Y-134750500D01*
X160631908Y-134750500D01*
X160868097Y-134750500D01*
X161101368Y-134713553D01*
X161119437Y-134707682D01*
X161325992Y-134640568D01*
X161536433Y-134533343D01*
X161727510Y-134394517D01*
X161894517Y-134227510D01*
X162033343Y-134036433D01*
X162140568Y-133825992D01*
X162213553Y-133601368D01*
X162250500Y-133368097D01*
X162250500Y-133131902D01*
X162213553Y-132898631D01*
X162172202Y-132771368D01*
X162140568Y-132674008D01*
X162140566Y-132674005D01*
X162140566Y-132674003D01*
X162071446Y-132538349D01*
X162033343Y-132463567D01*
X161894517Y-132272490D01*
X161727510Y-132105483D01*
X161536433Y-131966657D01*
X161503742Y-131950000D01*
X161325996Y-131859433D01*
X161101368Y-131786446D01*
X160868097Y-131749500D01*
X160868092Y-131749500D01*
X160631908Y-131749500D01*
X160631903Y-131749500D01*
X160398631Y-131786446D01*
X160174003Y-131859433D01*
X159963566Y-131966657D01*
X159865914Y-132037606D01*
X159772490Y-132105483D01*
X159772488Y-132105485D01*
X159772487Y-132105485D01*
X159605485Y-132272487D01*
X159605485Y-132272488D01*
X159605483Y-132272490D01*
X159552076Y-132345998D01*
X159466657Y-132463566D01*
X159359433Y-132674003D01*
X159286446Y-132898631D01*
X159249500Y-133131902D01*
X155750500Y-133131902D01*
X155713553Y-132898631D01*
X155672202Y-132771368D01*
X155640568Y-132674008D01*
X155640566Y-132674005D01*
X155640566Y-132674003D01*
X155571446Y-132538349D01*
X155533343Y-132463567D01*
X155394517Y-132272490D01*
X155227510Y-132105483D01*
X155036433Y-131966657D01*
X155003742Y-131950000D01*
X154825996Y-131859433D01*
X154601368Y-131786446D01*
X154368097Y-131749500D01*
X154368092Y-131749500D01*
X154131908Y-131749500D01*
X154131903Y-131749500D01*
X153917165Y-131783511D01*
X153847871Y-131774556D01*
X153810086Y-131748719D01*
X150776085Y-128714717D01*
X150693270Y-128631902D01*
X152749500Y-128631902D01*
X152749500Y-128868097D01*
X152786446Y-129101368D01*
X152859433Y-129325996D01*
X152966657Y-129536433D01*
X153105483Y-129727510D01*
X153272490Y-129894517D01*
X153463567Y-130033343D01*
X153562991Y-130084002D01*
X153674003Y-130140566D01*
X153674005Y-130140566D01*
X153674008Y-130140568D01*
X153794412Y-130179689D01*
X153898631Y-130213553D01*
X154131903Y-130250500D01*
X154131908Y-130250500D01*
X154368097Y-130250500D01*
X154601368Y-130213553D01*
X154636607Y-130202103D01*
X154825992Y-130140568D01*
X155036433Y-130033343D01*
X155227510Y-129894517D01*
X155394517Y-129727510D01*
X155533343Y-129536433D01*
X155640568Y-129325992D01*
X155713553Y-129101368D01*
X155722309Y-129046087D01*
X155750500Y-128868097D01*
X155750500Y-128631902D01*
X155713553Y-128398631D01*
X155679689Y-128294412D01*
X155640568Y-128174008D01*
X155640566Y-128174005D01*
X155640566Y-128174003D01*
X155584002Y-128062991D01*
X155533343Y-127963567D01*
X155394517Y-127772490D01*
X155227510Y-127605483D01*
X155036433Y-127466657D01*
X155036429Y-127466655D01*
X154825996Y-127359433D01*
X154601368Y-127286446D01*
X154368097Y-127249500D01*
X154368092Y-127249500D01*
X154131908Y-127249500D01*
X154131903Y-127249500D01*
X153898631Y-127286446D01*
X153674003Y-127359433D01*
X153463566Y-127466657D01*
X153418869Y-127499132D01*
X153272490Y-127605483D01*
X153272488Y-127605485D01*
X153272487Y-127605485D01*
X153105485Y-127772487D01*
X153105485Y-127772488D01*
X153105483Y-127772490D01*
X153084145Y-127801859D01*
X152966657Y-127963566D01*
X152859433Y-128174003D01*
X152786446Y-128398631D01*
X152749500Y-128631902D01*
X150693270Y-128631902D01*
X150382957Y-128321589D01*
X150349472Y-128260266D01*
X150354456Y-128190574D01*
X150382953Y-128146231D01*
X150491966Y-128037219D01*
X150612287Y-127871610D01*
X150705220Y-127689219D01*
X150768477Y-127494534D01*
X150800500Y-127292352D01*
X150800500Y-127087648D01*
X150768477Y-126885466D01*
X150766120Y-126878213D01*
X150708053Y-126699500D01*
X150705220Y-126690781D01*
X150705218Y-126690778D01*
X150705218Y-126690776D01*
X150647610Y-126577715D01*
X150612287Y-126508390D01*
X150595134Y-126484781D01*
X150491971Y-126342786D01*
X150347213Y-126198028D01*
X150181613Y-126077715D01*
X150181612Y-126077714D01*
X150181610Y-126077713D01*
X150124653Y-126048691D01*
X149999223Y-125984781D01*
X149804534Y-125921522D01*
X149629995Y-125893878D01*
X149602352Y-125889500D01*
X149397648Y-125889500D01*
X149373329Y-125893351D01*
X149195465Y-125921522D01*
X149000776Y-125984781D01*
X148818386Y-126077715D01*
X148652786Y-126198028D01*
X148508028Y-126342786D01*
X148387715Y-126508386D01*
X148294781Y-126690776D01*
X148231522Y-126885465D01*
X148199500Y-127087648D01*
X132737697Y-127087648D01*
X132751731Y-127044457D01*
X132767990Y-126994417D01*
X132800000Y-126792317D01*
X132800000Y-126587682D01*
X132767990Y-126385582D01*
X132704755Y-126190968D01*
X132611859Y-126008650D01*
X132579474Y-125964077D01*
X132579474Y-125964076D01*
X131900000Y-126643551D01*
X131900000Y-126637339D01*
X131872741Y-126535606D01*
X131820080Y-126444394D01*
X131745606Y-126369920D01*
X131654394Y-126317259D01*
X131552661Y-126290000D01*
X131546446Y-126290000D01*
X132225922Y-125610524D01*
X132225921Y-125610523D01*
X132181359Y-125578147D01*
X132181350Y-125578141D01*
X131999031Y-125485244D01*
X131804417Y-125422009D01*
X131602317Y-125390000D01*
X131397683Y-125390000D01*
X131195582Y-125422009D01*
X131000968Y-125485244D01*
X130818644Y-125578143D01*
X130774077Y-125610523D01*
X130774077Y-125610524D01*
X131453554Y-126290000D01*
X131447339Y-126290000D01*
X131345606Y-126317259D01*
X131254394Y-126369920D01*
X131179920Y-126444394D01*
X131127259Y-126535606D01*
X131100000Y-126637339D01*
X131100000Y-126643553D01*
X130420524Y-125964077D01*
X130420523Y-125964077D01*
X130388143Y-126008644D01*
X130295244Y-126190968D01*
X130232009Y-126385582D01*
X130200000Y-126587682D01*
X127473684Y-126587682D01*
X132815295Y-121246070D01*
X132855519Y-121219193D01*
X132879179Y-121209394D01*
X133010289Y-121121789D01*
X133121789Y-121010289D01*
X133209394Y-120879179D01*
X133209395Y-120879174D01*
X133209400Y-120879167D01*
X133254651Y-120769917D01*
X133269737Y-120733497D01*
X133300500Y-120578842D01*
X133300500Y-120421158D01*
X133300500Y-120421155D01*
X133300499Y-120421153D01*
X133269738Y-120266510D01*
X133269737Y-120266503D01*
X133235855Y-120184704D01*
X133209397Y-120120827D01*
X133209390Y-120120814D01*
X133121789Y-119989711D01*
X133121786Y-119989707D01*
X133010292Y-119878213D01*
X133010288Y-119878210D01*
X132879185Y-119790609D01*
X132879172Y-119790602D01*
X132733501Y-119730264D01*
X132733489Y-119730261D01*
X132578845Y-119699500D01*
X132578842Y-119699500D01*
X132421158Y-119699500D01*
X132421155Y-119699500D01*
X132266510Y-119730261D01*
X132266498Y-119730264D01*
X132120827Y-119790602D01*
X132120814Y-119790609D01*
X131989711Y-119878210D01*
X131989707Y-119878213D01*
X131878213Y-119989707D01*
X131878207Y-119989715D01*
X131790607Y-120120818D01*
X131790605Y-120120822D01*
X131780805Y-120144480D01*
X131753927Y-120184704D01*
X125917048Y-126021583D01*
X125898234Y-126049741D01*
X125879545Y-126077713D01*
X125834919Y-126144499D01*
X125834912Y-126144511D01*
X125778343Y-126281082D01*
X125778340Y-126281092D01*
X125749500Y-126426079D01*
X125749500Y-126426082D01*
X125749500Y-132573918D01*
X125749500Y-132573920D01*
X125749499Y-132573920D01*
X117297446Y-132573920D01*
X121582951Y-128288416D01*
X121665084Y-128165495D01*
X121673066Y-128146226D01*
X121683188Y-128121789D01*
X121721658Y-128028913D01*
X121731096Y-127981462D01*
X121750500Y-127883920D01*
X121750500Y-115804604D01*
X121759939Y-115757151D01*
X121769737Y-115733497D01*
X121800500Y-115578842D01*
X121800500Y-115421158D01*
X121800500Y-115421155D01*
X121800499Y-115421153D01*
X121782204Y-115329179D01*
X121769737Y-115266503D01*
X121735352Y-115183489D01*
X121709397Y-115120827D01*
X121709390Y-115120814D01*
X121621789Y-114989711D01*
X121621786Y-114989707D01*
X121510292Y-114878213D01*
X121510288Y-114878210D01*
X121379185Y-114790609D01*
X121379172Y-114790602D01*
X121233501Y-114730264D01*
X121233489Y-114730261D01*
X121078845Y-114699500D01*
X121078842Y-114699500D01*
X120921158Y-114699500D01*
X120921155Y-114699500D01*
X120766510Y-114730261D01*
X120766498Y-114730264D01*
X120620827Y-114790602D01*
X120620814Y-114790609D01*
X120489711Y-114878210D01*
X120489707Y-114878213D01*
X120378213Y-114989707D01*
X120378210Y-114989711D01*
X120290609Y-115120814D01*
X120290602Y-115120827D01*
X120230264Y-115266498D01*
X120230261Y-115266510D01*
X120199500Y-115421153D01*
X120199500Y-115578846D01*
X120230261Y-115733489D01*
X120230263Y-115733497D01*
X120240061Y-115757151D01*
X120249500Y-115804604D01*
X120249500Y-127447769D01*
X120229815Y-127514808D01*
X120213181Y-127535450D01*
X116118806Y-131629824D01*
X116057483Y-131663309D01*
X116011726Y-131664616D01*
X115916291Y-131649500D01*
X115916287Y-131649500D01*
X115703713Y-131649500D01*
X115655042Y-131657208D01*
X115493760Y-131682753D01*
X115291585Y-131748444D01*
X115102179Y-131844951D01*
X114930213Y-131969890D01*
X114779890Y-132120213D01*
X114654949Y-132292182D01*
X114650484Y-132300946D01*
X114602509Y-132351742D01*
X114534688Y-132368536D01*
X114468553Y-132345998D01*
X114429516Y-132300946D01*
X114425050Y-132292182D01*
X114300109Y-132120213D01*
X114149794Y-131969898D01*
X114149788Y-131969893D01*
X114071615Y-131913097D01*
X114028949Y-131857767D01*
X114020500Y-131812779D01*
X114020500Y-118592229D01*
X114040185Y-118525190D01*
X114056814Y-118504553D01*
X123315314Y-109246052D01*
X123315364Y-109246019D01*
X123343566Y-109224911D01*
X123349387Y-109221733D01*
X123379179Y-109209394D01*
X123411229Y-109187978D01*
X123416091Y-109185325D01*
X123445027Y-109179035D01*
X123473284Y-109170187D01*
X123478787Y-109171696D01*
X123484367Y-109170484D01*
X123512112Y-109180837D01*
X123540665Y-109188670D01*
X123544479Y-109192916D01*
X123549827Y-109194912D01*
X123567566Y-109218617D01*
X123587356Y-109240648D01*
X123588793Y-109246983D01*
X123591689Y-109250853D01*
X123592614Y-109263822D01*
X123599500Y-109294167D01*
X123599500Y-118088696D01*
X123634103Y-118262659D01*
X123634105Y-118262666D01*
X123660133Y-118325501D01*
X123701987Y-118426547D01*
X123760445Y-118514035D01*
X123763889Y-118519190D01*
X123763890Y-118519191D01*
X123800537Y-118574038D01*
X123925958Y-118699459D01*
X123925962Y-118699462D01*
X123925964Y-118699464D01*
X123952417Y-118717139D01*
X124073453Y-118798013D01*
X124155393Y-118831953D01*
X124237334Y-118865895D01*
X124411303Y-118900499D01*
X124411307Y-118900500D01*
X124411308Y-118900500D01*
X124588693Y-118900500D01*
X124588694Y-118900499D01*
X124762666Y-118865895D01*
X124801187Y-118849938D01*
X124848639Y-118840500D01*
X134769953Y-118840500D01*
X134836992Y-118860185D01*
X134857634Y-118876819D01*
X134912786Y-118931971D01*
X135067749Y-119044556D01*
X135078390Y-119052287D01*
X135194607Y-119111503D01*
X135260776Y-119145218D01*
X135260778Y-119145218D01*
X135260781Y-119145220D01*
X135365137Y-119179127D01*
X135455465Y-119208477D01*
X135543838Y-119222474D01*
X135657648Y-119240500D01*
X135657649Y-119240500D01*
X135862351Y-119240500D01*
X135862352Y-119240500D01*
X136064534Y-119208477D01*
X136259219Y-119145220D01*
X136441610Y-119052287D01*
X136556966Y-118968477D01*
X136607213Y-118931971D01*
X136607215Y-118931968D01*
X136607219Y-118931966D01*
X136751966Y-118787219D01*
X136751968Y-118787215D01*
X136751971Y-118787213D01*
X136821171Y-118691966D01*
X136872287Y-118621610D01*
X136965220Y-118439219D01*
X137028477Y-118244534D01*
X137060500Y-118042352D01*
X137060500Y-117837648D01*
X137028477Y-117635466D01*
X136965220Y-117440781D01*
X136965218Y-117440778D01*
X136965218Y-117440776D01*
X136931503Y-117374607D01*
X136872287Y-117258390D01*
X136830432Y-117200781D01*
X136751971Y-117092786D01*
X136607213Y-116948028D01*
X136441614Y-116827715D01*
X136435006Y-116824348D01*
X136348917Y-116780483D01*
X136298123Y-116732511D01*
X136281328Y-116664690D01*
X136303865Y-116598555D01*
X136348917Y-116559516D01*
X136441610Y-116512287D01*
X136465707Y-116494780D01*
X136607213Y-116391971D01*
X136607215Y-116391968D01*
X136607219Y-116391966D01*
X136751966Y-116247219D01*
X136751968Y-116247215D01*
X136751971Y-116247213D01*
X136804732Y-116174590D01*
X136872287Y-116081610D01*
X136965220Y-115899219D01*
X137028477Y-115704534D01*
X137060500Y-115502352D01*
X137060500Y-115297648D01*
X137028477Y-115095466D01*
X136965220Y-114900781D01*
X136965218Y-114900778D01*
X136965218Y-114900776D01*
X136909081Y-114790602D01*
X136872287Y-114718390D01*
X136816766Y-114641971D01*
X136751971Y-114552786D01*
X136607213Y-114408028D01*
X136441614Y-114287715D01*
X136435006Y-114284348D01*
X136348917Y-114240483D01*
X136298123Y-114192511D01*
X136281328Y-114124690D01*
X136303865Y-114058555D01*
X136348917Y-114019516D01*
X136441610Y-113972287D01*
X136466045Y-113954534D01*
X136607213Y-113851971D01*
X136607215Y-113851968D01*
X136607219Y-113851966D01*
X136751966Y-113707219D01*
X136751968Y-113707215D01*
X136751971Y-113707213D01*
X136804732Y-113634590D01*
X136872287Y-113541610D01*
X136965220Y-113359219D01*
X137028477Y-113164534D01*
X137060500Y-112962352D01*
X137060500Y-112962345D01*
X137060779Y-112960584D01*
X137090708Y-112897450D01*
X137150019Y-112860518D01*
X137219882Y-112861516D01*
X137270933Y-112892301D01*
X148461578Y-124082947D01*
X148461584Y-124082952D01*
X148519709Y-124121789D01*
X148584505Y-124165084D01*
X148615161Y-124177782D01*
X148721088Y-124221659D01*
X148837241Y-124244763D01*
X148856468Y-124248587D01*
X148866081Y-124250500D01*
X148866082Y-124250500D01*
X148866083Y-124250500D01*
X149013918Y-124250500D01*
X150195396Y-124250500D01*
X150242844Y-124259937D01*
X150266503Y-124269737D01*
X150266508Y-124269738D01*
X150266511Y-124269739D01*
X150421153Y-124300499D01*
X150421156Y-124300500D01*
X150421158Y-124300500D01*
X150578844Y-124300500D01*
X150578845Y-124300499D01*
X150733497Y-124269737D01*
X150879179Y-124209394D01*
X151010289Y-124121789D01*
X151121789Y-124010289D01*
X151209394Y-123879179D01*
X151269737Y-123733497D01*
X151300500Y-123578842D01*
X151300500Y-123421158D01*
X151300500Y-123421155D01*
X151300499Y-123421153D01*
X151274531Y-123290606D01*
X151269737Y-123266503D01*
X151254726Y-123230263D01*
X151209397Y-123120827D01*
X151209390Y-123120814D01*
X151121789Y-122989711D01*
X151121786Y-122989707D01*
X151010292Y-122878213D01*
X151010288Y-122878210D01*
X150879185Y-122790609D01*
X150879172Y-122790602D01*
X150733501Y-122730264D01*
X150733489Y-122730261D01*
X150578845Y-122699500D01*
X150578842Y-122699500D01*
X150421158Y-122699500D01*
X150421155Y-122699500D01*
X150266511Y-122730260D01*
X150266506Y-122730262D01*
X150266504Y-122730262D01*
X150266503Y-122730263D01*
X150242844Y-122740062D01*
X150195396Y-122749500D01*
X149302230Y-122749500D01*
X149235191Y-122729815D01*
X149214549Y-122713181D01*
X148963549Y-122462181D01*
X148930064Y-122400858D01*
X148935048Y-122331166D01*
X148976920Y-122275233D01*
X149042384Y-122250816D01*
X149051230Y-122250500D01*
X155189794Y-122250500D01*
X155256833Y-122270185D01*
X155277475Y-122286819D01*
X160169970Y-127179314D01*
X160203455Y-127240637D01*
X160198471Y-127310329D01*
X160156599Y-127366262D01*
X160138585Y-127377479D01*
X159963568Y-127466655D01*
X159829896Y-127563774D01*
X159772490Y-127605483D01*
X159772488Y-127605485D01*
X159772487Y-127605485D01*
X159605485Y-127772487D01*
X159605485Y-127772488D01*
X159605483Y-127772490D01*
X159584145Y-127801859D01*
X159466657Y-127963566D01*
X159359433Y-128174003D01*
X159286446Y-128398631D01*
X159249500Y-128631902D01*
X159249500Y-128868097D01*
X159286446Y-129101368D01*
X159359433Y-129325996D01*
X159466657Y-129536433D01*
X159605483Y-129727510D01*
X159772490Y-129894517D01*
X159963567Y-130033343D01*
X160062991Y-130084002D01*
X160174003Y-130140566D01*
X160174005Y-130140566D01*
X160174008Y-130140568D01*
X160294412Y-130179689D01*
X160398631Y-130213553D01*
X160631903Y-130250500D01*
X160631908Y-130250500D01*
X160868097Y-130250500D01*
X161101368Y-130213553D01*
X161136607Y-130202103D01*
X161325992Y-130140568D01*
X161536433Y-130033343D01*
X161727510Y-129894517D01*
X161894517Y-129727510D01*
X162033343Y-129536433D01*
X162122519Y-129361414D01*
X162170494Y-129310619D01*
X162238315Y-129293824D01*
X162304449Y-129316361D01*
X162320685Y-129330029D01*
X165028260Y-132037603D01*
X167720073Y-134729416D01*
X167799876Y-134809219D01*
X167824609Y-134833952D01*
X167947522Y-134916080D01*
X167947535Y-134916087D01*
X168064160Y-134964394D01*
X168084111Y-134972658D01*
X168084115Y-134972658D01*
X168084116Y-134972659D01*
X168229103Y-135001500D01*
X168229106Y-135001500D01*
X173822920Y-135001500D01*
X173920462Y-134982096D01*
X173967913Y-134972658D01*
X174104495Y-134916084D01*
X174153729Y-134883186D01*
X174227416Y-134833952D01*
X174318954Y-134742411D01*
X174322901Y-134739074D01*
X174331379Y-134735324D01*
X174355525Y-134719190D01*
X174379179Y-134709394D01*
X174510289Y-134621789D01*
X174621789Y-134510289D01*
X174709394Y-134379179D01*
X174769737Y-134233497D01*
X174800500Y-134078842D01*
X174800500Y-133921158D01*
X174800500Y-133921155D01*
X174800499Y-133921153D01*
X174797205Y-133904595D01*
X174769737Y-133766503D01*
X174741800Y-133699056D01*
X174709397Y-133620827D01*
X174709390Y-133620814D01*
X174621789Y-133489711D01*
X174621786Y-133489707D01*
X174510292Y-133378213D01*
X174510288Y-133378210D01*
X174379185Y-133290609D01*
X174379172Y-133290602D01*
X174233501Y-133230264D01*
X174233489Y-133230261D01*
X174078845Y-133199500D01*
X174078842Y-133199500D01*
X173921158Y-133199500D01*
X173921155Y-133199500D01*
X173766510Y-133230261D01*
X173766498Y-133230264D01*
X173620827Y-133290602D01*
X173620814Y-133290609D01*
X173489711Y-133378210D01*
X173489707Y-133378213D01*
X173403740Y-133464181D01*
X173342417Y-133497666D01*
X173316059Y-133500500D01*
X171918046Y-133500500D01*
X171851007Y-133480815D01*
X171805252Y-133428011D01*
X171796429Y-133400691D01*
X171774531Y-133290606D01*
X171769737Y-133266503D01*
X171762901Y-133250000D01*
X171709397Y-133120827D01*
X171709390Y-133120814D01*
X171621789Y-132989711D01*
X171621786Y-132989707D01*
X171510292Y-132878213D01*
X171510288Y-132878210D01*
X171379185Y-132790609D01*
X171379180Y-132790607D01*
X171379179Y-132790606D01*
X171355519Y-132780805D01*
X171315293Y-132753926D01*
X169197899Y-130636532D01*
X169113522Y-130552155D01*
X181825000Y-130552155D01*
X181825000Y-131250000D01*
X182849722Y-131250000D01*
X182805667Y-131326306D01*
X182775000Y-131440756D01*
X182775000Y-131559244D01*
X182805667Y-131673694D01*
X182849722Y-131750000D01*
X181825000Y-131750000D01*
X181825000Y-132447844D01*
X181831401Y-132507372D01*
X181831403Y-132507379D01*
X181881645Y-132642086D01*
X181881649Y-132642093D01*
X181967809Y-132757187D01*
X181967812Y-132757190D01*
X182082906Y-132843350D01*
X182082913Y-132843354D01*
X182217620Y-132893596D01*
X182217627Y-132893598D01*
X182277155Y-132899999D01*
X182277172Y-132900000D01*
X182975000Y-132900000D01*
X182975000Y-131875277D01*
X183051306Y-131919333D01*
X183165756Y-131950000D01*
X183284244Y-131950000D01*
X183398694Y-131919333D01*
X183475000Y-131875277D01*
X183475000Y-132900000D01*
X184172828Y-132900000D01*
X184172844Y-132899999D01*
X184232372Y-132893598D01*
X184232379Y-132893596D01*
X184367086Y-132843354D01*
X184367093Y-132843350D01*
X184482187Y-132757190D01*
X184482190Y-132757187D01*
X184568350Y-132642093D01*
X184568354Y-132642086D01*
X184598213Y-132562031D01*
X184640084Y-132506097D01*
X184705548Y-132481680D01*
X184773821Y-132496531D01*
X184802076Y-132517683D01*
X184852636Y-132568243D01*
X184852641Y-132568247D01*
X184998203Y-132674003D01*
X185030978Y-132697815D01*
X185133396Y-132750000D01*
X185227393Y-132797895D01*
X185227396Y-132797896D01*
X185332221Y-132831955D01*
X185437049Y-132866015D01*
X185654778Y-132900500D01*
X185654779Y-132900500D01*
X185875221Y-132900500D01*
X185875222Y-132900500D01*
X186092951Y-132866015D01*
X186302606Y-132797895D01*
X186499022Y-132697815D01*
X186677365Y-132568242D01*
X186833242Y-132412365D01*
X186962815Y-132234022D01*
X187062895Y-132037606D01*
X187131015Y-131827951D01*
X187146808Y-131728233D01*
X187154569Y-131679240D01*
X187154569Y-131679239D01*
X187165500Y-131610222D01*
X187165500Y-131389778D01*
X187143361Y-131250000D01*
X187131015Y-131172049D01*
X187096955Y-131067221D01*
X187062896Y-130962396D01*
X187062895Y-130962393D01*
X186962815Y-130765978D01*
X186858018Y-130621736D01*
X186858017Y-130621735D01*
X186833243Y-130587636D01*
X186797762Y-130552155D01*
X194825000Y-130552155D01*
X194825000Y-131250000D01*
X195849722Y-131250000D01*
X195805667Y-131326306D01*
X195775000Y-131440756D01*
X195775000Y-131559244D01*
X195805667Y-131673694D01*
X195849722Y-131750000D01*
X194825000Y-131750000D01*
X194825000Y-132447844D01*
X194831401Y-132507372D01*
X194831403Y-132507379D01*
X194881645Y-132642086D01*
X194881649Y-132642093D01*
X194967809Y-132757187D01*
X194967812Y-132757190D01*
X195082906Y-132843350D01*
X195082913Y-132843354D01*
X195217620Y-132893596D01*
X195217627Y-132893598D01*
X195277155Y-132899999D01*
X195277172Y-132900000D01*
X195975000Y-132900000D01*
X195975000Y-131875277D01*
X196051306Y-131919333D01*
X196165756Y-131950000D01*
X196284244Y-131950000D01*
X196398694Y-131919333D01*
X196475000Y-131875277D01*
X196475000Y-132900000D01*
X197172828Y-132900000D01*
X197172844Y-132899999D01*
X197232372Y-132893598D01*
X197232379Y-132893596D01*
X197367086Y-132843354D01*
X197367093Y-132843350D01*
X197482187Y-132757190D01*
X197482190Y-132757187D01*
X197568350Y-132642093D01*
X197568354Y-132642086D01*
X197598213Y-132562031D01*
X197640084Y-132506097D01*
X197705548Y-132481680D01*
X197773821Y-132496531D01*
X197802076Y-132517683D01*
X197852636Y-132568243D01*
X197852641Y-132568247D01*
X197998203Y-132674003D01*
X198030978Y-132697815D01*
X198133396Y-132750000D01*
X198227393Y-132797895D01*
X198227396Y-132797896D01*
X198332221Y-132831955D01*
X198437049Y-132866015D01*
X198654778Y-132900500D01*
X198654779Y-132900500D01*
X198875221Y-132900500D01*
X198875222Y-132900500D01*
X199092951Y-132866015D01*
X199302606Y-132797895D01*
X199499022Y-132697815D01*
X199677365Y-132568242D01*
X199833242Y-132412365D01*
X199962815Y-132234022D01*
X200062895Y-132037606D01*
X200131015Y-131827951D01*
X200165500Y-131610222D01*
X200165500Y-131389778D01*
X200131015Y-131172049D01*
X200096955Y-131067221D01*
X200062896Y-130962396D01*
X200062895Y-130962393D01*
X200028237Y-130894375D01*
X199962815Y-130765978D01*
X199858017Y-130621735D01*
X199833247Y-130587641D01*
X199833243Y-130587636D01*
X199677363Y-130431756D01*
X199677358Y-130431752D01*
X199499025Y-130302187D01*
X199499024Y-130302186D01*
X199499022Y-130302185D01*
X199405750Y-130254660D01*
X199302606Y-130202104D01*
X199302603Y-130202103D01*
X199092952Y-130133985D01*
X198984086Y-130116742D01*
X198875222Y-130099500D01*
X198654778Y-130099500D01*
X198582201Y-130110995D01*
X198437047Y-130133985D01*
X198227396Y-130202103D01*
X198227393Y-130202104D01*
X198030974Y-130302187D01*
X197852641Y-130431752D01*
X197852636Y-130431756D01*
X197802075Y-130482317D01*
X197740752Y-130515801D01*
X197671060Y-130510816D01*
X197615127Y-130468945D01*
X197598213Y-130437968D01*
X197568354Y-130357913D01*
X197568350Y-130357906D01*
X197482190Y-130242812D01*
X197482187Y-130242809D01*
X197367093Y-130156649D01*
X197367086Y-130156645D01*
X197232379Y-130106403D01*
X197232372Y-130106401D01*
X197172844Y-130100000D01*
X196475000Y-130100000D01*
X196475000Y-131124722D01*
X196398694Y-131080667D01*
X196284244Y-131050000D01*
X196165756Y-131050000D01*
X196051306Y-131080667D01*
X195975000Y-131124722D01*
X195975000Y-130100000D01*
X195277155Y-130100000D01*
X195217627Y-130106401D01*
X195217620Y-130106403D01*
X195082913Y-130156645D01*
X195082906Y-130156649D01*
X194967812Y-130242809D01*
X194967809Y-130242812D01*
X194881649Y-130357906D01*
X194881645Y-130357913D01*
X194831403Y-130492620D01*
X194831401Y-130492627D01*
X194825000Y-130552155D01*
X186797762Y-130552155D01*
X186677367Y-130431760D01*
X186677365Y-130431758D01*
X186566613Y-130351291D01*
X186523949Y-130295963D01*
X186515500Y-130250975D01*
X186515500Y-129191079D01*
X186486659Y-129046092D01*
X186486658Y-129046091D01*
X186486658Y-129046087D01*
X186430084Y-128909505D01*
X186392639Y-128853465D01*
X186347952Y-128786584D01*
X185149016Y-127587648D01*
X190699500Y-127587648D01*
X190699500Y-127792351D01*
X190731522Y-127994534D01*
X190794781Y-128189223D01*
X190887715Y-128371613D01*
X191008028Y-128537213D01*
X191152786Y-128681971D01*
X191296775Y-128786583D01*
X191318390Y-128802287D01*
X191434607Y-128861503D01*
X191500776Y-128895218D01*
X191500778Y-128895218D01*
X191500781Y-128895220D01*
X191605137Y-128929127D01*
X191695465Y-128958477D01*
X191796557Y-128974488D01*
X191897648Y-128990500D01*
X191897649Y-128990500D01*
X192102351Y-128990500D01*
X192102352Y-128990500D01*
X192304534Y-128958477D01*
X192499219Y-128895220D01*
X192681610Y-128802287D01*
X192796360Y-128718917D01*
X192847213Y-128681971D01*
X192847215Y-128681968D01*
X192847219Y-128681966D01*
X192991966Y-128537219D01*
X192991968Y-128537215D01*
X192991971Y-128537213D01*
X193044732Y-128464590D01*
X193112287Y-128371610D01*
X193205220Y-128189219D01*
X193268477Y-127994534D01*
X193300500Y-127792352D01*
X193300500Y-127587648D01*
X193268477Y-127385466D01*
X193268476Y-127385464D01*
X193229826Y-127266510D01*
X193205220Y-127190781D01*
X193205218Y-127190778D01*
X193205218Y-127190776D01*
X193139980Y-127062741D01*
X193112287Y-127008390D01*
X193059407Y-126935606D01*
X192991971Y-126842786D01*
X192847213Y-126698028D01*
X192681613Y-126577715D01*
X192681612Y-126577714D01*
X192681610Y-126577713D01*
X192624653Y-126548691D01*
X192499223Y-126484781D01*
X192304534Y-126421522D01*
X192129995Y-126393878D01*
X192102352Y-126389500D01*
X191897648Y-126389500D01*
X191873329Y-126393351D01*
X191695465Y-126421522D01*
X191500776Y-126484781D01*
X191318386Y-126577715D01*
X191152786Y-126698028D01*
X191008028Y-126842786D01*
X190887715Y-127008386D01*
X190794781Y-127190776D01*
X190731522Y-127385465D01*
X190699500Y-127587648D01*
X185149016Y-127587648D01*
X184746071Y-127184703D01*
X184719191Y-127144475D01*
X184709394Y-127120821D01*
X184688800Y-127090000D01*
X184621789Y-126989710D01*
X184510292Y-126878213D01*
X184510288Y-126878210D01*
X184379185Y-126790609D01*
X184379172Y-126790602D01*
X184233501Y-126730264D01*
X184233489Y-126730261D01*
X184078845Y-126699500D01*
X184078842Y-126699500D01*
X183921158Y-126699500D01*
X183921155Y-126699500D01*
X183766510Y-126730261D01*
X183766498Y-126730264D01*
X183620827Y-126790602D01*
X183620814Y-126790609D01*
X183489711Y-126878210D01*
X183489707Y-126878213D01*
X183378213Y-126989707D01*
X183378210Y-126989711D01*
X183290609Y-127120814D01*
X183290602Y-127120827D01*
X183230264Y-127266498D01*
X183230261Y-127266510D01*
X183199500Y-127421153D01*
X183199500Y-127578846D01*
X183230261Y-127733489D01*
X183230264Y-127733501D01*
X183290602Y-127879172D01*
X183290609Y-127879185D01*
X183378210Y-128010288D01*
X183378213Y-128010292D01*
X183489710Y-128121789D01*
X183567862Y-128174008D01*
X183620821Y-128209394D01*
X183644475Y-128219191D01*
X183684703Y-128246071D01*
X184978181Y-129539549D01*
X185011666Y-129600872D01*
X185014500Y-129627230D01*
X185014500Y-130250975D01*
X185013961Y-130252810D01*
X185014445Y-130254660D01*
X185004157Y-130286195D01*
X184994815Y-130318014D01*
X184993182Y-130319842D01*
X184992777Y-130321085D01*
X184984225Y-130329873D01*
X184968882Y-130347059D01*
X184966186Y-130349257D01*
X184852635Y-130431758D01*
X184797645Y-130486747D01*
X184792777Y-130490719D01*
X184766130Y-130501943D01*
X184740752Y-130515801D01*
X184734325Y-130515341D01*
X184728387Y-130517843D01*
X184699897Y-130512878D01*
X184671060Y-130510816D01*
X184665902Y-130506955D01*
X184659555Y-130505849D01*
X184638278Y-130486276D01*
X184615127Y-130468945D01*
X184610774Y-130460974D01*
X184608134Y-130458545D01*
X184606924Y-130453923D01*
X184598213Y-130437968D01*
X184568354Y-130357913D01*
X184568350Y-130357906D01*
X184482190Y-130242812D01*
X184482187Y-130242809D01*
X184367093Y-130156649D01*
X184367086Y-130156645D01*
X184232379Y-130106403D01*
X184232372Y-130106401D01*
X184172844Y-130100000D01*
X183475000Y-130100000D01*
X183475000Y-131124722D01*
X183398694Y-131080667D01*
X183284244Y-131050000D01*
X183165756Y-131050000D01*
X183051306Y-131080667D01*
X182975000Y-131124722D01*
X182975000Y-130100000D01*
X182277155Y-130100000D01*
X182217627Y-130106401D01*
X182217620Y-130106403D01*
X182082913Y-130156645D01*
X182082906Y-130156649D01*
X181967812Y-130242809D01*
X181967809Y-130242812D01*
X181881649Y-130357906D01*
X181881645Y-130357913D01*
X181831403Y-130492620D01*
X181831401Y-130492627D01*
X181825000Y-130552155D01*
X169113522Y-130552155D01*
X168288879Y-129727512D01*
X166149016Y-127587648D01*
X177424500Y-127587648D01*
X177424500Y-127792351D01*
X177456522Y-127994534D01*
X177519781Y-128189223D01*
X177612715Y-128371613D01*
X177733028Y-128537213D01*
X177877786Y-128681971D01*
X178021775Y-128786583D01*
X178043390Y-128802287D01*
X178159607Y-128861503D01*
X178225776Y-128895218D01*
X178225778Y-128895218D01*
X178225781Y-128895220D01*
X178330137Y-128929127D01*
X178420465Y-128958477D01*
X178521557Y-128974488D01*
X178622648Y-128990500D01*
X178622649Y-128990500D01*
X178827351Y-128990500D01*
X178827352Y-128990500D01*
X179029534Y-128958477D01*
X179224219Y-128895220D01*
X179406610Y-128802287D01*
X179521360Y-128718917D01*
X179572213Y-128681971D01*
X179572215Y-128681968D01*
X179572219Y-128681966D01*
X179716966Y-128537219D01*
X179716968Y-128537215D01*
X179716971Y-128537213D01*
X179769732Y-128464590D01*
X179837287Y-128371610D01*
X179930220Y-128189219D01*
X179993477Y-127994534D01*
X180025500Y-127792352D01*
X180025500Y-127587648D01*
X180006337Y-127466657D01*
X180001238Y-127434464D01*
X179998301Y-127415921D01*
X179993477Y-127385466D01*
X179930220Y-127190781D01*
X179930218Y-127190778D01*
X179930218Y-127190776D01*
X179864980Y-127062741D01*
X179837287Y-127008390D01*
X179784407Y-126935606D01*
X179716971Y-126842786D01*
X179572213Y-126698028D01*
X179406613Y-126577715D01*
X179406612Y-126577714D01*
X179406610Y-126577713D01*
X179349653Y-126548691D01*
X179224223Y-126484781D01*
X179029534Y-126421522D01*
X178854995Y-126393878D01*
X178827352Y-126389500D01*
X178622648Y-126389500D01*
X178598329Y-126393351D01*
X178420465Y-126421522D01*
X178225776Y-126484781D01*
X178043386Y-126577715D01*
X177877786Y-126698028D01*
X177733028Y-126842786D01*
X177612715Y-127008386D01*
X177519781Y-127190776D01*
X177456522Y-127385465D01*
X177424500Y-127587648D01*
X166149016Y-127587648D01*
X165286819Y-126725451D01*
X165253334Y-126664128D01*
X165250500Y-126637770D01*
X165250500Y-125304604D01*
X165259939Y-125257151D01*
X165269737Y-125233497D01*
X165300500Y-125078842D01*
X165300500Y-124921158D01*
X165296031Y-124898690D01*
X165302260Y-124829099D01*
X165345123Y-124773922D01*
X165411013Y-124750678D01*
X165417649Y-124750500D01*
X171973920Y-124750500D01*
X172071462Y-124731096D01*
X172118913Y-124721658D01*
X172255495Y-124665084D01*
X172320291Y-124621789D01*
X172320294Y-124621786D01*
X172320296Y-124621786D01*
X172349547Y-124602240D01*
X172378416Y-124582952D01*
X172951080Y-124010288D01*
X173620209Y-123341160D01*
X176160168Y-120801200D01*
X179399232Y-117562135D01*
X181149500Y-117562135D01*
X181149500Y-119357870D01*
X181149501Y-119357876D01*
X181155908Y-119417483D01*
X181206202Y-119552328D01*
X181206206Y-119552335D01*
X181292452Y-119667544D01*
X181292455Y-119667547D01*
X181407664Y-119753793D01*
X181407671Y-119753797D01*
X181452618Y-119770561D01*
X181542517Y-119804091D01*
X181602127Y-119810500D01*
X181612685Y-119810499D01*
X181679723Y-119830179D01*
X181700372Y-119846818D01*
X182370591Y-120517037D01*
X182307007Y-120534075D01*
X182192993Y-120599901D01*
X182099901Y-120692993D01*
X182034075Y-120807007D01*
X182017037Y-120870591D01*
X181384728Y-120238282D01*
X181384727Y-120238282D01*
X181345380Y-120292439D01*
X181248904Y-120481782D01*
X181183242Y-120683869D01*
X181183242Y-120683872D01*
X181150000Y-120893753D01*
X181150000Y-121106246D01*
X181183242Y-121316127D01*
X181183242Y-121316130D01*
X181248904Y-121518217D01*
X181345375Y-121707550D01*
X181384728Y-121761716D01*
X182017037Y-121129408D01*
X182034075Y-121192993D01*
X182099901Y-121307007D01*
X182192993Y-121400099D01*
X182307007Y-121465925D01*
X182370590Y-121482962D01*
X181738282Y-122115269D01*
X181738282Y-122115270D01*
X181792452Y-122154626D01*
X181792451Y-122154626D01*
X181801495Y-122159234D01*
X181852292Y-122207208D01*
X181869087Y-122275029D01*
X181846550Y-122341164D01*
X181801499Y-122380202D01*
X181792182Y-122384949D01*
X181620213Y-122509890D01*
X181469890Y-122660213D01*
X181344951Y-122832179D01*
X181248444Y-123021585D01*
X181182753Y-123223760D01*
X181149500Y-123433713D01*
X181149500Y-123646286D01*
X181163311Y-123733489D01*
X181182754Y-123856243D01*
X181232806Y-124010288D01*
X181248444Y-124058414D01*
X181344951Y-124247820D01*
X181469890Y-124419786D01*
X181620213Y-124570109D01*
X181792179Y-124695048D01*
X181792181Y-124695049D01*
X181792184Y-124695051D01*
X181981588Y-124791557D01*
X182183757Y-124857246D01*
X182393713Y-124890500D01*
X182393714Y-124890500D01*
X182606286Y-124890500D01*
X182606287Y-124890500D01*
X182816243Y-124857246D01*
X183018412Y-124791557D01*
X183207816Y-124695051D01*
X183249062Y-124665084D01*
X183379786Y-124570109D01*
X183379788Y-124570106D01*
X183379792Y-124570104D01*
X183530104Y-124419792D01*
X183530108Y-124419786D01*
X183586903Y-124341615D01*
X183642233Y-124298949D01*
X183687221Y-124290500D01*
X191533920Y-124290500D01*
X191638308Y-124269735D01*
X191678913Y-124261658D01*
X191815495Y-124205084D01*
X191864729Y-124172186D01*
X191875359Y-124165084D01*
X191889071Y-124155921D01*
X191938416Y-124122952D01*
X192582951Y-123478416D01*
X192665084Y-123355495D01*
X192721658Y-123218913D01*
X192742024Y-123116528D01*
X192750500Y-123073920D01*
X192750500Y-120804604D01*
X192759939Y-120757151D01*
X192763239Y-120749184D01*
X192769737Y-120733497D01*
X192800500Y-120578842D01*
X192800500Y-120421158D01*
X192800500Y-120421155D01*
X192800499Y-120421153D01*
X192769738Y-120266510D01*
X192769737Y-120266503D01*
X192735855Y-120184704D01*
X192709397Y-120120827D01*
X192709390Y-120120814D01*
X192621789Y-119989711D01*
X192621786Y-119989707D01*
X192510292Y-119878213D01*
X192510288Y-119878210D01*
X192379185Y-119790609D01*
X192379172Y-119790602D01*
X192233501Y-119730264D01*
X192233489Y-119730261D01*
X192078845Y-119699500D01*
X192078842Y-119699500D01*
X191921158Y-119699500D01*
X191921155Y-119699500D01*
X191766510Y-119730261D01*
X191766498Y-119730264D01*
X191620827Y-119790602D01*
X191620814Y-119790609D01*
X191489711Y-119878210D01*
X191489707Y-119878213D01*
X191378213Y-119989707D01*
X191378210Y-119989711D01*
X191290609Y-120120814D01*
X191290602Y-120120827D01*
X191230264Y-120266498D01*
X191230261Y-120266510D01*
X191199500Y-120421153D01*
X191199500Y-120578846D01*
X191230261Y-120733489D01*
X191230263Y-120733497D01*
X191240061Y-120757151D01*
X191249500Y-120804604D01*
X191249500Y-122637770D01*
X191240855Y-122667210D01*
X191234332Y-122697197D01*
X191230577Y-122702212D01*
X191229815Y-122704809D01*
X191213181Y-122725451D01*
X191185451Y-122753181D01*
X191124128Y-122786666D01*
X191097770Y-122789500D01*
X183687221Y-122789500D01*
X183620182Y-122769815D01*
X183586903Y-122738385D01*
X183530107Y-122660211D01*
X183379786Y-122509890D01*
X183207817Y-122384949D01*
X183198504Y-122380204D01*
X183147707Y-122332230D01*
X183130912Y-122264409D01*
X183153449Y-122198274D01*
X183198507Y-122159232D01*
X183207555Y-122154622D01*
X183261716Y-122115270D01*
X183261717Y-122115270D01*
X182629408Y-121482962D01*
X182692993Y-121465925D01*
X182807007Y-121400099D01*
X182900099Y-121307007D01*
X182965925Y-121192993D01*
X182982962Y-121129408D01*
X183615270Y-121761717D01*
X183615270Y-121761716D01*
X183654622Y-121707554D01*
X183751095Y-121518217D01*
X183816757Y-121316130D01*
X183816757Y-121316127D01*
X183850000Y-121106246D01*
X183850000Y-120893753D01*
X183816757Y-120683872D01*
X183816757Y-120683869D01*
X183751095Y-120481782D01*
X183654624Y-120292449D01*
X183615270Y-120238282D01*
X183615269Y-120238282D01*
X182982962Y-120870590D01*
X182965925Y-120807007D01*
X182900099Y-120692993D01*
X182807007Y-120599901D01*
X182692993Y-120534075D01*
X182629409Y-120517037D01*
X183299627Y-119846818D01*
X183360950Y-119813333D01*
X183387307Y-119810499D01*
X183397872Y-119810499D01*
X183457483Y-119804091D01*
X183592331Y-119753796D01*
X183707546Y-119667546D01*
X183793796Y-119552331D01*
X183844091Y-119417483D01*
X183850500Y-119357873D01*
X183850499Y-117562128D01*
X183844091Y-117502517D01*
X183804163Y-117395465D01*
X183793797Y-117367671D01*
X183793793Y-117367664D01*
X183707547Y-117252455D01*
X183707544Y-117252452D01*
X183592335Y-117166206D01*
X183592328Y-117166202D01*
X183457482Y-117115908D01*
X183457483Y-117115908D01*
X183397883Y-117109501D01*
X183397881Y-117109500D01*
X183397873Y-117109500D01*
X183397864Y-117109500D01*
X181602129Y-117109500D01*
X181602123Y-117109501D01*
X181542516Y-117115908D01*
X181407671Y-117166202D01*
X181407664Y-117166206D01*
X181292455Y-117252452D01*
X181292452Y-117252455D01*
X181206206Y-117367664D01*
X181206202Y-117367671D01*
X181155908Y-117502517D01*
X181149501Y-117562116D01*
X181149501Y-117562123D01*
X181149500Y-117562135D01*
X179399232Y-117562135D01*
X179490242Y-117471125D01*
X180373654Y-116587713D01*
X181265297Y-115696069D01*
X181305524Y-115669191D01*
X181329179Y-115659394D01*
X181460289Y-115571789D01*
X181571789Y-115460289D01*
X181659394Y-115329179D01*
X181719737Y-115183497D01*
X181750500Y-115028842D01*
X181750500Y-114871158D01*
X181750500Y-114871155D01*
X181750499Y-114871153D01*
X181747329Y-114855218D01*
X181719737Y-114716503D01*
X181685855Y-114634703D01*
X181659397Y-114570827D01*
X181659390Y-114570814D01*
X181571789Y-114439711D01*
X181571786Y-114439707D01*
X181460292Y-114328213D01*
X181460288Y-114328210D01*
X181329185Y-114240609D01*
X181329172Y-114240602D01*
X181183501Y-114180264D01*
X181183489Y-114180261D01*
X181028845Y-114149500D01*
X181028842Y-114149500D01*
X180871158Y-114149500D01*
X180871155Y-114149500D01*
X180716510Y-114180261D01*
X180716498Y-114180264D01*
X180570827Y-114240602D01*
X180570814Y-114240609D01*
X180439711Y-114328210D01*
X180439707Y-114328213D01*
X180328213Y-114439707D01*
X180328207Y-114439715D01*
X180240607Y-114570818D01*
X180240606Y-114570819D01*
X180230805Y-114594480D01*
X180203927Y-114634703D01*
X171625451Y-123213181D01*
X171564128Y-123246666D01*
X171537770Y-123249500D01*
X167686425Y-123249500D01*
X167619386Y-123229815D01*
X167573631Y-123177011D01*
X167563687Y-123107853D01*
X167592712Y-123044297D01*
X167648106Y-123007569D01*
X167684669Y-122995688D01*
X167809219Y-122955220D01*
X167991610Y-122862287D01*
X168141783Y-122753181D01*
X168157213Y-122741971D01*
X168157215Y-122741968D01*
X168157219Y-122741966D01*
X168301966Y-122597219D01*
X168301968Y-122597215D01*
X168301971Y-122597213D01*
X168365414Y-122509890D01*
X168422287Y-122431610D01*
X168515220Y-122249219D01*
X168578477Y-122054534D01*
X168610500Y-121852352D01*
X168610500Y-121647648D01*
X168601681Y-121591971D01*
X168610635Y-121522679D01*
X168636470Y-121484895D01*
X179942631Y-110178735D01*
X180003952Y-110145252D01*
X180073644Y-110150236D01*
X180129577Y-110192108D01*
X180152783Y-110247020D01*
X180182753Y-110436239D01*
X180182754Y-110436243D01*
X180233353Y-110591971D01*
X180248444Y-110638414D01*
X180344951Y-110827820D01*
X180469890Y-110999786D01*
X180620213Y-111150109D01*
X180792179Y-111275048D01*
X180792181Y-111275049D01*
X180792184Y-111275051D01*
X180981588Y-111371557D01*
X181183757Y-111437246D01*
X181393713Y-111470500D01*
X181393714Y-111470500D01*
X181606286Y-111470500D01*
X181606287Y-111470500D01*
X181816243Y-111437246D01*
X182018412Y-111371557D01*
X182207816Y-111275051D01*
X182229789Y-111259086D01*
X182379786Y-111150109D01*
X182379788Y-111150106D01*
X182379792Y-111150104D01*
X182530104Y-110999792D01*
X182530106Y-110999788D01*
X182530109Y-110999786D01*
X182655048Y-110827820D01*
X182655047Y-110827820D01*
X182655051Y-110827816D01*
X182659514Y-110819054D01*
X182707488Y-110768259D01*
X182775308Y-110751463D01*
X182841444Y-110773999D01*
X182880486Y-110819056D01*
X182884951Y-110827820D01*
X183009890Y-110999786D01*
X183160213Y-111150109D01*
X183332179Y-111275048D01*
X183332181Y-111275049D01*
X183332184Y-111275051D01*
X183521588Y-111371557D01*
X183723757Y-111437246D01*
X183933713Y-111470500D01*
X183933714Y-111470500D01*
X184146286Y-111470500D01*
X184146287Y-111470500D01*
X184356243Y-111437246D01*
X184558412Y-111371557D01*
X184747816Y-111275051D01*
X184769789Y-111259086D01*
X184919786Y-111150109D01*
X184919788Y-111150106D01*
X184919792Y-111150104D01*
X185070104Y-110999792D01*
X185070106Y-110999788D01*
X185070109Y-110999786D01*
X185195048Y-110827820D01*
X185195047Y-110827820D01*
X185195051Y-110827816D01*
X185291557Y-110638412D01*
X185357246Y-110436243D01*
X185390500Y-110226287D01*
X185390500Y-110013713D01*
X185357246Y-109803757D01*
X185291557Y-109601588D01*
X185195051Y-109412184D01*
X185195049Y-109412181D01*
X185195048Y-109412179D01*
X185070109Y-109240213D01*
X184919786Y-109089890D01*
X184747820Y-108964951D01*
X184747115Y-108964591D01*
X184739054Y-108960485D01*
X184688259Y-108912512D01*
X184671463Y-108844692D01*
X184693999Y-108778556D01*
X184739054Y-108739515D01*
X184747816Y-108735051D01*
X184769789Y-108719086D01*
X184919786Y-108610109D01*
X184919788Y-108610106D01*
X184919792Y-108610104D01*
X185070104Y-108459792D01*
X185117337Y-108394781D01*
X185126903Y-108381615D01*
X185182233Y-108338949D01*
X185227221Y-108330500D01*
X188493920Y-108330500D01*
X188591462Y-108311096D01*
X188638913Y-108301658D01*
X188775495Y-108245084D01*
X188824729Y-108212186D01*
X188825812Y-108211463D01*
X188865862Y-108184703D01*
X188898416Y-108162952D01*
X189082951Y-107978416D01*
X189119621Y-107923535D01*
X189165084Y-107855495D01*
X189221658Y-107718913D01*
X189250500Y-107573918D01*
X189250500Y-83386082D01*
X189250500Y-83386079D01*
X189221659Y-83241092D01*
X189221658Y-83241091D01*
X189221658Y-83241087D01*
X189174402Y-83127000D01*
X189165087Y-83104511D01*
X189165080Y-83104498D01*
X189082952Y-82981585D01*
X189082951Y-82981584D01*
X188978416Y-82877049D01*
X187761575Y-81660208D01*
X186464448Y-80363080D01*
X185083315Y-78981947D01*
X191500000Y-78981947D01*
X191500000Y-79218052D01*
X191536934Y-79451247D01*
X191609897Y-79675802D01*
X191717087Y-79886174D01*
X191777338Y-79969104D01*
X191777340Y-79969105D01*
X192517037Y-79229408D01*
X192534075Y-79292993D01*
X192599901Y-79407007D01*
X192692993Y-79500099D01*
X192807007Y-79565925D01*
X192870590Y-79582962D01*
X192130893Y-80322658D01*
X192213828Y-80382914D01*
X192424197Y-80490102D01*
X192648752Y-80563065D01*
X192648751Y-80563065D01*
X192881948Y-80600000D01*
X193118052Y-80600000D01*
X193351247Y-80563065D01*
X193575802Y-80490102D01*
X193786163Y-80382918D01*
X193786169Y-80382914D01*
X193869104Y-80322658D01*
X193869105Y-80322658D01*
X193129408Y-79582962D01*
X193192993Y-79565925D01*
X193307007Y-79500099D01*
X193400099Y-79407007D01*
X193465925Y-79292993D01*
X193482962Y-79229408D01*
X194222658Y-79969105D01*
X194222658Y-79969104D01*
X194282914Y-79886169D01*
X194282918Y-79886163D01*
X194390102Y-79675802D01*
X194463065Y-79451247D01*
X194500000Y-79218052D01*
X194500000Y-78981947D01*
X194463065Y-78748752D01*
X194390102Y-78524197D01*
X194282914Y-78313828D01*
X194222658Y-78230894D01*
X194222658Y-78230893D01*
X193482962Y-78970590D01*
X193465925Y-78907007D01*
X193400099Y-78792993D01*
X193307007Y-78699901D01*
X193192993Y-78634075D01*
X193129409Y-78617037D01*
X193869105Y-77877340D01*
X193869104Y-77877338D01*
X193786174Y-77817087D01*
X193575802Y-77709897D01*
X193351247Y-77636934D01*
X193351248Y-77636934D01*
X193118052Y-77600000D01*
X192881948Y-77600000D01*
X192648752Y-77636934D01*
X192424197Y-77709897D01*
X192213830Y-77817084D01*
X192130894Y-77877340D01*
X192870591Y-78617037D01*
X192807007Y-78634075D01*
X192692993Y-78699901D01*
X192599901Y-78792993D01*
X192534075Y-78907007D01*
X192517037Y-78970591D01*
X191777340Y-78230894D01*
X191717084Y-78313830D01*
X191609897Y-78524197D01*
X191536934Y-78748752D01*
X191500000Y-78981947D01*
X185083315Y-78981947D01*
X183886818Y-77785450D01*
X183853333Y-77724127D01*
X183850499Y-77697769D01*
X183850499Y-76562129D01*
X183850498Y-76562123D01*
X183850497Y-76562116D01*
X183844091Y-76502517D01*
X183813500Y-76420499D01*
X183793797Y-76367671D01*
X183793793Y-76367664D01*
X183707547Y-76252455D01*
X183707544Y-76252452D01*
X183592335Y-76166206D01*
X183592328Y-76166202D01*
X183457482Y-76115908D01*
X183457483Y-76115908D01*
X183397883Y-76109501D01*
X183397881Y-76109500D01*
X183397873Y-76109500D01*
X183397864Y-76109500D01*
X181602129Y-76109500D01*
X181602123Y-76109501D01*
X181542516Y-76115908D01*
X181407671Y-76166202D01*
X181407664Y-76166206D01*
X181292455Y-76252452D01*
X181292452Y-76252455D01*
X181206206Y-76367664D01*
X181206202Y-76367671D01*
X181155908Y-76502517D01*
X181149501Y-76562116D01*
X181149501Y-76562123D01*
X181149500Y-76562135D01*
X181149500Y-78357870D01*
X181149501Y-78357876D01*
X181155908Y-78417483D01*
X181206202Y-78552328D01*
X181206206Y-78552335D01*
X181292452Y-78667544D01*
X181292455Y-78667547D01*
X181407664Y-78753793D01*
X181407671Y-78753797D01*
X181539082Y-78802810D01*
X181595016Y-78844681D01*
X181619433Y-78910145D01*
X181604582Y-78978418D01*
X181583431Y-79006673D01*
X181469889Y-79120215D01*
X181344951Y-79292179D01*
X181248444Y-79481585D01*
X181182753Y-79683760D01*
X181155861Y-79853553D01*
X181149500Y-79893713D01*
X181149500Y-80106287D01*
X181159534Y-80169644D01*
X181182753Y-80316239D01*
X181182753Y-80316241D01*
X181182754Y-80316243D01*
X181239244Y-80490102D01*
X181248444Y-80518414D01*
X181344951Y-80707820D01*
X181469890Y-80879786D01*
X181620213Y-81030109D01*
X181792182Y-81155050D01*
X181800946Y-81159516D01*
X181851742Y-81207491D01*
X181868536Y-81275312D01*
X181845998Y-81341447D01*
X181800946Y-81380484D01*
X181792182Y-81384949D01*
X181620213Y-81509890D01*
X181469890Y-81660213D01*
X181344951Y-81832179D01*
X181248444Y-82021585D01*
X181182753Y-82223760D01*
X181149500Y-82433713D01*
X181149500Y-82646286D01*
X181171863Y-82787484D01*
X181182754Y-82856243D01*
X181223480Y-82981585D01*
X181248444Y-83058414D01*
X181344951Y-83247820D01*
X181469890Y-83419786D01*
X181620213Y-83570109D01*
X181792179Y-83695048D01*
X181792181Y-83695049D01*
X181792184Y-83695051D01*
X181981588Y-83791557D01*
X182183757Y-83857246D01*
X182393713Y-83890500D01*
X182393714Y-83890500D01*
X182606286Y-83890500D01*
X182606287Y-83890500D01*
X182701728Y-83875383D01*
X182771021Y-83884337D01*
X182808807Y-83910175D01*
X186213181Y-87314549D01*
X186246666Y-87375872D01*
X186249500Y-87402230D01*
X186249500Y-105695396D01*
X186240062Y-105742844D01*
X186234811Y-105755523D01*
X186230262Y-105766506D01*
X186230260Y-105766511D01*
X186199500Y-105921153D01*
X186199500Y-106078846D01*
X186230261Y-106233489D01*
X186230264Y-106233501D01*
X186290602Y-106379172D01*
X186290609Y-106379185D01*
X186378210Y-106510288D01*
X186378213Y-106510292D01*
X186485740Y-106617819D01*
X186519225Y-106679142D01*
X186514241Y-106748834D01*
X186472369Y-106804767D01*
X186406905Y-106829184D01*
X186398059Y-106829500D01*
X185227221Y-106829500D01*
X185160182Y-106809815D01*
X185126903Y-106778385D01*
X185070107Y-106700211D01*
X184919786Y-106549890D01*
X184747820Y-106424951D01*
X184747115Y-106424591D01*
X184739054Y-106420485D01*
X184688259Y-106372512D01*
X184671463Y-106304692D01*
X184693999Y-106238556D01*
X184739054Y-106199515D01*
X184747816Y-106195051D01*
X184811517Y-106148770D01*
X184919786Y-106070109D01*
X184919788Y-106070106D01*
X184919792Y-106070104D01*
X185070104Y-105919792D01*
X185070106Y-105919788D01*
X185070109Y-105919786D01*
X185195048Y-105747820D01*
X185195047Y-105747820D01*
X185195051Y-105747816D01*
X185291557Y-105558412D01*
X185357246Y-105356243D01*
X185390500Y-105146287D01*
X185390500Y-104933713D01*
X185357246Y-104723757D01*
X185291557Y-104521588D01*
X185195051Y-104332184D01*
X185195049Y-104332181D01*
X185195048Y-104332179D01*
X185070109Y-104160213D01*
X184919786Y-104009890D01*
X184747820Y-103884951D01*
X184747115Y-103884591D01*
X184739054Y-103880485D01*
X184688259Y-103832512D01*
X184671463Y-103764692D01*
X184693999Y-103698556D01*
X184739054Y-103659515D01*
X184747816Y-103655051D01*
X184769789Y-103639086D01*
X184919786Y-103530109D01*
X184919788Y-103530106D01*
X184919792Y-103530104D01*
X185070104Y-103379792D01*
X185070106Y-103379788D01*
X185070109Y-103379786D01*
X185195048Y-103207820D01*
X185195047Y-103207820D01*
X185195051Y-103207816D01*
X185291557Y-103018412D01*
X185357246Y-102816243D01*
X185390500Y-102606287D01*
X185390500Y-102393713D01*
X185357246Y-102183757D01*
X185291557Y-101981588D01*
X185195051Y-101792184D01*
X185195049Y-101792181D01*
X185195048Y-101792179D01*
X185070109Y-101620213D01*
X184919786Y-101469890D01*
X184747820Y-101344951D01*
X184747115Y-101344591D01*
X184739054Y-101340485D01*
X184688259Y-101292512D01*
X184671463Y-101224692D01*
X184693999Y-101158556D01*
X184739054Y-101119515D01*
X184747816Y-101115051D01*
X184769789Y-101099086D01*
X184919786Y-100990109D01*
X184919788Y-100990106D01*
X184919792Y-100990104D01*
X185070104Y-100839792D01*
X185070106Y-100839788D01*
X185070109Y-100839786D01*
X185195048Y-100667820D01*
X185195047Y-100667820D01*
X185195051Y-100667816D01*
X185291557Y-100478412D01*
X185357246Y-100276243D01*
X185390500Y-100066287D01*
X185390500Y-99853713D01*
X185357246Y-99643757D01*
X185291557Y-99441588D01*
X185195051Y-99252184D01*
X185195049Y-99252181D01*
X185195048Y-99252179D01*
X185070109Y-99080213D01*
X184919786Y-98929890D01*
X184747820Y-98804951D01*
X184747115Y-98804591D01*
X184739054Y-98800485D01*
X184688259Y-98752512D01*
X184671463Y-98684692D01*
X184693999Y-98618556D01*
X184739054Y-98579515D01*
X184747816Y-98575051D01*
X184769789Y-98559086D01*
X184919786Y-98450109D01*
X184919788Y-98450106D01*
X184919792Y-98450104D01*
X185070104Y-98299792D01*
X185070106Y-98299788D01*
X185070109Y-98299786D01*
X185192292Y-98131613D01*
X185195051Y-98127816D01*
X185291557Y-97938412D01*
X185357246Y-97736243D01*
X185390500Y-97526287D01*
X185390500Y-97313713D01*
X185357246Y-97103757D01*
X185291557Y-96901588D01*
X185195051Y-96712184D01*
X185195049Y-96712181D01*
X185195048Y-96712179D01*
X185070109Y-96540213D01*
X184919786Y-96389890D01*
X184747820Y-96264951D01*
X184747115Y-96264591D01*
X184739054Y-96260485D01*
X184688259Y-96212512D01*
X184671463Y-96144692D01*
X184693999Y-96078556D01*
X184739054Y-96039515D01*
X184747816Y-96035051D01*
X184769789Y-96019086D01*
X184919786Y-95910109D01*
X184919788Y-95910106D01*
X184919792Y-95910104D01*
X185070104Y-95759792D01*
X185070106Y-95759788D01*
X185070109Y-95759786D01*
X185195048Y-95587820D01*
X185195047Y-95587820D01*
X185195051Y-95587816D01*
X185291557Y-95398412D01*
X185357246Y-95196243D01*
X185390500Y-94986287D01*
X185390500Y-94773713D01*
X185357246Y-94563757D01*
X185291557Y-94361588D01*
X185195051Y-94172184D01*
X185195049Y-94172181D01*
X185195048Y-94172179D01*
X185070109Y-94000213D01*
X184919786Y-93849890D01*
X184747820Y-93724951D01*
X184747115Y-93724591D01*
X184739054Y-93720485D01*
X184688259Y-93672512D01*
X184671463Y-93604692D01*
X184693999Y-93538556D01*
X184739054Y-93499515D01*
X184747816Y-93495051D01*
X184834138Y-93432335D01*
X184919786Y-93370109D01*
X184919788Y-93370106D01*
X184919792Y-93370104D01*
X185070104Y-93219792D01*
X185070106Y-93219788D01*
X185070109Y-93219786D01*
X185195048Y-93047820D01*
X185195047Y-93047820D01*
X185195051Y-93047816D01*
X185291557Y-92858412D01*
X185357246Y-92656243D01*
X185390500Y-92446287D01*
X185390500Y-92233713D01*
X185357246Y-92023757D01*
X185291557Y-91821588D01*
X185195051Y-91632184D01*
X185195049Y-91632181D01*
X185195048Y-91632179D01*
X185070109Y-91460213D01*
X184919786Y-91309890D01*
X184747820Y-91184951D01*
X184558414Y-91088444D01*
X184558413Y-91088443D01*
X184558412Y-91088443D01*
X184356243Y-91022754D01*
X184356241Y-91022753D01*
X184356240Y-91022753D01*
X184194957Y-90997208D01*
X184146287Y-90989500D01*
X183933713Y-90989500D01*
X183885042Y-90997208D01*
X183723760Y-91022753D01*
X183521585Y-91088444D01*
X183332179Y-91184951D01*
X183160215Y-91309889D01*
X183046673Y-91423431D01*
X182985350Y-91456915D01*
X182915658Y-91451931D01*
X182859725Y-91410059D01*
X182842810Y-91379082D01*
X182793797Y-91247671D01*
X182793793Y-91247664D01*
X182707547Y-91132455D01*
X182707544Y-91132452D01*
X182592335Y-91046206D01*
X182592328Y-91046202D01*
X182457482Y-90995908D01*
X182457483Y-90995908D01*
X182397883Y-90989501D01*
X182397881Y-90989500D01*
X182397873Y-90989500D01*
X182397865Y-90989500D01*
X182374500Y-90989500D01*
X182307461Y-90969815D01*
X182261706Y-90917011D01*
X182250500Y-90865500D01*
X182250500Y-86926079D01*
X182221659Y-86781092D01*
X182221658Y-86781091D01*
X182221658Y-86781087D01*
X182165084Y-86644505D01*
X182114284Y-86568477D01*
X182083553Y-86522483D01*
X182082954Y-86521586D01*
X182082952Y-86521584D01*
X176228421Y-80667052D01*
X176228414Y-80667046D01*
X176154729Y-80617812D01*
X176154729Y-80617813D01*
X176105491Y-80584913D01*
X175968917Y-80528343D01*
X175968907Y-80528340D01*
X175823920Y-80499500D01*
X175823918Y-80499500D01*
X168435418Y-80499500D01*
X168368379Y-80479815D01*
X168335100Y-80448385D01*
X168301971Y-80402787D01*
X168301967Y-80402782D01*
X168157213Y-80258028D01*
X167991613Y-80137715D01*
X167991612Y-80137714D01*
X167991610Y-80137713D01*
X167898616Y-80090330D01*
X167809223Y-80044781D01*
X167614534Y-79981522D01*
X167439995Y-79953878D01*
X167412352Y-79949500D01*
X167207648Y-79949500D01*
X167183329Y-79953351D01*
X167005465Y-79981522D01*
X166810776Y-80044781D01*
X166628386Y-80137715D01*
X166462786Y-80258028D01*
X166318028Y-80402786D01*
X166197715Y-80568386D01*
X166104781Y-80750776D01*
X166041522Y-80945465D01*
X166009500Y-81147648D01*
X166009500Y-81352351D01*
X166041522Y-81554534D01*
X166104781Y-81749223D01*
X166197715Y-81931613D01*
X166318028Y-82097213D01*
X166462786Y-82241971D01*
X166617749Y-82354556D01*
X166628390Y-82362287D01*
X166744607Y-82421503D01*
X166810776Y-82455218D01*
X166810778Y-82455218D01*
X166810781Y-82455220D01*
X166894282Y-82482351D01*
X167005465Y-82518477D01*
X167106557Y-82534488D01*
X167207648Y-82550500D01*
X167207649Y-82550500D01*
X167412351Y-82550500D01*
X167412352Y-82550500D01*
X167614534Y-82518477D01*
X167809219Y-82455220D01*
X167991610Y-82362287D01*
X168108107Y-82277648D01*
X168157213Y-82241971D01*
X168157215Y-82241968D01*
X168157219Y-82241966D01*
X168301966Y-82097219D01*
X168304650Y-82093524D01*
X168335100Y-82051615D01*
X168390429Y-82008949D01*
X168435418Y-82000500D01*
X175387770Y-82000500D01*
X175454809Y-82020185D01*
X175475451Y-82036819D01*
X180713181Y-87274549D01*
X180746666Y-87335872D01*
X180749500Y-87362230D01*
X180749500Y-88388769D01*
X180729815Y-88455808D01*
X180677011Y-88501563D01*
X180607853Y-88511507D01*
X180544297Y-88482482D01*
X180537819Y-88476450D01*
X176978421Y-84917052D01*
X176978414Y-84917046D01*
X176904729Y-84867812D01*
X176904729Y-84867813D01*
X176855491Y-84834913D01*
X176718917Y-84778343D01*
X176718907Y-84778340D01*
X176573920Y-84749500D01*
X176573918Y-84749500D01*
X170804604Y-84749500D01*
X170757155Y-84740062D01*
X170733497Y-84730263D01*
X170733493Y-84730262D01*
X170733488Y-84730260D01*
X170578845Y-84699500D01*
X170578842Y-84699500D01*
X170421158Y-84699500D01*
X170421155Y-84699500D01*
X170266510Y-84730261D01*
X170266498Y-84730264D01*
X170120827Y-84790602D01*
X170120814Y-84790609D01*
X169989711Y-84878210D01*
X169989707Y-84878213D01*
X169878213Y-84989707D01*
X169878210Y-84989711D01*
X169790609Y-85120814D01*
X169790602Y-85120827D01*
X169730264Y-85266498D01*
X169730261Y-85266510D01*
X169699500Y-85421153D01*
X169699500Y-85578846D01*
X169730261Y-85733489D01*
X169730264Y-85733501D01*
X169790602Y-85879172D01*
X169790609Y-85879185D01*
X169878210Y-86010288D01*
X169878213Y-86010292D01*
X169989707Y-86121786D01*
X169989711Y-86121789D01*
X170120814Y-86209390D01*
X170120827Y-86209397D01*
X170266498Y-86269735D01*
X170266503Y-86269737D01*
X170419665Y-86300203D01*
X170421153Y-86300499D01*
X170421156Y-86300500D01*
X170421158Y-86300500D01*
X170578844Y-86300500D01*
X170578845Y-86300499D01*
X170655152Y-86285320D01*
X170733488Y-86269739D01*
X170733489Y-86269738D01*
X170733497Y-86269737D01*
X170757155Y-86259937D01*
X170804604Y-86250500D01*
X176137770Y-86250500D01*
X176204809Y-86270185D01*
X176225451Y-86286819D01*
X176981689Y-87043057D01*
X177015174Y-87104380D01*
X177010190Y-87174072D01*
X176968318Y-87230005D01*
X176902854Y-87254422D01*
X176855690Y-87248669D01*
X176804419Y-87232010D01*
X176602317Y-87200000D01*
X176397683Y-87200000D01*
X176195582Y-87232009D01*
X176000968Y-87295244D01*
X175818644Y-87388143D01*
X175774077Y-87420523D01*
X175774077Y-87420524D01*
X176453554Y-88100000D01*
X176447339Y-88100000D01*
X176345606Y-88127259D01*
X176254394Y-88179920D01*
X176179920Y-88254394D01*
X176127259Y-88345606D01*
X176100000Y-88447339D01*
X176100000Y-88453553D01*
X175420524Y-87774077D01*
X175420523Y-87774077D01*
X175388143Y-87818644D01*
X175295244Y-88000968D01*
X175232009Y-88195582D01*
X175200000Y-88397682D01*
X175200000Y-88602317D01*
X175232009Y-88804417D01*
X175295244Y-88999031D01*
X175388141Y-89181350D01*
X175388147Y-89181359D01*
X175420523Y-89225921D01*
X175420524Y-89225922D01*
X176100000Y-88546446D01*
X176100000Y-88552661D01*
X176127259Y-88654394D01*
X176179920Y-88745606D01*
X176254394Y-88820080D01*
X176345606Y-88872741D01*
X176447339Y-88900000D01*
X176453553Y-88900000D01*
X175774076Y-89579474D01*
X175818650Y-89611859D01*
X176000968Y-89704755D01*
X176195582Y-89767990D01*
X176397683Y-89800000D01*
X176602317Y-89800000D01*
X176804417Y-89767990D01*
X176999031Y-89704755D01*
X177181349Y-89611859D01*
X177225921Y-89579474D01*
X176546447Y-88900000D01*
X176552661Y-88900000D01*
X176654394Y-88872741D01*
X176745606Y-88820080D01*
X176820080Y-88745606D01*
X176872741Y-88654394D01*
X176900000Y-88552661D01*
X176900000Y-88546446D01*
X177579474Y-89225921D01*
X177611859Y-89181349D01*
X177704755Y-88999031D01*
X177767990Y-88804417D01*
X177800000Y-88602317D01*
X177800000Y-88397682D01*
X177767990Y-88195582D01*
X177751330Y-88144309D01*
X177749335Y-88074468D01*
X177785415Y-88014635D01*
X177848115Y-87983806D01*
X177917530Y-87991770D01*
X177956940Y-88018307D01*
X177988133Y-88049500D01*
X179753926Y-89815293D01*
X179780806Y-89855520D01*
X179790606Y-89879178D01*
X179790609Y-89879185D01*
X179878210Y-90010288D01*
X179878213Y-90010292D01*
X179989707Y-90121786D01*
X179989711Y-90121789D01*
X180120814Y-90209390D01*
X180120827Y-90209397D01*
X180250499Y-90263108D01*
X180266503Y-90269737D01*
X180398691Y-90296031D01*
X180421153Y-90300499D01*
X180421156Y-90300500D01*
X180421158Y-90300500D01*
X180578842Y-90300500D01*
X180601308Y-90296031D01*
X180670898Y-90302257D01*
X180726076Y-90345119D01*
X180749322Y-90411008D01*
X180749500Y-90417648D01*
X180749500Y-90865500D01*
X180729815Y-90932539D01*
X180677011Y-90978294D01*
X180625505Y-90989500D01*
X180602132Y-90989500D01*
X180602123Y-90989501D01*
X180542516Y-90995908D01*
X180407671Y-91046202D01*
X180407664Y-91046206D01*
X180292455Y-91132452D01*
X180292452Y-91132455D01*
X180206206Y-91247664D01*
X180206202Y-91247671D01*
X180155908Y-91382517D01*
X180149501Y-91442116D01*
X180149500Y-91442135D01*
X180149500Y-93237870D01*
X180149501Y-93237876D01*
X180155908Y-93297483D01*
X180206202Y-93432328D01*
X180206206Y-93432335D01*
X180292452Y-93547544D01*
X180292455Y-93547547D01*
X180407664Y-93633793D01*
X180407671Y-93633797D01*
X180539082Y-93682810D01*
X180595016Y-93724681D01*
X180619433Y-93790145D01*
X180604582Y-93858418D01*
X180583431Y-93886673D01*
X180469889Y-94000215D01*
X180344951Y-94172179D01*
X180248444Y-94361585D01*
X180182753Y-94563760D01*
X180149500Y-94773713D01*
X180149500Y-94986286D01*
X180182753Y-95196239D01*
X180248444Y-95398414D01*
X180344951Y-95587820D01*
X180469890Y-95759786D01*
X180620213Y-95910109D01*
X180792182Y-96035050D01*
X180800946Y-96039516D01*
X180851742Y-96087491D01*
X180868536Y-96155312D01*
X180845998Y-96221447D01*
X180800946Y-96260484D01*
X180792182Y-96264949D01*
X180620213Y-96389890D01*
X180469890Y-96540213D01*
X180344951Y-96712179D01*
X180248444Y-96901585D01*
X180182753Y-97103760D01*
X180149500Y-97313713D01*
X180149500Y-97526286D01*
X180182753Y-97736239D01*
X180248444Y-97938414D01*
X180344951Y-98127820D01*
X180469890Y-98299786D01*
X180620213Y-98450109D01*
X180792182Y-98575050D01*
X180800946Y-98579516D01*
X180851742Y-98627491D01*
X180868536Y-98695312D01*
X180845998Y-98761447D01*
X180800946Y-98800484D01*
X180792182Y-98804949D01*
X180620213Y-98929890D01*
X180469890Y-99080213D01*
X180344951Y-99252179D01*
X180248444Y-99441585D01*
X180182753Y-99643760D01*
X180149500Y-99853713D01*
X180149500Y-100066286D01*
X180180553Y-100262351D01*
X180182754Y-100276243D01*
X180248443Y-100478412D01*
X180326761Y-100632120D01*
X180339657Y-100700788D01*
X180313381Y-100765529D01*
X180303957Y-100776095D01*
X178897068Y-102182984D01*
X178835745Y-102216469D01*
X178833579Y-102216920D01*
X178766508Y-102230261D01*
X178766498Y-102230264D01*
X178620827Y-102290602D01*
X178620814Y-102290609D01*
X178489711Y-102378210D01*
X178489707Y-102378213D01*
X178378213Y-102489707D01*
X178378210Y-102489711D01*
X178290609Y-102620814D01*
X178290602Y-102620827D01*
X178230264Y-102766498D01*
X178230261Y-102766510D01*
X178199500Y-102921153D01*
X178199500Y-103078841D01*
X178203969Y-103101310D01*
X178197740Y-103170901D01*
X178154877Y-103226078D01*
X178088987Y-103249322D01*
X178082351Y-103249500D01*
X170926080Y-103249500D01*
X170781092Y-103278340D01*
X170781086Y-103278342D01*
X170644508Y-103334914D01*
X170644496Y-103334921D01*
X170595269Y-103367813D01*
X170521588Y-103417044D01*
X170521580Y-103417050D01*
X169175451Y-104763181D01*
X169114128Y-104796666D01*
X169087770Y-104799500D01*
X168435418Y-104799500D01*
X168368379Y-104779815D01*
X168335100Y-104748385D01*
X168301971Y-104702787D01*
X168301967Y-104702782D01*
X168157213Y-104558028D01*
X167991613Y-104437715D01*
X167991612Y-104437714D01*
X167991610Y-104437713D01*
X167903436Y-104392786D01*
X167809223Y-104344781D01*
X167614534Y-104281522D01*
X167439995Y-104253878D01*
X167412352Y-104249500D01*
X167207648Y-104249500D01*
X167183329Y-104253351D01*
X167005465Y-104281522D01*
X166810776Y-104344781D01*
X166628386Y-104437715D01*
X166462786Y-104558028D01*
X166318028Y-104702786D01*
X166197715Y-104868386D01*
X166104781Y-105050776D01*
X166041522Y-105245465D01*
X166009500Y-105447648D01*
X166009500Y-105652351D01*
X166041522Y-105854534D01*
X166104781Y-106049223D01*
X166155504Y-106148770D01*
X166197027Y-106230264D01*
X166197715Y-106231613D01*
X166318028Y-106397213D01*
X166462786Y-106541971D01*
X166617749Y-106654556D01*
X166628390Y-106662287D01*
X166720843Y-106709394D01*
X166810776Y-106755218D01*
X166810778Y-106755218D01*
X166810781Y-106755220D01*
X166855460Y-106769737D01*
X167005465Y-106818477D01*
X167073066Y-106829184D01*
X167207648Y-106850500D01*
X167207649Y-106850500D01*
X167412351Y-106850500D01*
X167412352Y-106850500D01*
X167614534Y-106818477D01*
X167809219Y-106755220D01*
X167991610Y-106662287D01*
X168115177Y-106572511D01*
X168157213Y-106541971D01*
X168157215Y-106541968D01*
X168157219Y-106541966D01*
X168301966Y-106397219D01*
X168304650Y-106393524D01*
X168335100Y-106351615D01*
X168390429Y-106308949D01*
X168435418Y-106300500D01*
X169248770Y-106300500D01*
X169315809Y-106320185D01*
X169361564Y-106372989D01*
X169371508Y-106442147D01*
X169342483Y-106505703D01*
X169336451Y-106512181D01*
X167575105Y-108273526D01*
X167513782Y-108307011D01*
X167468026Y-108308318D01*
X167412352Y-108299500D01*
X167207648Y-108299500D01*
X167194017Y-108301659D01*
X167005465Y-108331522D01*
X166810776Y-108394781D01*
X166628386Y-108487715D01*
X166462786Y-108608028D01*
X166318028Y-108752786D01*
X166197715Y-108918386D01*
X166104781Y-109100776D01*
X166041522Y-109295465D01*
X166009500Y-109497648D01*
X166009500Y-109702351D01*
X166041522Y-109904534D01*
X166104781Y-110099223D01*
X166152109Y-110192108D01*
X166180088Y-110247020D01*
X166197715Y-110281613D01*
X166318028Y-110447213D01*
X166462786Y-110591971D01*
X166617749Y-110704556D01*
X166628390Y-110712287D01*
X166738241Y-110768259D01*
X166810776Y-110805218D01*
X166810778Y-110805218D01*
X166810781Y-110805220D01*
X166880337Y-110827820D01*
X167005465Y-110868477D01*
X167058191Y-110876828D01*
X167207648Y-110900500D01*
X167207649Y-110900500D01*
X167238769Y-110900500D01*
X167305808Y-110920185D01*
X167351563Y-110972989D01*
X167361507Y-111042147D01*
X167332482Y-111105703D01*
X167326450Y-111112181D01*
X166727047Y-111711584D01*
X166727043Y-111711589D01*
X166702908Y-111747712D01*
X166702908Y-111747713D01*
X166644914Y-111834508D01*
X166588343Y-111971082D01*
X166588340Y-111971092D01*
X166559500Y-112116079D01*
X166559500Y-112524582D01*
X166539815Y-112591621D01*
X166508385Y-112624900D01*
X166462787Y-112658028D01*
X166462782Y-112658032D01*
X166318028Y-112802786D01*
X166197715Y-112968386D01*
X166104781Y-113150776D01*
X166041522Y-113345465D01*
X166009500Y-113547648D01*
X166009500Y-113752351D01*
X166041522Y-113954534D01*
X166104781Y-114149223D01*
X166168691Y-114274653D01*
X166195982Y-114328213D01*
X166197715Y-114331613D01*
X166318028Y-114497213D01*
X166462786Y-114641971D01*
X166617749Y-114754556D01*
X166628390Y-114762287D01*
X166744607Y-114821503D01*
X166810776Y-114855218D01*
X166810778Y-114855218D01*
X166810781Y-114855220D01*
X166915137Y-114889127D01*
X167005465Y-114918477D01*
X167106557Y-114934488D01*
X167207648Y-114950500D01*
X167207649Y-114950500D01*
X167412351Y-114950500D01*
X167412352Y-114950500D01*
X167614534Y-114918477D01*
X167809219Y-114855220D01*
X167991610Y-114762287D01*
X168084590Y-114694732D01*
X168157213Y-114641971D01*
X168157215Y-114641968D01*
X168157219Y-114641966D01*
X168301966Y-114497219D01*
X168301968Y-114497215D01*
X168301971Y-114497213D01*
X168366762Y-114408034D01*
X168422287Y-114331610D01*
X168515220Y-114149219D01*
X168578477Y-113954534D01*
X168610500Y-113752352D01*
X168610500Y-113547648D01*
X168578477Y-113345466D01*
X168515220Y-113150781D01*
X168515218Y-113150778D01*
X168515218Y-113150776D01*
X168481503Y-113084607D01*
X168422287Y-112968390D01*
X168414556Y-112957749D01*
X168301971Y-112802786D01*
X168157217Y-112658032D01*
X168157212Y-112658028D01*
X168127628Y-112636534D01*
X168084962Y-112581204D01*
X168078983Y-112511591D01*
X168111588Y-112449796D01*
X168112758Y-112448609D01*
X173774549Y-106786819D01*
X173835872Y-106753334D01*
X173862230Y-106750500D01*
X177040192Y-106750500D01*
X177107231Y-106770185D01*
X177152986Y-106822989D01*
X177162930Y-106892147D01*
X177133905Y-106955703D01*
X177127873Y-106962181D01*
X167697190Y-116392862D01*
X167635867Y-116426347D01*
X167590111Y-116427654D01*
X167444611Y-116404609D01*
X167412352Y-116399500D01*
X167207648Y-116399500D01*
X167183329Y-116403351D01*
X167005465Y-116431522D01*
X166810776Y-116494781D01*
X166628386Y-116587715D01*
X166462786Y-116708028D01*
X166318028Y-116852786D01*
X166197715Y-117018386D01*
X166104781Y-117200776D01*
X166041522Y-117395465D01*
X166009500Y-117597648D01*
X166009500Y-117802349D01*
X166009499Y-117802349D01*
X166041522Y-118004534D01*
X166104781Y-118199223D01*
X166197715Y-118381613D01*
X166318028Y-118547213D01*
X166462786Y-118691971D01*
X166608738Y-118798009D01*
X166628390Y-118812287D01*
X166744607Y-118871503D01*
X166810776Y-118905218D01*
X166810778Y-118905218D01*
X166810781Y-118905220D01*
X166893097Y-118931966D01*
X167005465Y-118968477D01*
X167106557Y-118984488D01*
X167207648Y-119000500D01*
X167207649Y-119000500D01*
X167412351Y-119000500D01*
X167412352Y-119000500D01*
X167614534Y-118968477D01*
X167809219Y-118905220D01*
X167991610Y-118812287D01*
X168122570Y-118717140D01*
X168157213Y-118691971D01*
X168157215Y-118691968D01*
X168157219Y-118691966D01*
X168301966Y-118547219D01*
X168301968Y-118547215D01*
X168301971Y-118547213D01*
X168380432Y-118439219D01*
X168422287Y-118381610D01*
X168515220Y-118199219D01*
X168578477Y-118004534D01*
X168610500Y-117802352D01*
X168610500Y-117597648D01*
X168604872Y-117562116D01*
X168582345Y-117419886D01*
X168591300Y-117350593D01*
X168617134Y-117312810D01*
X178642127Y-107287819D01*
X178703450Y-107254334D01*
X178729808Y-107251500D01*
X180039510Y-107251500D01*
X180106549Y-107271185D01*
X180152304Y-107323989D01*
X180162248Y-107393147D01*
X180161983Y-107394898D01*
X180149500Y-107473713D01*
X180149500Y-107686291D01*
X180161881Y-107764463D01*
X180152926Y-107833757D01*
X180127089Y-107871542D01*
X167575105Y-120423526D01*
X167513782Y-120457011D01*
X167468026Y-120458318D01*
X167412352Y-120449500D01*
X167207648Y-120449500D01*
X167183329Y-120453351D01*
X167005465Y-120481522D01*
X166810776Y-120544781D01*
X166628386Y-120637715D01*
X166462786Y-120758028D01*
X166318028Y-120902786D01*
X166197715Y-121068386D01*
X166104781Y-121250776D01*
X166041522Y-121445465D01*
X166009500Y-121647648D01*
X166009500Y-121852351D01*
X166041522Y-122054534D01*
X166104781Y-122249223D01*
X166197715Y-122431613D01*
X166318028Y-122597213D01*
X166462786Y-122741971D01*
X166586956Y-122832184D01*
X166628390Y-122862287D01*
X166744607Y-122921503D01*
X166810776Y-122955218D01*
X166810778Y-122955218D01*
X166810781Y-122955220D01*
X166910852Y-122987735D01*
X166971894Y-123007569D01*
X167029569Y-123047007D01*
X167056767Y-123111366D01*
X167044852Y-123180212D01*
X166997608Y-123231688D01*
X166933575Y-123249500D01*
X160304604Y-123249500D01*
X160273929Y-123245646D01*
X160265343Y-123243453D01*
X160233497Y-123230263D01*
X160143778Y-123212416D01*
X160140552Y-123211593D01*
X160113254Y-123195393D01*
X160085124Y-123180679D01*
X160083422Y-123177690D01*
X160080466Y-123175936D01*
X160066263Y-123147557D01*
X160050550Y-123119963D01*
X160050734Y-123116528D01*
X160049196Y-123113455D01*
X160052590Y-123081901D01*
X160054290Y-123050194D01*
X160056301Y-123047404D01*
X160056669Y-123043986D01*
X160076588Y-123019272D01*
X160095157Y-122993522D01*
X160098972Y-122991500D01*
X160100515Y-122989586D01*
X160106076Y-122987735D01*
X160132907Y-122973516D01*
X160189219Y-122955220D01*
X160371610Y-122862287D01*
X160521783Y-122753181D01*
X160537213Y-122741971D01*
X160537215Y-122741968D01*
X160537219Y-122741966D01*
X160681966Y-122597219D01*
X160681968Y-122597215D01*
X160681971Y-122597213D01*
X160745414Y-122509890D01*
X160802287Y-122431610D01*
X160895220Y-122249219D01*
X160958477Y-122054534D01*
X160990500Y-121852352D01*
X160990500Y-121647648D01*
X160970000Y-121518217D01*
X160958477Y-121445465D01*
X160895218Y-121250776D01*
X160829495Y-121121789D01*
X160802287Y-121068390D01*
X160760077Y-121010292D01*
X160681971Y-120902786D01*
X160537213Y-120758028D01*
X160371613Y-120637715D01*
X160371612Y-120637714D01*
X160371610Y-120637713D01*
X160297400Y-120599901D01*
X160189223Y-120544781D01*
X159994534Y-120481522D01*
X159819995Y-120453878D01*
X159792352Y-120449500D01*
X159587648Y-120449500D01*
X159563329Y-120453351D01*
X159385465Y-120481522D01*
X159190776Y-120544781D01*
X159008386Y-120637715D01*
X158842786Y-120758028D01*
X158698028Y-120902786D01*
X158577715Y-121068386D01*
X158484781Y-121250776D01*
X158421522Y-121445465D01*
X158389500Y-121647648D01*
X158389500Y-121852351D01*
X158421522Y-122054534D01*
X158484781Y-122249223D01*
X158577715Y-122431613D01*
X158698028Y-122597213D01*
X158842786Y-122741971D01*
X158966956Y-122832184D01*
X159008390Y-122862287D01*
X159124607Y-122921503D01*
X159190776Y-122955218D01*
X159190778Y-122955218D01*
X159190781Y-122955220D01*
X159290852Y-122987735D01*
X159385465Y-123018477D01*
X159421392Y-123024167D01*
X159587648Y-123050500D01*
X159587664Y-123050500D01*
X159587734Y-123050506D01*
X159587767Y-123050518D01*
X159592460Y-123051262D01*
X159592303Y-123052247D01*
X159653022Y-123075391D01*
X159694493Y-123131622D01*
X159698979Y-123201348D01*
X159665056Y-123262430D01*
X159625462Y-123288683D01*
X159620825Y-123290603D01*
X159620814Y-123290609D01*
X159489711Y-123378210D01*
X159489707Y-123378213D01*
X159378213Y-123489707D01*
X159378210Y-123489711D01*
X159290609Y-123620814D01*
X159290602Y-123620827D01*
X159230264Y-123766498D01*
X159230261Y-123766508D01*
X159217391Y-123831212D01*
X159185006Y-123893123D01*
X159124290Y-123927697D01*
X159054521Y-123923957D01*
X159008093Y-123894701D01*
X156030445Y-120917052D01*
X156030438Y-120917046D01*
X155956753Y-120867812D01*
X155956753Y-120867813D01*
X155907515Y-120834913D01*
X155770941Y-120778343D01*
X155770931Y-120778340D01*
X155625944Y-120749500D01*
X155625942Y-120749500D01*
X151917649Y-120749500D01*
X151850610Y-120729815D01*
X151804855Y-120677011D01*
X151794911Y-120607853D01*
X151796031Y-120601310D01*
X151800499Y-120578846D01*
X151800500Y-120578842D01*
X151800500Y-120421158D01*
X151800500Y-120421155D01*
X151800499Y-120421153D01*
X151769738Y-120266510D01*
X151769737Y-120266503D01*
X151735855Y-120184704D01*
X151709397Y-120120827D01*
X151709390Y-120120814D01*
X151621789Y-119989711D01*
X151621786Y-119989707D01*
X151510292Y-119878213D01*
X151510288Y-119878210D01*
X151379185Y-119790609D01*
X151379180Y-119790607D01*
X151379179Y-119790606D01*
X151355519Y-119780805D01*
X151315293Y-119753926D01*
X151013548Y-119452181D01*
X150980063Y-119390858D01*
X150985047Y-119321166D01*
X151026919Y-119265233D01*
X151092383Y-119240816D01*
X151101229Y-119240500D01*
X151102351Y-119240500D01*
X151102352Y-119240500D01*
X151304534Y-119208477D01*
X151499219Y-119145220D01*
X151681610Y-119052287D01*
X151796966Y-118968477D01*
X151847213Y-118931971D01*
X151847215Y-118931968D01*
X151847219Y-118931966D01*
X151991966Y-118787219D01*
X151991968Y-118787215D01*
X151991971Y-118787213D01*
X152061171Y-118691966D01*
X152112287Y-118621610D01*
X152205220Y-118439219D01*
X152268477Y-118244534D01*
X152300500Y-118042352D01*
X152300500Y-117837648D01*
X152294909Y-117802349D01*
X158389499Y-117802349D01*
X158421522Y-118004534D01*
X158484781Y-118199223D01*
X158577715Y-118381613D01*
X158698028Y-118547213D01*
X158842786Y-118691971D01*
X158988738Y-118798009D01*
X159008390Y-118812287D01*
X159124607Y-118871503D01*
X159190776Y-118905218D01*
X159190778Y-118905218D01*
X159190781Y-118905220D01*
X159273097Y-118931966D01*
X159385465Y-118968477D01*
X159486557Y-118984488D01*
X159587648Y-119000500D01*
X159587649Y-119000500D01*
X159792351Y-119000500D01*
X159792352Y-119000500D01*
X159994534Y-118968477D01*
X160189219Y-118905220D01*
X160371610Y-118812287D01*
X160502570Y-118717140D01*
X160537213Y-118691971D01*
X160537215Y-118691968D01*
X160537219Y-118691966D01*
X160681966Y-118547219D01*
X160681968Y-118547215D01*
X160681971Y-118547213D01*
X160760432Y-118439219D01*
X160802287Y-118381610D01*
X160895220Y-118199219D01*
X160958477Y-118004534D01*
X160990500Y-117802352D01*
X160990500Y-117597648D01*
X160984872Y-117562116D01*
X160958477Y-117395465D01*
X160912010Y-117252455D01*
X160895220Y-117200781D01*
X160895218Y-117200778D01*
X160895218Y-117200776D01*
X160848710Y-117109500D01*
X160802287Y-117018390D01*
X160791237Y-117003181D01*
X160681971Y-116852786D01*
X160537213Y-116708028D01*
X160371613Y-116587715D01*
X160371612Y-116587714D01*
X160371610Y-116587713D01*
X160314653Y-116558691D01*
X160189223Y-116494781D01*
X159994534Y-116431522D01*
X159819995Y-116403878D01*
X159792352Y-116399500D01*
X159587648Y-116399500D01*
X159563329Y-116403351D01*
X159385465Y-116431522D01*
X159190776Y-116494781D01*
X159008386Y-116587715D01*
X158842786Y-116708028D01*
X158698028Y-116852786D01*
X158577715Y-117018386D01*
X158484781Y-117200776D01*
X158421522Y-117395465D01*
X158389500Y-117597648D01*
X158389500Y-117802349D01*
X158389499Y-117802349D01*
X152294909Y-117802349D01*
X152268477Y-117635466D01*
X152205220Y-117440781D01*
X152205218Y-117440778D01*
X152205218Y-117440776D01*
X152171503Y-117374607D01*
X152112287Y-117258390D01*
X152070432Y-117200781D01*
X151991971Y-117092786D01*
X151847213Y-116948028D01*
X151681614Y-116827715D01*
X151675006Y-116824348D01*
X151588917Y-116780483D01*
X151538123Y-116732511D01*
X151521328Y-116664690D01*
X151543865Y-116598555D01*
X151588917Y-116559516D01*
X151681610Y-116512287D01*
X151705707Y-116494780D01*
X151847213Y-116391971D01*
X151847215Y-116391968D01*
X151847219Y-116391966D01*
X151991966Y-116247219D01*
X151991968Y-116247215D01*
X151991971Y-116247213D01*
X152044732Y-116174590D01*
X152112287Y-116081610D01*
X152205220Y-115899219D01*
X152268477Y-115704534D01*
X152300500Y-115502352D01*
X152300500Y-115297648D01*
X152268477Y-115095466D01*
X152205220Y-114900781D01*
X152205218Y-114900778D01*
X152205218Y-114900776D01*
X152149081Y-114790602D01*
X152112287Y-114718390D01*
X152056766Y-114641971D01*
X151991971Y-114552786D01*
X151847213Y-114408028D01*
X151681614Y-114287715D01*
X151675006Y-114284348D01*
X151588917Y-114240483D01*
X151538123Y-114192511D01*
X151521328Y-114124690D01*
X151543865Y-114058555D01*
X151588917Y-114019516D01*
X151681610Y-113972287D01*
X151706045Y-113954534D01*
X151847213Y-113851971D01*
X151847215Y-113851968D01*
X151847219Y-113851966D01*
X151991966Y-113707219D01*
X151991968Y-113707215D01*
X151991971Y-113707213D01*
X152107900Y-113547648D01*
X158389500Y-113547648D01*
X158389500Y-113752351D01*
X158421522Y-113954534D01*
X158484781Y-114149223D01*
X158548691Y-114274653D01*
X158575982Y-114328213D01*
X158577715Y-114331613D01*
X158698028Y-114497213D01*
X158842786Y-114641971D01*
X158997749Y-114754556D01*
X159008390Y-114762287D01*
X159124607Y-114821503D01*
X159190776Y-114855218D01*
X159190778Y-114855218D01*
X159190781Y-114855220D01*
X159295137Y-114889127D01*
X159385465Y-114918477D01*
X159486557Y-114934488D01*
X159587648Y-114950500D01*
X159587649Y-114950500D01*
X159792351Y-114950500D01*
X159792352Y-114950500D01*
X159994534Y-114918477D01*
X160189219Y-114855220D01*
X160371610Y-114762287D01*
X160464590Y-114694732D01*
X160537213Y-114641971D01*
X160537215Y-114641968D01*
X160537219Y-114641966D01*
X160681966Y-114497219D01*
X160681968Y-114497215D01*
X160681971Y-114497213D01*
X160746762Y-114408034D01*
X160802287Y-114331610D01*
X160895220Y-114149219D01*
X160958477Y-113954534D01*
X160990500Y-113752352D01*
X160990500Y-113547648D01*
X160958477Y-113345466D01*
X160895220Y-113150781D01*
X160895218Y-113150778D01*
X160895218Y-113150776D01*
X160861503Y-113084607D01*
X160802287Y-112968390D01*
X160794556Y-112957749D01*
X160681971Y-112802786D01*
X160537213Y-112658028D01*
X160371613Y-112537715D01*
X160371612Y-112537714D01*
X160371610Y-112537713D01*
X160299298Y-112500868D01*
X160189223Y-112444781D01*
X159994534Y-112381522D01*
X159819995Y-112353878D01*
X159792352Y-112349500D01*
X159587648Y-112349500D01*
X159563329Y-112353351D01*
X159385465Y-112381522D01*
X159190776Y-112444781D01*
X159008386Y-112537715D01*
X158842786Y-112658028D01*
X158698028Y-112802786D01*
X158577715Y-112968386D01*
X158484781Y-113150776D01*
X158421522Y-113345465D01*
X158389500Y-113547648D01*
X152107900Y-113547648D01*
X152112286Y-113541611D01*
X152140378Y-113486480D01*
X152205218Y-113359223D01*
X152205218Y-113359222D01*
X152205220Y-113359219D01*
X152268477Y-113164534D01*
X152300500Y-112962352D01*
X152300500Y-112757648D01*
X152286239Y-112667606D01*
X152268477Y-112555465D01*
X152205218Y-112360776D01*
X152171503Y-112294607D01*
X152112287Y-112178390D01*
X152067016Y-112116079D01*
X151991971Y-112012786D01*
X151847213Y-111868028D01*
X151681614Y-111747715D01*
X151675006Y-111744348D01*
X151588917Y-111700483D01*
X151538123Y-111652511D01*
X151521328Y-111584690D01*
X151543865Y-111518555D01*
X151588917Y-111479516D01*
X151681610Y-111432287D01*
X151702770Y-111416913D01*
X151847213Y-111311971D01*
X151847215Y-111311968D01*
X151847219Y-111311966D01*
X151991966Y-111167219D01*
X151991968Y-111167215D01*
X151991971Y-111167213D01*
X152082835Y-111042147D01*
X152112287Y-111001610D01*
X152205220Y-110819219D01*
X152268477Y-110624534D01*
X152300500Y-110422352D01*
X152300500Y-110217648D01*
X152268477Y-110015466D01*
X152267907Y-110013713D01*
X152232433Y-109904534D01*
X152205220Y-109820781D01*
X152205218Y-109820778D01*
X152205218Y-109820776D01*
X152112287Y-109638390D01*
X152059447Y-109565661D01*
X152059446Y-109565658D01*
X152010034Y-109497648D01*
X158389500Y-109497648D01*
X158389500Y-109702351D01*
X158421522Y-109904534D01*
X158484781Y-110099223D01*
X158532109Y-110192108D01*
X158560088Y-110247020D01*
X158577715Y-110281613D01*
X158698028Y-110447213D01*
X158842786Y-110591971D01*
X158997749Y-110704556D01*
X159008390Y-110712287D01*
X159118241Y-110768259D01*
X159190776Y-110805218D01*
X159190778Y-110805218D01*
X159190781Y-110805220D01*
X159260337Y-110827820D01*
X159385465Y-110868477D01*
X159438191Y-110876828D01*
X159587648Y-110900500D01*
X159587649Y-110900500D01*
X159792351Y-110900500D01*
X159792352Y-110900500D01*
X159994534Y-110868477D01*
X160189219Y-110805220D01*
X160371610Y-110712287D01*
X160496175Y-110621786D01*
X160537213Y-110591971D01*
X160537215Y-110591968D01*
X160537219Y-110591966D01*
X160681966Y-110447219D01*
X160681968Y-110447215D01*
X160681971Y-110447213D01*
X160750927Y-110352301D01*
X160802287Y-110281610D01*
X160895220Y-110099219D01*
X160958477Y-109904534D01*
X160990500Y-109702352D01*
X160990500Y-109497648D01*
X160963635Y-109328034D01*
X160958477Y-109295465D01*
X160901934Y-109121446D01*
X160895220Y-109100781D01*
X160895218Y-109100778D01*
X160895218Y-109100776D01*
X160837495Y-108987490D01*
X160802287Y-108918390D01*
X160756459Y-108855312D01*
X160681971Y-108752786D01*
X160537213Y-108608028D01*
X160371613Y-108487715D01*
X160371612Y-108487714D01*
X160371610Y-108487713D01*
X160314653Y-108458691D01*
X160189223Y-108394781D01*
X159994534Y-108331522D01*
X159805983Y-108301659D01*
X159792352Y-108299500D01*
X159587648Y-108299500D01*
X159574017Y-108301659D01*
X159385465Y-108331522D01*
X159190776Y-108394781D01*
X159008386Y-108487715D01*
X158842786Y-108608028D01*
X158698028Y-108752786D01*
X158577715Y-108918386D01*
X158484781Y-109100776D01*
X158421522Y-109295465D01*
X158389500Y-109497648D01*
X152010034Y-109497648D01*
X151991971Y-109472787D01*
X151991967Y-109472782D01*
X151847213Y-109328028D01*
X151681614Y-109207715D01*
X151665491Y-109199500D01*
X151588917Y-109160483D01*
X151538123Y-109112511D01*
X151521328Y-109044690D01*
X151543865Y-108978555D01*
X151588917Y-108939516D01*
X151681610Y-108892287D01*
X151739814Y-108850000D01*
X151847213Y-108771971D01*
X151847215Y-108771968D01*
X151847219Y-108771966D01*
X151991966Y-108627219D01*
X151991968Y-108627215D01*
X151991971Y-108627213D01*
X152044732Y-108554590D01*
X152112287Y-108461610D01*
X152205220Y-108279219D01*
X152268477Y-108084534D01*
X152300500Y-107882352D01*
X152300500Y-107677648D01*
X152268477Y-107475466D01*
X152267907Y-107473713D01*
X152219259Y-107323989D01*
X152205220Y-107280781D01*
X152205218Y-107280778D01*
X152205218Y-107280776D01*
X152171503Y-107214607D01*
X152112287Y-107098390D01*
X152085549Y-107061588D01*
X151991971Y-106932786D01*
X151847213Y-106788028D01*
X151681614Y-106667715D01*
X151670955Y-106662284D01*
X151588917Y-106620483D01*
X151538123Y-106572511D01*
X151521328Y-106504690D01*
X151543865Y-106438555D01*
X151588917Y-106399516D01*
X151681610Y-106352287D01*
X151741260Y-106308949D01*
X151847213Y-106231971D01*
X151847215Y-106231968D01*
X151847219Y-106231966D01*
X151991966Y-106087219D01*
X151991968Y-106087215D01*
X151991971Y-106087213D01*
X152044732Y-106014590D01*
X152112287Y-105921610D01*
X152205220Y-105739219D01*
X152268477Y-105544534D01*
X152283823Y-105447648D01*
X158389500Y-105447648D01*
X158389500Y-105652351D01*
X158421522Y-105854534D01*
X158484781Y-106049223D01*
X158535504Y-106148770D01*
X158577027Y-106230264D01*
X158577715Y-106231613D01*
X158698028Y-106397213D01*
X158842786Y-106541971D01*
X158997749Y-106654556D01*
X159008390Y-106662287D01*
X159100843Y-106709394D01*
X159190776Y-106755218D01*
X159190778Y-106755218D01*
X159190781Y-106755220D01*
X159235460Y-106769737D01*
X159385465Y-106818477D01*
X159453066Y-106829184D01*
X159587648Y-106850500D01*
X159587649Y-106850500D01*
X159792351Y-106850500D01*
X159792352Y-106850500D01*
X159994534Y-106818477D01*
X160189219Y-106755220D01*
X160371610Y-106662287D01*
X160495177Y-106572511D01*
X160537213Y-106541971D01*
X160537215Y-106541968D01*
X160537219Y-106541966D01*
X160681966Y-106397219D01*
X160681968Y-106397215D01*
X160681971Y-106397213D01*
X160752236Y-106300500D01*
X160802287Y-106231610D01*
X160895220Y-106049219D01*
X160958477Y-105854534D01*
X160990500Y-105652352D01*
X160990500Y-105447648D01*
X160976022Y-105356239D01*
X160958477Y-105245465D01*
X160911638Y-105101310D01*
X160895220Y-105050781D01*
X160895218Y-105050778D01*
X160895218Y-105050776D01*
X160836463Y-104935465D01*
X160802287Y-104868390D01*
X160750177Y-104796666D01*
X160681971Y-104702786D01*
X160537213Y-104558028D01*
X160371613Y-104437715D01*
X160371612Y-104437714D01*
X160371610Y-104437713D01*
X160283436Y-104392786D01*
X160189223Y-104344781D01*
X159994534Y-104281522D01*
X159819995Y-104253878D01*
X159792352Y-104249500D01*
X159587648Y-104249500D01*
X159563329Y-104253351D01*
X159385465Y-104281522D01*
X159190776Y-104344781D01*
X159008386Y-104437715D01*
X158842786Y-104558028D01*
X158698028Y-104702786D01*
X158577715Y-104868386D01*
X158484781Y-105050776D01*
X158421522Y-105245465D01*
X158389500Y-105447648D01*
X152283823Y-105447648D01*
X152287667Y-105423378D01*
X152287667Y-105423377D01*
X152300500Y-105342352D01*
X152300500Y-105137648D01*
X152268477Y-104935465D01*
X152214774Y-104770185D01*
X152205220Y-104740781D01*
X152205218Y-104740778D01*
X152205218Y-104740776D01*
X152171503Y-104674607D01*
X152112287Y-104558390D01*
X152085547Y-104521585D01*
X151991971Y-104392786D01*
X151847213Y-104248028D01*
X151681614Y-104127715D01*
X151668070Y-104120814D01*
X151588917Y-104080483D01*
X151538123Y-104032511D01*
X151521328Y-103964690D01*
X151543865Y-103898555D01*
X151588917Y-103859516D01*
X151681610Y-103812287D01*
X151739814Y-103770000D01*
X151847213Y-103691971D01*
X151847215Y-103691968D01*
X151847219Y-103691966D01*
X151991966Y-103547219D01*
X151991968Y-103547215D01*
X151991971Y-103547213D01*
X152044732Y-103474590D01*
X152112287Y-103381610D01*
X152205220Y-103199219D01*
X152268477Y-103004534D01*
X152300500Y-102802352D01*
X152300500Y-102597648D01*
X152268477Y-102395466D01*
X152267907Y-102393713D01*
X152234405Y-102290602D01*
X152205220Y-102200781D01*
X152205218Y-102200778D01*
X152205218Y-102200776D01*
X152171503Y-102134607D01*
X152112287Y-102018390D01*
X152104556Y-102007749D01*
X151991971Y-101852786D01*
X151847213Y-101708028D01*
X151681614Y-101587715D01*
X151675006Y-101584348D01*
X151588917Y-101540483D01*
X151579764Y-101531838D01*
X151568099Y-101527104D01*
X151554847Y-101508306D01*
X151538123Y-101492511D01*
X151535096Y-101480288D01*
X151527842Y-101469998D01*
X151526856Y-101447017D01*
X151521328Y-101424690D01*
X151525389Y-101412772D01*
X151524850Y-101400192D01*
X151526335Y-101397648D01*
X158389500Y-101397648D01*
X158389500Y-101602351D01*
X158421522Y-101804534D01*
X158484781Y-101999223D01*
X158577715Y-102181613D01*
X158698028Y-102347213D01*
X158842786Y-102491971D01*
X158988241Y-102597648D01*
X159008390Y-102612287D01*
X159124607Y-102671503D01*
X159190776Y-102705218D01*
X159190778Y-102705218D01*
X159190781Y-102705220D01*
X159295137Y-102739127D01*
X159385465Y-102768477D01*
X159486557Y-102784488D01*
X159587648Y-102800500D01*
X159587649Y-102800500D01*
X159792351Y-102800500D01*
X159792352Y-102800500D01*
X159994534Y-102768477D01*
X160189219Y-102705220D01*
X160371610Y-102612287D01*
X160464590Y-102544732D01*
X160537213Y-102491971D01*
X160537215Y-102491968D01*
X160537219Y-102491966D01*
X160681966Y-102347219D01*
X160681968Y-102347215D01*
X160681971Y-102347213D01*
X160766938Y-102230264D01*
X160802287Y-102181610D01*
X160895220Y-101999219D01*
X160958477Y-101804534D01*
X160990500Y-101602352D01*
X160990500Y-101397648D01*
X166009500Y-101397648D01*
X166009500Y-101602351D01*
X166041522Y-101804534D01*
X166104781Y-101999223D01*
X166197715Y-102181613D01*
X166318028Y-102347213D01*
X166462786Y-102491971D01*
X166608241Y-102597648D01*
X166628390Y-102612287D01*
X166744607Y-102671503D01*
X166810776Y-102705218D01*
X166810778Y-102705218D01*
X166810781Y-102705220D01*
X166915137Y-102739127D01*
X167005465Y-102768477D01*
X167106557Y-102784488D01*
X167207648Y-102800500D01*
X167207649Y-102800500D01*
X167412351Y-102800500D01*
X167412352Y-102800500D01*
X167614534Y-102768477D01*
X167809219Y-102705220D01*
X167991610Y-102612287D01*
X168084590Y-102544732D01*
X168157213Y-102491971D01*
X168157215Y-102491968D01*
X168157219Y-102491966D01*
X168301966Y-102347219D01*
X168301968Y-102347215D01*
X168301971Y-102347213D01*
X168386938Y-102230264D01*
X168422287Y-102181610D01*
X168515220Y-101999219D01*
X168578477Y-101804534D01*
X168610500Y-101602352D01*
X168610500Y-101397648D01*
X168602839Y-101349280D01*
X168578477Y-101195465D01*
X168549127Y-101105137D01*
X168515220Y-101000781D01*
X168515218Y-101000778D01*
X168515218Y-101000776D01*
X168469219Y-100910500D01*
X168422287Y-100818390D01*
X168383882Y-100765529D01*
X168301971Y-100652786D01*
X168157213Y-100508028D01*
X167991613Y-100387715D01*
X167991612Y-100387714D01*
X167991610Y-100387713D01*
X167934653Y-100358691D01*
X167809223Y-100294781D01*
X167614534Y-100231522D01*
X167439995Y-100203878D01*
X167412352Y-100199500D01*
X167207648Y-100199500D01*
X167183329Y-100203351D01*
X167005465Y-100231522D01*
X166810776Y-100294781D01*
X166628386Y-100387715D01*
X166462786Y-100508028D01*
X166318028Y-100652786D01*
X166197715Y-100818386D01*
X166104781Y-101000776D01*
X166041522Y-101195465D01*
X166009500Y-101397648D01*
X160990500Y-101397648D01*
X160982839Y-101349280D01*
X160958477Y-101195465D01*
X160929127Y-101105137D01*
X160895220Y-101000781D01*
X160895218Y-101000778D01*
X160895218Y-101000776D01*
X160849219Y-100910500D01*
X160802287Y-100818390D01*
X160763882Y-100765529D01*
X160681971Y-100652786D01*
X160537213Y-100508028D01*
X160371613Y-100387715D01*
X160371612Y-100387714D01*
X160371610Y-100387713D01*
X160314653Y-100358691D01*
X160189223Y-100294781D01*
X159994534Y-100231522D01*
X159819995Y-100203878D01*
X159792352Y-100199500D01*
X159587648Y-100199500D01*
X159563329Y-100203351D01*
X159385465Y-100231522D01*
X159190776Y-100294781D01*
X159008386Y-100387715D01*
X158842786Y-100508028D01*
X158698028Y-100652786D01*
X158577715Y-100818386D01*
X158484781Y-101000776D01*
X158421522Y-101195465D01*
X158389500Y-101397648D01*
X151526335Y-101397648D01*
X151536445Y-101380326D01*
X151543865Y-101358555D01*
X151554567Y-101349280D01*
X151560073Y-101339850D01*
X151588920Y-101319515D01*
X151661974Y-101282292D01*
X151661976Y-101282291D01*
X151681610Y-101272287D01*
X151838149Y-101158556D01*
X151847213Y-101151971D01*
X151847215Y-101151968D01*
X151847219Y-101151966D01*
X151991966Y-101007219D01*
X151991968Y-101007215D01*
X151991971Y-101007213D01*
X152062236Y-100910500D01*
X152112287Y-100841610D01*
X152205220Y-100659219D01*
X152268477Y-100464534D01*
X152300500Y-100262352D01*
X152300500Y-100057648D01*
X152268477Y-99855466D01*
X152267907Y-99853713D01*
X152205218Y-99660776D01*
X152162553Y-99577043D01*
X152112287Y-99478390D01*
X152085547Y-99441585D01*
X151991971Y-99312786D01*
X151847213Y-99168028D01*
X151681614Y-99047715D01*
X151675006Y-99044348D01*
X151588917Y-99000483D01*
X151538123Y-98952511D01*
X151521328Y-98884690D01*
X151543865Y-98818555D01*
X151588917Y-98779516D01*
X151681610Y-98732287D01*
X151739814Y-98690000D01*
X151847213Y-98611971D01*
X151847215Y-98611968D01*
X151847219Y-98611966D01*
X151991966Y-98467219D01*
X151991968Y-98467215D01*
X151991971Y-98467213D01*
X152044732Y-98394590D01*
X152112287Y-98301610D01*
X152205220Y-98119219D01*
X152268477Y-97924534D01*
X152300500Y-97722352D01*
X152300500Y-97517648D01*
X152273574Y-97347648D01*
X158389500Y-97347648D01*
X158389500Y-97552351D01*
X158421522Y-97754534D01*
X158484781Y-97949223D01*
X158536876Y-98051463D01*
X158571401Y-98119223D01*
X158577715Y-98131613D01*
X158698028Y-98297213D01*
X158842786Y-98441971D01*
X158997749Y-98554556D01*
X159008390Y-98562287D01*
X159105900Y-98611971D01*
X159190776Y-98655218D01*
X159190778Y-98655218D01*
X159190781Y-98655220D01*
X159295137Y-98689127D01*
X159385465Y-98718477D01*
X159486557Y-98734488D01*
X159587648Y-98750500D01*
X159587649Y-98750500D01*
X159792351Y-98750500D01*
X159792352Y-98750500D01*
X159994534Y-98718477D01*
X160189219Y-98655220D01*
X160371610Y-98562287D01*
X160502461Y-98467219D01*
X160537213Y-98441971D01*
X160537215Y-98441968D01*
X160537219Y-98441966D01*
X160681966Y-98297219D01*
X160681968Y-98297215D01*
X160681971Y-98297213D01*
X160734732Y-98224590D01*
X160802287Y-98131610D01*
X160895220Y-97949219D01*
X160958477Y-97754534D01*
X160990500Y-97552352D01*
X160990500Y-97347648D01*
X166009500Y-97347648D01*
X166009500Y-97552351D01*
X166041522Y-97754534D01*
X166104781Y-97949223D01*
X166156876Y-98051463D01*
X166191401Y-98119223D01*
X166197715Y-98131613D01*
X166318028Y-98297213D01*
X166462786Y-98441971D01*
X166617749Y-98554556D01*
X166628390Y-98562287D01*
X166725900Y-98611971D01*
X166810776Y-98655218D01*
X166810778Y-98655218D01*
X166810781Y-98655220D01*
X166915137Y-98689127D01*
X167005465Y-98718477D01*
X167106557Y-98734488D01*
X167207648Y-98750500D01*
X167207649Y-98750500D01*
X167412351Y-98750500D01*
X167412352Y-98750500D01*
X167614534Y-98718477D01*
X167809219Y-98655220D01*
X167991610Y-98562287D01*
X168122461Y-98467219D01*
X168157213Y-98441971D01*
X168157215Y-98441968D01*
X168157219Y-98441966D01*
X168301966Y-98297219D01*
X168301968Y-98297215D01*
X168301971Y-98297213D01*
X168354732Y-98224590D01*
X168422287Y-98131610D01*
X168515220Y-97949219D01*
X168578477Y-97754534D01*
X168610500Y-97552352D01*
X168610500Y-97347648D01*
X168578477Y-97145466D01*
X168570456Y-97120781D01*
X168515218Y-96950776D01*
X168481503Y-96884607D01*
X168422287Y-96768390D01*
X168414556Y-96757749D01*
X168301971Y-96602786D01*
X168157213Y-96458028D01*
X167991613Y-96337715D01*
X167991612Y-96337714D01*
X167991610Y-96337713D01*
X167934653Y-96308691D01*
X167809223Y-96244781D01*
X167614534Y-96181522D01*
X167439995Y-96153878D01*
X167412352Y-96149500D01*
X167207648Y-96149500D01*
X167183329Y-96153351D01*
X167005465Y-96181522D01*
X166810776Y-96244781D01*
X166628386Y-96337715D01*
X166462786Y-96458028D01*
X166318028Y-96602786D01*
X166197715Y-96768386D01*
X166104781Y-96950776D01*
X166041522Y-97145465D01*
X166009500Y-97347648D01*
X160990500Y-97347648D01*
X160958477Y-97145466D01*
X160950456Y-97120781D01*
X160895218Y-96950776D01*
X160861503Y-96884607D01*
X160802287Y-96768390D01*
X160794556Y-96757749D01*
X160681971Y-96602786D01*
X160537213Y-96458028D01*
X160371613Y-96337715D01*
X160371612Y-96337714D01*
X160371610Y-96337713D01*
X160314653Y-96308691D01*
X160189223Y-96244781D01*
X159994534Y-96181522D01*
X159819995Y-96153878D01*
X159792352Y-96149500D01*
X159587648Y-96149500D01*
X159563329Y-96153351D01*
X159385465Y-96181522D01*
X159190776Y-96244781D01*
X159008386Y-96337715D01*
X158842786Y-96458028D01*
X158698028Y-96602786D01*
X158577715Y-96768386D01*
X158484781Y-96950776D01*
X158421522Y-97145465D01*
X158389500Y-97347648D01*
X152273574Y-97347648D01*
X152268477Y-97315466D01*
X152267907Y-97313713D01*
X152239127Y-97225137D01*
X152205220Y-97120781D01*
X152205218Y-97120778D01*
X152205218Y-97120776D01*
X152171503Y-97054607D01*
X152112287Y-96938390D01*
X152085547Y-96901585D01*
X151991971Y-96772786D01*
X151847213Y-96628028D01*
X151681614Y-96507715D01*
X151675006Y-96504348D01*
X151588917Y-96460483D01*
X151538123Y-96412511D01*
X151521328Y-96344690D01*
X151543865Y-96278555D01*
X151588917Y-96239516D01*
X151681610Y-96192287D01*
X151740502Y-96149500D01*
X151847213Y-96071971D01*
X151847215Y-96071968D01*
X151847219Y-96071966D01*
X151991966Y-95927219D01*
X151991968Y-95927215D01*
X151991971Y-95927213D01*
X152046191Y-95852584D01*
X152112287Y-95761610D01*
X152205220Y-95579219D01*
X152268477Y-95384534D01*
X152300500Y-95182352D01*
X152300500Y-94977648D01*
X152268477Y-94775466D01*
X152267907Y-94773713D01*
X152233714Y-94668477D01*
X152205220Y-94580781D01*
X152205218Y-94580778D01*
X152205218Y-94580776D01*
X152171503Y-94514607D01*
X152112287Y-94398390D01*
X152085547Y-94361585D01*
X151991971Y-94232786D01*
X151847213Y-94088028D01*
X151681614Y-93967715D01*
X151675006Y-93964348D01*
X151588917Y-93920483D01*
X151538123Y-93872511D01*
X151521328Y-93804690D01*
X151543865Y-93738555D01*
X151588917Y-93699516D01*
X151681610Y-93652287D01*
X151739814Y-93610000D01*
X151847213Y-93531971D01*
X151847215Y-93531968D01*
X151847219Y-93531966D01*
X151991966Y-93387219D01*
X152057043Y-93297648D01*
X158389500Y-93297648D01*
X158389500Y-93502351D01*
X158421522Y-93704534D01*
X158484781Y-93899223D01*
X158577715Y-94081613D01*
X158698028Y-94247213D01*
X158842786Y-94391971D01*
X158997749Y-94504556D01*
X159008390Y-94512287D01*
X159124607Y-94571503D01*
X159190776Y-94605218D01*
X159190778Y-94605218D01*
X159190781Y-94605220D01*
X159295137Y-94639127D01*
X159385465Y-94668477D01*
X159486557Y-94684488D01*
X159587648Y-94700500D01*
X159587649Y-94700500D01*
X159792351Y-94700500D01*
X159792352Y-94700500D01*
X159994534Y-94668477D01*
X160189219Y-94605220D01*
X160371610Y-94512287D01*
X160500906Y-94418349D01*
X160537213Y-94391971D01*
X160537215Y-94391968D01*
X160537219Y-94391966D01*
X160681966Y-94247219D01*
X160681968Y-94247215D01*
X160681971Y-94247213D01*
X160736485Y-94172179D01*
X160802287Y-94081610D01*
X160895220Y-93899219D01*
X160958477Y-93704534D01*
X160990500Y-93502352D01*
X160990500Y-93297648D01*
X166009500Y-93297648D01*
X166009500Y-93502351D01*
X166041522Y-93704534D01*
X166104781Y-93899223D01*
X166197715Y-94081613D01*
X166318028Y-94247213D01*
X166462786Y-94391971D01*
X166617749Y-94504556D01*
X166628390Y-94512287D01*
X166744607Y-94571503D01*
X166810776Y-94605218D01*
X166810778Y-94605218D01*
X166810781Y-94605220D01*
X166915137Y-94639127D01*
X167005465Y-94668477D01*
X167106557Y-94684488D01*
X167207648Y-94700500D01*
X167207649Y-94700500D01*
X167412351Y-94700500D01*
X167412352Y-94700500D01*
X167614534Y-94668477D01*
X167809219Y-94605220D01*
X167991610Y-94512287D01*
X168120906Y-94418349D01*
X168157213Y-94391971D01*
X168157215Y-94391968D01*
X168157219Y-94391966D01*
X168301966Y-94247219D01*
X168301968Y-94247215D01*
X168301971Y-94247213D01*
X168356485Y-94172179D01*
X168422287Y-94081610D01*
X168515220Y-93899219D01*
X168578477Y-93704534D01*
X168610500Y-93502352D01*
X168610500Y-93297648D01*
X168578477Y-93095466D01*
X168515220Y-92900781D01*
X168515218Y-92900778D01*
X168515218Y-92900776D01*
X168481503Y-92834607D01*
X168422287Y-92718390D01*
X168367042Y-92642351D01*
X168301971Y-92552786D01*
X168157213Y-92408028D01*
X167991613Y-92287715D01*
X167991612Y-92287714D01*
X167991610Y-92287713D01*
X167889068Y-92235465D01*
X167809223Y-92194781D01*
X167614534Y-92131522D01*
X167439995Y-92103878D01*
X167412352Y-92099500D01*
X167207648Y-92099500D01*
X167183329Y-92103351D01*
X167005465Y-92131522D01*
X166810776Y-92194781D01*
X166628386Y-92287715D01*
X166462786Y-92408028D01*
X166318028Y-92552786D01*
X166197715Y-92718386D01*
X166104781Y-92900776D01*
X166041522Y-93095465D01*
X166009500Y-93297648D01*
X160990500Y-93297648D01*
X160958477Y-93095466D01*
X160895220Y-92900781D01*
X160895218Y-92900778D01*
X160895218Y-92900776D01*
X160861503Y-92834607D01*
X160802287Y-92718390D01*
X160747042Y-92642351D01*
X160681971Y-92552786D01*
X160537213Y-92408028D01*
X160371613Y-92287715D01*
X160371612Y-92287714D01*
X160371610Y-92287713D01*
X160269068Y-92235465D01*
X160189223Y-92194781D01*
X159994534Y-92131522D01*
X159819995Y-92103878D01*
X159792352Y-92099500D01*
X159587648Y-92099500D01*
X159563329Y-92103351D01*
X159385465Y-92131522D01*
X159190776Y-92194781D01*
X159008386Y-92287715D01*
X158842786Y-92408028D01*
X158698028Y-92552786D01*
X158577715Y-92718386D01*
X158484781Y-92900776D01*
X158421522Y-93095465D01*
X158389500Y-93297648D01*
X152057043Y-93297648D01*
X152112287Y-93221610D01*
X152205220Y-93039219D01*
X152268477Y-92844534D01*
X152300500Y-92642352D01*
X152300500Y-92437648D01*
X152268477Y-92235466D01*
X152267907Y-92233713D01*
X152234704Y-92131523D01*
X152205220Y-92040781D01*
X152205218Y-92040778D01*
X152205218Y-92040776D01*
X152171503Y-91974607D01*
X152112287Y-91858390D01*
X152085547Y-91821585D01*
X151991971Y-91692786D01*
X151847213Y-91548028D01*
X151681614Y-91427715D01*
X151646962Y-91410059D01*
X151588917Y-91380483D01*
X151538123Y-91332511D01*
X151521328Y-91264690D01*
X151543865Y-91198555D01*
X151588917Y-91159516D01*
X151681610Y-91112287D01*
X151714429Y-91088443D01*
X151847213Y-90991971D01*
X151847215Y-90991968D01*
X151847219Y-90991966D01*
X151991966Y-90847219D01*
X151991968Y-90847215D01*
X151991971Y-90847213D01*
X152044732Y-90774590D01*
X152112287Y-90681610D01*
X152205220Y-90499219D01*
X152268477Y-90304534D01*
X152300500Y-90102352D01*
X152300500Y-89897648D01*
X152297575Y-89879178D01*
X152268477Y-89695465D01*
X152205218Y-89500776D01*
X152171503Y-89434607D01*
X152112287Y-89318390D01*
X152112055Y-89318071D01*
X152110305Y-89315661D01*
X152060891Y-89247648D01*
X158389500Y-89247648D01*
X158389500Y-89452351D01*
X158421522Y-89654534D01*
X158484781Y-89849223D01*
X158548691Y-89974653D01*
X158566849Y-90010289D01*
X158577715Y-90031613D01*
X158698028Y-90197213D01*
X158842786Y-90341971D01*
X158946949Y-90417648D01*
X159008390Y-90462287D01*
X159124607Y-90521503D01*
X159190776Y-90555218D01*
X159190778Y-90555218D01*
X159190781Y-90555220D01*
X159295137Y-90589127D01*
X159385465Y-90618477D01*
X159486557Y-90634488D01*
X159587648Y-90650500D01*
X159587649Y-90650500D01*
X159792351Y-90650500D01*
X159792352Y-90650500D01*
X159994534Y-90618477D01*
X160189219Y-90555220D01*
X160371610Y-90462287D01*
X160464590Y-90394732D01*
X160537213Y-90341971D01*
X160537215Y-90341968D01*
X160537219Y-90341966D01*
X160681966Y-90197219D01*
X160681968Y-90197215D01*
X160681971Y-90197213D01*
X160750891Y-90102351D01*
X160802287Y-90031610D01*
X160895220Y-89849219D01*
X160958477Y-89654534D01*
X160990500Y-89452352D01*
X160990500Y-89247648D01*
X166009500Y-89247648D01*
X166009500Y-89452351D01*
X166041522Y-89654534D01*
X166104781Y-89849223D01*
X166168691Y-89974653D01*
X166186849Y-90010289D01*
X166197715Y-90031613D01*
X166318028Y-90197213D01*
X166462786Y-90341971D01*
X166566949Y-90417648D01*
X166628390Y-90462287D01*
X166744607Y-90521503D01*
X166810776Y-90555218D01*
X166810778Y-90555218D01*
X166810781Y-90555220D01*
X166915137Y-90589127D01*
X167005465Y-90618477D01*
X167106557Y-90634488D01*
X167207648Y-90650500D01*
X167207649Y-90650500D01*
X167412351Y-90650500D01*
X167412352Y-90650500D01*
X167614534Y-90618477D01*
X167809219Y-90555220D01*
X167991610Y-90462287D01*
X168084590Y-90394732D01*
X168157213Y-90341971D01*
X168157215Y-90341968D01*
X168157219Y-90341966D01*
X168301966Y-90197219D01*
X168301968Y-90197215D01*
X168301971Y-90197213D01*
X168370891Y-90102351D01*
X168422287Y-90031610D01*
X168515220Y-89849219D01*
X168578477Y-89654534D01*
X168610500Y-89452352D01*
X168610500Y-89247648D01*
X168578477Y-89045466D01*
X168563450Y-88999219D01*
X168531212Y-88900000D01*
X168515220Y-88850781D01*
X168515218Y-88850778D01*
X168515218Y-88850776D01*
X168481503Y-88784607D01*
X168422287Y-88668390D01*
X168374308Y-88602352D01*
X168301971Y-88502786D01*
X168196833Y-88397648D01*
X170199500Y-88397648D01*
X170199500Y-88602351D01*
X170231522Y-88804534D01*
X170294781Y-88999223D01*
X170358691Y-89124653D01*
X170387585Y-89181359D01*
X170387715Y-89181613D01*
X170508028Y-89347213D01*
X170652786Y-89491971D01*
X170773226Y-89579474D01*
X170818390Y-89612287D01*
X170934607Y-89671503D01*
X171000776Y-89705218D01*
X171000778Y-89705218D01*
X171000781Y-89705220D01*
X171105137Y-89739127D01*
X171195465Y-89768477D01*
X171296557Y-89784488D01*
X171397648Y-89800500D01*
X171397649Y-89800500D01*
X171602351Y-89800500D01*
X171602352Y-89800500D01*
X171804534Y-89768477D01*
X171999219Y-89705220D01*
X172181610Y-89612287D01*
X172274590Y-89544732D01*
X172347213Y-89491971D01*
X172347215Y-89491968D01*
X172347219Y-89491966D01*
X172491966Y-89347219D01*
X172491968Y-89347215D01*
X172491971Y-89347213D01*
X172564308Y-89247648D01*
X172612287Y-89181610D01*
X172705220Y-88999219D01*
X172768477Y-88804534D01*
X172800500Y-88602352D01*
X172800500Y-88397648D01*
X172786176Y-88307213D01*
X172768477Y-88195465D01*
X172709721Y-88014635D01*
X172705220Y-88000781D01*
X172705218Y-88000778D01*
X172705218Y-88000776D01*
X172671503Y-87934607D01*
X172612287Y-87818390D01*
X172573159Y-87764534D01*
X172491971Y-87652786D01*
X172347213Y-87508028D01*
X172181613Y-87387715D01*
X172181612Y-87387714D01*
X172181610Y-87387713D01*
X172109298Y-87350868D01*
X171999223Y-87294781D01*
X171804534Y-87231522D01*
X171629995Y-87203878D01*
X171602352Y-87199500D01*
X171397648Y-87199500D01*
X171376838Y-87202796D01*
X171195465Y-87231522D01*
X171000776Y-87294781D01*
X170818386Y-87387715D01*
X170652786Y-87508028D01*
X170508028Y-87652786D01*
X170387715Y-87818386D01*
X170294781Y-88000776D01*
X170231522Y-88195465D01*
X170199500Y-88397648D01*
X168196833Y-88397648D01*
X168157213Y-88358028D01*
X167991613Y-88237715D01*
X167991612Y-88237714D01*
X167991610Y-88237713D01*
X167934653Y-88208691D01*
X167809223Y-88144781D01*
X167614534Y-88081522D01*
X167439995Y-88053878D01*
X167412352Y-88049500D01*
X167207648Y-88049500D01*
X167183329Y-88053351D01*
X167005465Y-88081522D01*
X166810776Y-88144781D01*
X166628386Y-88237715D01*
X166462786Y-88358028D01*
X166318028Y-88502786D01*
X166197715Y-88668386D01*
X166104781Y-88850776D01*
X166041522Y-89045465D01*
X166009500Y-89247648D01*
X160990500Y-89247648D01*
X160958477Y-89045466D01*
X160943450Y-88999219D01*
X160911212Y-88900000D01*
X160895220Y-88850781D01*
X160895218Y-88850778D01*
X160895218Y-88850776D01*
X160861503Y-88784607D01*
X160802287Y-88668390D01*
X160754308Y-88602352D01*
X160681971Y-88502786D01*
X160537213Y-88358028D01*
X160371613Y-88237715D01*
X160371612Y-88237714D01*
X160371610Y-88237713D01*
X160314653Y-88208691D01*
X160189223Y-88144781D01*
X159994534Y-88081522D01*
X159819995Y-88053878D01*
X159792352Y-88049500D01*
X159587648Y-88049500D01*
X159563329Y-88053351D01*
X159385465Y-88081522D01*
X159190776Y-88144781D01*
X159008386Y-88237715D01*
X158842786Y-88358028D01*
X158698028Y-88502786D01*
X158577715Y-88668386D01*
X158484781Y-88850776D01*
X158421522Y-89045465D01*
X158389500Y-89247648D01*
X152060891Y-89247648D01*
X151991971Y-89152786D01*
X151847213Y-89008028D01*
X151681614Y-88887715D01*
X151614567Y-88853553D01*
X151588917Y-88840483D01*
X151538123Y-88792511D01*
X151521328Y-88724690D01*
X151543865Y-88658555D01*
X151588917Y-88619516D01*
X151681610Y-88572287D01*
X151708623Y-88552661D01*
X151847213Y-88451971D01*
X151847215Y-88451968D01*
X151847219Y-88451966D01*
X151991966Y-88307219D01*
X151991968Y-88307215D01*
X151991971Y-88307213D01*
X152073074Y-88195582D01*
X152112287Y-88141610D01*
X152205220Y-87959219D01*
X152268477Y-87764534D01*
X152300500Y-87562352D01*
X152300500Y-87357648D01*
X152280601Y-87232010D01*
X152268477Y-87155465D01*
X152217648Y-86999031D01*
X152205220Y-86960781D01*
X152205218Y-86960778D01*
X152205218Y-86960776D01*
X152160361Y-86872741D01*
X152112287Y-86778390D01*
X152088468Y-86745606D01*
X151991971Y-86612786D01*
X151847213Y-86468028D01*
X151681614Y-86347715D01*
X151675006Y-86344348D01*
X151588917Y-86300483D01*
X151538123Y-86252511D01*
X151521328Y-86184690D01*
X151543865Y-86118555D01*
X151588917Y-86079516D01*
X151681610Y-86032287D01*
X151724717Y-86000968D01*
X151847213Y-85911971D01*
X151847215Y-85911968D01*
X151847219Y-85911966D01*
X151991966Y-85767219D01*
X151991968Y-85767215D01*
X151991971Y-85767213D01*
X152091175Y-85630668D01*
X152112287Y-85601610D01*
X152205220Y-85419219D01*
X152268477Y-85224534D01*
X152272736Y-85197648D01*
X158389500Y-85197648D01*
X158389500Y-85402351D01*
X158421522Y-85604534D01*
X158484781Y-85799223D01*
X158577715Y-85981613D01*
X158698028Y-86147213D01*
X158842786Y-86291971D01*
X158988288Y-86397682D01*
X159008390Y-86412287D01*
X159124607Y-86471503D01*
X159190776Y-86505218D01*
X159190778Y-86505218D01*
X159190781Y-86505220D01*
X159295137Y-86539127D01*
X159385465Y-86568477D01*
X159416895Y-86573455D01*
X159587648Y-86600500D01*
X159587649Y-86600500D01*
X159792351Y-86600500D01*
X159792352Y-86600500D01*
X159994534Y-86568477D01*
X160189219Y-86505220D01*
X160371610Y-86412287D01*
X160464590Y-86344732D01*
X160537213Y-86291971D01*
X160537215Y-86291968D01*
X160537219Y-86291966D01*
X160681966Y-86147219D01*
X160681968Y-86147215D01*
X160681971Y-86147213D01*
X160765470Y-86032284D01*
X160802287Y-85981610D01*
X160895220Y-85799219D01*
X160958477Y-85604534D01*
X160990500Y-85402352D01*
X160990500Y-85197648D01*
X166009500Y-85197648D01*
X166009500Y-85402351D01*
X166041522Y-85604534D01*
X166104781Y-85799223D01*
X166197715Y-85981613D01*
X166318028Y-86147213D01*
X166462786Y-86291971D01*
X166608288Y-86397682D01*
X166628390Y-86412287D01*
X166744607Y-86471503D01*
X166810776Y-86505218D01*
X166810778Y-86505218D01*
X166810781Y-86505220D01*
X166915137Y-86539127D01*
X167005465Y-86568477D01*
X167036895Y-86573455D01*
X167207648Y-86600500D01*
X167207649Y-86600500D01*
X167412351Y-86600500D01*
X167412352Y-86600500D01*
X167614534Y-86568477D01*
X167809219Y-86505220D01*
X167991610Y-86412287D01*
X168084590Y-86344732D01*
X168157213Y-86291971D01*
X168157215Y-86291968D01*
X168157219Y-86291966D01*
X168301966Y-86147219D01*
X168301968Y-86147215D01*
X168301971Y-86147213D01*
X168385470Y-86032284D01*
X168422287Y-85981610D01*
X168515220Y-85799219D01*
X168578477Y-85604534D01*
X168610500Y-85402352D01*
X168610500Y-85197648D01*
X168598332Y-85120821D01*
X168578477Y-84995465D01*
X168540379Y-84878213D01*
X168515220Y-84800781D01*
X168515218Y-84800778D01*
X168515218Y-84800776D01*
X168477630Y-84727007D01*
X168422287Y-84618390D01*
X168414556Y-84607749D01*
X168301971Y-84452786D01*
X168157213Y-84308028D01*
X167991613Y-84187715D01*
X167991612Y-84187714D01*
X167991610Y-84187713D01*
X167884611Y-84133194D01*
X167809223Y-84094781D01*
X167614534Y-84031522D01*
X167439995Y-84003878D01*
X167412352Y-83999500D01*
X167207648Y-83999500D01*
X167183329Y-84003351D01*
X167005465Y-84031522D01*
X166810776Y-84094781D01*
X166628386Y-84187715D01*
X166462786Y-84308028D01*
X166318028Y-84452786D01*
X166197715Y-84618386D01*
X166104781Y-84800776D01*
X166041522Y-84995465D01*
X166009500Y-85197648D01*
X160990500Y-85197648D01*
X160978332Y-85120821D01*
X160958477Y-84995465D01*
X160920379Y-84878213D01*
X160895220Y-84800781D01*
X160895218Y-84800778D01*
X160895218Y-84800776D01*
X160857630Y-84727007D01*
X160802287Y-84618390D01*
X160794556Y-84607749D01*
X160681971Y-84452786D01*
X160537213Y-84308028D01*
X160371613Y-84187715D01*
X160371612Y-84187714D01*
X160371610Y-84187713D01*
X160264611Y-84133194D01*
X160189223Y-84094781D01*
X159994534Y-84031522D01*
X159819995Y-84003878D01*
X159792352Y-83999500D01*
X159587648Y-83999500D01*
X159563329Y-84003351D01*
X159385465Y-84031522D01*
X159190776Y-84094781D01*
X159008386Y-84187715D01*
X158842786Y-84308028D01*
X158698028Y-84452786D01*
X158577715Y-84618386D01*
X158484781Y-84800776D01*
X158421522Y-84995465D01*
X158389500Y-85197648D01*
X152272736Y-85197648D01*
X152277115Y-85170000D01*
X152300500Y-85022351D01*
X152300500Y-84817648D01*
X152268477Y-84615465D01*
X152205218Y-84420776D01*
X152112419Y-84238650D01*
X152112287Y-84238390D01*
X152075470Y-84187715D01*
X151991971Y-84072786D01*
X151847219Y-83928034D01*
X151810930Y-83901669D01*
X151768264Y-83846339D01*
X151762285Y-83776726D01*
X151794890Y-83714931D01*
X151855728Y-83680573D01*
X151870562Y-83678060D01*
X151907483Y-83674091D01*
X152042328Y-83623797D01*
X152042327Y-83623797D01*
X152042331Y-83623796D01*
X152157546Y-83537546D01*
X152243796Y-83422331D01*
X152294091Y-83287483D01*
X152300500Y-83227873D01*
X152300499Y-81532128D01*
X152294091Y-81472517D01*
X152291577Y-81465777D01*
X152243797Y-81337671D01*
X152243796Y-81337669D01*
X152239935Y-81332512D01*
X152157546Y-81222454D01*
X152157544Y-81222453D01*
X152157544Y-81222452D01*
X152057619Y-81147648D01*
X158389500Y-81147648D01*
X158389500Y-81352351D01*
X158421522Y-81554534D01*
X158484781Y-81749223D01*
X158577715Y-81931613D01*
X158698028Y-82097213D01*
X158842786Y-82241971D01*
X158997749Y-82354556D01*
X159008390Y-82362287D01*
X159124607Y-82421503D01*
X159190776Y-82455218D01*
X159190778Y-82455218D01*
X159190781Y-82455220D01*
X159274282Y-82482351D01*
X159385465Y-82518477D01*
X159486557Y-82534488D01*
X159587648Y-82550500D01*
X159587649Y-82550500D01*
X159792351Y-82550500D01*
X159792352Y-82550500D01*
X159994534Y-82518477D01*
X160189219Y-82455220D01*
X160371610Y-82362287D01*
X160488107Y-82277648D01*
X160537213Y-82241971D01*
X160537215Y-82241968D01*
X160537219Y-82241966D01*
X160681966Y-82097219D01*
X160681968Y-82097215D01*
X160681971Y-82097213D01*
X160752236Y-82000500D01*
X160802287Y-81931610D01*
X160895220Y-81749219D01*
X160958477Y-81554534D01*
X160990500Y-81352352D01*
X160990500Y-81147648D01*
X160979773Y-81079919D01*
X160958477Y-80945465D01*
X160895218Y-80750776D01*
X160827469Y-80617813D01*
X160802287Y-80568390D01*
X160794556Y-80557749D01*
X160681971Y-80402786D01*
X160537213Y-80258028D01*
X160371613Y-80137715D01*
X160371612Y-80137714D01*
X160371610Y-80137713D01*
X160278616Y-80090330D01*
X160189223Y-80044781D01*
X159994534Y-79981522D01*
X159819995Y-79953878D01*
X159792352Y-79949500D01*
X159587648Y-79949500D01*
X159563329Y-79953351D01*
X159385465Y-79981522D01*
X159190776Y-80044781D01*
X159008386Y-80137715D01*
X158842786Y-80258028D01*
X158698028Y-80402786D01*
X158577715Y-80568386D01*
X158484781Y-80750776D01*
X158421522Y-80945465D01*
X158389500Y-81147648D01*
X152057619Y-81147648D01*
X152042335Y-81136206D01*
X152042328Y-81136202D01*
X151907482Y-81085908D01*
X151907483Y-81085908D01*
X151847883Y-81079501D01*
X151847881Y-81079500D01*
X151847873Y-81079500D01*
X151847864Y-81079500D01*
X150152129Y-81079500D01*
X150152123Y-81079501D01*
X150092516Y-81085908D01*
X149957671Y-81136202D01*
X149957664Y-81136206D01*
X149842455Y-81222452D01*
X149842452Y-81222455D01*
X149756206Y-81337664D01*
X149756202Y-81337671D01*
X149705908Y-81472517D01*
X149701890Y-81509896D01*
X149699501Y-81532123D01*
X149699500Y-81532135D01*
X149699500Y-83227870D01*
X149699501Y-83227876D01*
X149705908Y-83287483D01*
X149756202Y-83422328D01*
X149756206Y-83422335D01*
X149842452Y-83537544D01*
X149842455Y-83537547D01*
X149957664Y-83623793D01*
X149957671Y-83623797D01*
X150002618Y-83640561D01*
X150092517Y-83674091D01*
X150129441Y-83678060D01*
X150193989Y-83704796D01*
X150233838Y-83762188D01*
X150236333Y-83832013D01*
X150200681Y-83892102D01*
X150189071Y-83901666D01*
X150152784Y-83928030D01*
X150008028Y-84072786D01*
X149887715Y-84238386D01*
X149794781Y-84420776D01*
X149731522Y-84615465D01*
X149699500Y-84817648D01*
X149699500Y-85022351D01*
X149731522Y-85224534D01*
X149794781Y-85419223D01*
X149887715Y-85601613D01*
X150008028Y-85767213D01*
X150152786Y-85911971D01*
X150288112Y-86010289D01*
X150318390Y-86032287D01*
X150409840Y-86078883D01*
X150411080Y-86079515D01*
X150461876Y-86127490D01*
X150478671Y-86195311D01*
X150456134Y-86261446D01*
X150411080Y-86300485D01*
X150318386Y-86347715D01*
X150152786Y-86468028D01*
X150008028Y-86612786D01*
X149887715Y-86778386D01*
X149794781Y-86960776D01*
X149731522Y-87155465D01*
X149710048Y-87291050D01*
X149699500Y-87357648D01*
X149699500Y-87562352D01*
X149701351Y-87574038D01*
X149731522Y-87764534D01*
X149794781Y-87959223D01*
X149887715Y-88141613D01*
X150008028Y-88307213D01*
X150152786Y-88451971D01*
X150291377Y-88552661D01*
X150318390Y-88572287D01*
X150377396Y-88602352D01*
X150411080Y-88619515D01*
X150461876Y-88667490D01*
X150478671Y-88735311D01*
X150456134Y-88801446D01*
X150411080Y-88840485D01*
X150318386Y-88887715D01*
X150152786Y-89008028D01*
X150008028Y-89152786D01*
X149887715Y-89318386D01*
X149794781Y-89500776D01*
X149731522Y-89695465D01*
X149699500Y-89897648D01*
X149699500Y-90102351D01*
X149731522Y-90304534D01*
X149794781Y-90499223D01*
X149887715Y-90681613D01*
X150008028Y-90847213D01*
X150152786Y-90991971D01*
X150307749Y-91104556D01*
X150318390Y-91112287D01*
X150409840Y-91158883D01*
X150411080Y-91159515D01*
X150461876Y-91207490D01*
X150478671Y-91275311D01*
X150456134Y-91341446D01*
X150411080Y-91380485D01*
X150318386Y-91427715D01*
X150152786Y-91548028D01*
X150008028Y-91692786D01*
X149887715Y-91858386D01*
X149794781Y-92040776D01*
X149731522Y-92235465D01*
X149699500Y-92437648D01*
X149699500Y-92642351D01*
X149731522Y-92844534D01*
X149794781Y-93039223D01*
X149823439Y-93095466D01*
X149887181Y-93220566D01*
X149887715Y-93221613D01*
X150008028Y-93387213D01*
X150152786Y-93531971D01*
X150285571Y-93628443D01*
X150318390Y-93652287D01*
X150375620Y-93681447D01*
X150411080Y-93699515D01*
X150461876Y-93747490D01*
X150478671Y-93815311D01*
X150456134Y-93881446D01*
X150411080Y-93920485D01*
X150318386Y-93967715D01*
X150152786Y-94088028D01*
X150008028Y-94232786D01*
X149887715Y-94398386D01*
X149794781Y-94580776D01*
X149731522Y-94775465D01*
X149699500Y-94977648D01*
X149699500Y-95182351D01*
X149731522Y-95384534D01*
X149794781Y-95579223D01*
X149858691Y-95704653D01*
X149880803Y-95748049D01*
X149887715Y-95761613D01*
X150008028Y-95927213D01*
X150152786Y-96071971D01*
X150307749Y-96184556D01*
X150318390Y-96192287D01*
X150375620Y-96221447D01*
X150411080Y-96239515D01*
X150461876Y-96287490D01*
X150478671Y-96355311D01*
X150456134Y-96421446D01*
X150411080Y-96460485D01*
X150318386Y-96507715D01*
X150152786Y-96628028D01*
X150008028Y-96772786D01*
X149887715Y-96938386D01*
X149794781Y-97120776D01*
X149731522Y-97315465D01*
X149699500Y-97517648D01*
X149699500Y-97722351D01*
X149731522Y-97924534D01*
X149794781Y-98119223D01*
X149887715Y-98301613D01*
X150008028Y-98467213D01*
X150152786Y-98611971D01*
X150285571Y-98708443D01*
X150318390Y-98732287D01*
X150375620Y-98761447D01*
X150411080Y-98779515D01*
X150461876Y-98827490D01*
X150478671Y-98895311D01*
X150456134Y-98961446D01*
X150411080Y-99000485D01*
X150318386Y-99047715D01*
X150152786Y-99168028D01*
X150008028Y-99312786D01*
X149887715Y-99478386D01*
X149794781Y-99660776D01*
X149731522Y-99855465D01*
X149699500Y-100057648D01*
X149699500Y-100262351D01*
X149731522Y-100464534D01*
X149794781Y-100659223D01*
X149887715Y-100841613D01*
X150008028Y-101007213D01*
X150152786Y-101151971D01*
X150260186Y-101230000D01*
X150318390Y-101272287D01*
X150409840Y-101318883D01*
X150411080Y-101319515D01*
X150461876Y-101367490D01*
X150478671Y-101435311D01*
X150456134Y-101501446D01*
X150411080Y-101540485D01*
X150318386Y-101587715D01*
X150152786Y-101708028D01*
X150008028Y-101852786D01*
X149887715Y-102018386D01*
X149794781Y-102200776D01*
X149731522Y-102395465D01*
X149699500Y-102597648D01*
X149699500Y-102802351D01*
X149731522Y-103004534D01*
X149794781Y-103199223D01*
X149887715Y-103381613D01*
X150008028Y-103547213D01*
X150152786Y-103691971D01*
X150275058Y-103780805D01*
X150318390Y-103812287D01*
X150375620Y-103841447D01*
X150411080Y-103859515D01*
X150461876Y-103907490D01*
X150478671Y-103975311D01*
X150456134Y-104041446D01*
X150411080Y-104080485D01*
X150318386Y-104127715D01*
X150152786Y-104248028D01*
X150008028Y-104392786D01*
X149887715Y-104558386D01*
X149794781Y-104740776D01*
X149731522Y-104935465D01*
X149699500Y-105137648D01*
X149699500Y-105342351D01*
X149731522Y-105544534D01*
X149794781Y-105739223D01*
X149811541Y-105772115D01*
X149887480Y-105921153D01*
X149887715Y-105921613D01*
X150008028Y-106087213D01*
X150152786Y-106231971D01*
X150260186Y-106310000D01*
X150318390Y-106352287D01*
X150406560Y-106397212D01*
X150411080Y-106399515D01*
X150461876Y-106447490D01*
X150478671Y-106515311D01*
X150456134Y-106581446D01*
X150411080Y-106620485D01*
X150318386Y-106667715D01*
X150152786Y-106788028D01*
X150008028Y-106932786D01*
X149887715Y-107098386D01*
X149794781Y-107280776D01*
X149731522Y-107475465D01*
X149699500Y-107677648D01*
X149699500Y-107882351D01*
X149731522Y-108084534D01*
X149794781Y-108279223D01*
X149887715Y-108461613D01*
X150008028Y-108627213D01*
X150152786Y-108771971D01*
X150285571Y-108868443D01*
X150318390Y-108892287D01*
X150375620Y-108921447D01*
X150411080Y-108939515D01*
X150461876Y-108987490D01*
X150478671Y-109055311D01*
X150456134Y-109121446D01*
X150411080Y-109160485D01*
X150318386Y-109207715D01*
X150152786Y-109328028D01*
X150008028Y-109472786D01*
X149887715Y-109638386D01*
X149794781Y-109820776D01*
X149731522Y-110015465D01*
X149699500Y-110217648D01*
X149699500Y-110422351D01*
X149731522Y-110624534D01*
X149794781Y-110819223D01*
X149887715Y-111001613D01*
X150008028Y-111167213D01*
X150152786Y-111311971D01*
X150307749Y-111424556D01*
X150318390Y-111432287D01*
X150393387Y-111470500D01*
X150411080Y-111479515D01*
X150461876Y-111527490D01*
X150478671Y-111595311D01*
X150456134Y-111661446D01*
X150411080Y-111700485D01*
X150318386Y-111747715D01*
X150152786Y-111868028D01*
X150008028Y-112012786D01*
X149887715Y-112178386D01*
X149794781Y-112360776D01*
X149731522Y-112555465D01*
X149699500Y-112757648D01*
X149699500Y-112962351D01*
X149731522Y-113164534D01*
X149794781Y-113359223D01*
X149887715Y-113541613D01*
X150008028Y-113707213D01*
X150152786Y-113851971D01*
X150293955Y-113954534D01*
X150318390Y-113972287D01*
X150409840Y-114018883D01*
X150411080Y-114019515D01*
X150461876Y-114067490D01*
X150478671Y-114135311D01*
X150456134Y-114201446D01*
X150411080Y-114240485D01*
X150318386Y-114287715D01*
X150152786Y-114408028D01*
X150008028Y-114552786D01*
X149887715Y-114718386D01*
X149794781Y-114900776D01*
X149731522Y-115095465D01*
X149699500Y-115297648D01*
X149699500Y-115502351D01*
X149731522Y-115704534D01*
X149794781Y-115899223D01*
X149887715Y-116081613D01*
X150008028Y-116247213D01*
X150152786Y-116391971D01*
X150294293Y-116494780D01*
X150318390Y-116512287D01*
X150409840Y-116558883D01*
X150411080Y-116559515D01*
X150461876Y-116607490D01*
X150478671Y-116675311D01*
X150456134Y-116741446D01*
X150411080Y-116780485D01*
X150318386Y-116827715D01*
X150152786Y-116948028D01*
X150008028Y-117092786D01*
X149887715Y-117258386D01*
X149794781Y-117440776D01*
X149731522Y-117635465D01*
X149699500Y-117837648D01*
X149699500Y-117838770D01*
X149699379Y-117839181D01*
X149699117Y-117842511D01*
X149698417Y-117842455D01*
X149679815Y-117905809D01*
X149627011Y-117951564D01*
X149557853Y-117961508D01*
X149494297Y-117932483D01*
X149487819Y-117926451D01*
X137797819Y-106236451D01*
X137764334Y-106175128D01*
X137761500Y-106148770D01*
X137761500Y-96257079D01*
X137732659Y-96112092D01*
X137732658Y-96112091D01*
X137732658Y-96112087D01*
X137718769Y-96078556D01*
X137676087Y-95975511D01*
X137676080Y-95975498D01*
X137593952Y-95852585D01*
X137593951Y-95852584D01*
X137489416Y-95748049D01*
X137086473Y-95345106D01*
X137052988Y-95283783D01*
X137051681Y-95238028D01*
X137060500Y-95182352D01*
X137060500Y-94977648D01*
X137028477Y-94775466D01*
X137027907Y-94773713D01*
X136993714Y-94668477D01*
X136965220Y-94580781D01*
X136965218Y-94580778D01*
X136965218Y-94580776D01*
X136931503Y-94514607D01*
X136872287Y-94398390D01*
X136845547Y-94361585D01*
X136751971Y-94232786D01*
X136607213Y-94088028D01*
X136441614Y-93967715D01*
X136435006Y-93964348D01*
X136348917Y-93920483D01*
X136298123Y-93872511D01*
X136281328Y-93804690D01*
X136303865Y-93738555D01*
X136348917Y-93699516D01*
X136441610Y-93652287D01*
X136499814Y-93610000D01*
X136607213Y-93531971D01*
X136607215Y-93531968D01*
X136607219Y-93531966D01*
X136751966Y-93387219D01*
X136751968Y-93387215D01*
X136751971Y-93387213D01*
X136804732Y-93314590D01*
X136872287Y-93221610D01*
X136965220Y-93039219D01*
X137028477Y-92844534D01*
X137060500Y-92642352D01*
X137060500Y-92437648D01*
X137028477Y-92235466D01*
X137027907Y-92233713D01*
X136994704Y-92131523D01*
X136965220Y-92040781D01*
X136965218Y-92040778D01*
X136965218Y-92040776D01*
X136931503Y-91974607D01*
X136872287Y-91858390D01*
X136845547Y-91821585D01*
X136751971Y-91692786D01*
X136607213Y-91548028D01*
X136441614Y-91427715D01*
X136406962Y-91410059D01*
X136348917Y-91380483D01*
X136298123Y-91332511D01*
X136281328Y-91264690D01*
X136303865Y-91198555D01*
X136348917Y-91159516D01*
X136441610Y-91112287D01*
X136474429Y-91088443D01*
X136607213Y-90991971D01*
X136607215Y-90991968D01*
X136607219Y-90991966D01*
X136751966Y-90847219D01*
X136751968Y-90847215D01*
X136751971Y-90847213D01*
X136804732Y-90774590D01*
X136872287Y-90681610D01*
X136965220Y-90499219D01*
X137028477Y-90304534D01*
X137060500Y-90102352D01*
X137060500Y-89897648D01*
X137057575Y-89879178D01*
X137028477Y-89695465D01*
X136965218Y-89500776D01*
X136931503Y-89434607D01*
X136872287Y-89318390D01*
X136864556Y-89307749D01*
X136751971Y-89152786D01*
X136607213Y-89008028D01*
X136441614Y-88887715D01*
X136374567Y-88853553D01*
X136348917Y-88840483D01*
X136298123Y-88792511D01*
X136281328Y-88724690D01*
X136303865Y-88658555D01*
X136348917Y-88619516D01*
X136441610Y-88572287D01*
X136468623Y-88552661D01*
X136607213Y-88451971D01*
X136607215Y-88451968D01*
X136607219Y-88451966D01*
X136751966Y-88307219D01*
X136751968Y-88307215D01*
X136751971Y-88307213D01*
X136833074Y-88195582D01*
X136872287Y-88141610D01*
X136965220Y-87959219D01*
X137028477Y-87764534D01*
X137060500Y-87562352D01*
X137060500Y-87357648D01*
X137040601Y-87232010D01*
X137028477Y-87155465D01*
X136977648Y-86999031D01*
X136965220Y-86960781D01*
X136965218Y-86960778D01*
X136965218Y-86960776D01*
X136920361Y-86872741D01*
X136872287Y-86778390D01*
X136848468Y-86745606D01*
X136751971Y-86612786D01*
X136607213Y-86468028D01*
X136441611Y-86347713D01*
X136348369Y-86300203D01*
X136297574Y-86252229D01*
X136280779Y-86184407D01*
X136303317Y-86118273D01*
X136348371Y-86079234D01*
X136441347Y-86031861D01*
X136606894Y-85911582D01*
X136606895Y-85911582D01*
X136751582Y-85766895D01*
X136751582Y-85766894D01*
X136871859Y-85601349D01*
X136964755Y-85419029D01*
X137027990Y-85224413D01*
X137036609Y-85170000D01*
X136193012Y-85170000D01*
X136225925Y-85112993D01*
X136260000Y-84985826D01*
X136260000Y-84854174D01*
X136225925Y-84727007D01*
X136193012Y-84670000D01*
X137036609Y-84670000D01*
X137027990Y-84615586D01*
X136964755Y-84420970D01*
X136871859Y-84238650D01*
X136751582Y-84073105D01*
X136751582Y-84073104D01*
X136606895Y-83928417D01*
X136441349Y-83808140D01*
X136348370Y-83760765D01*
X136297574Y-83712790D01*
X136280779Y-83644969D01*
X136303316Y-83578835D01*
X136348370Y-83539795D01*
X136352788Y-83537544D01*
X136441610Y-83492287D01*
X136462770Y-83476913D01*
X136607213Y-83371971D01*
X136607215Y-83371968D01*
X136607219Y-83371966D01*
X136751966Y-83227219D01*
X136751968Y-83227215D01*
X136751971Y-83227213D01*
X136824779Y-83127000D01*
X136872287Y-83061610D01*
X136965220Y-82879219D01*
X137028477Y-82684534D01*
X137060500Y-82482352D01*
X137060500Y-82277648D01*
X137051964Y-82223757D01*
X137028477Y-82075465D01*
X136965218Y-81880776D01*
X136931503Y-81814607D01*
X136872287Y-81698390D01*
X136844550Y-81660213D01*
X136751971Y-81532786D01*
X136607213Y-81388028D01*
X136441613Y-81267715D01*
X136441612Y-81267714D01*
X136441610Y-81267713D01*
X136384653Y-81238691D01*
X136259223Y-81174781D01*
X136064534Y-81111522D01*
X135864997Y-81079919D01*
X135862352Y-81079500D01*
X135657648Y-81079500D01*
X135655003Y-81079919D01*
X135455465Y-81111522D01*
X135260776Y-81174781D01*
X135078386Y-81267715D01*
X134912786Y-81388028D01*
X134768028Y-81532786D01*
X134647715Y-81698386D01*
X134554781Y-81880776D01*
X134491522Y-82075465D01*
X134459500Y-82277648D01*
X134459500Y-82482351D01*
X134491522Y-82684534D01*
X134554781Y-82879223D01*
X134647715Y-83061613D01*
X134768028Y-83227213D01*
X134912786Y-83371971D01*
X135067749Y-83484556D01*
X135078390Y-83492287D01*
X135150424Y-83528990D01*
X135171629Y-83539795D01*
X135222425Y-83587770D01*
X135239220Y-83655591D01*
X135216682Y-83721726D01*
X135171629Y-83760765D01*
X135078650Y-83808140D01*
X134913105Y-83928417D01*
X134913104Y-83928417D01*
X134768417Y-84073104D01*
X134768417Y-84073105D01*
X134648140Y-84238650D01*
X134555244Y-84420970D01*
X134492009Y-84615586D01*
X134483391Y-84670000D01*
X135326988Y-84670000D01*
X135294075Y-84727007D01*
X135260000Y-84854174D01*
X135260000Y-84985826D01*
X135294075Y-85112993D01*
X135326988Y-85170000D01*
X134483391Y-85170000D01*
X134492009Y-85224413D01*
X134555244Y-85419029D01*
X134648140Y-85601349D01*
X134768417Y-85766894D01*
X134768417Y-85766895D01*
X134913104Y-85911582D01*
X135078652Y-86031861D01*
X135171628Y-86079234D01*
X135222425Y-86127208D01*
X135239220Y-86195029D01*
X135216683Y-86261164D01*
X135171630Y-86300203D01*
X135078388Y-86347713D01*
X134912786Y-86468028D01*
X134768028Y-86612786D01*
X134647715Y-86778386D01*
X134554781Y-86960776D01*
X134491522Y-87155465D01*
X134470048Y-87291050D01*
X134459500Y-87357648D01*
X134459500Y-87562352D01*
X134461351Y-87574038D01*
X134491522Y-87764534D01*
X134554781Y-87959223D01*
X134647715Y-88141613D01*
X134768028Y-88307213D01*
X134912786Y-88451971D01*
X135051377Y-88552661D01*
X135078390Y-88572287D01*
X135137396Y-88602352D01*
X135171080Y-88619515D01*
X135221876Y-88667490D01*
X135238671Y-88735311D01*
X135216134Y-88801446D01*
X135171080Y-88840485D01*
X135078386Y-88887715D01*
X134912786Y-89008028D01*
X134768028Y-89152786D01*
X134647715Y-89318386D01*
X134554781Y-89500776D01*
X134491522Y-89695465D01*
X134459500Y-89897648D01*
X134459500Y-90102351D01*
X134491522Y-90304534D01*
X134554781Y-90499223D01*
X134647715Y-90681613D01*
X134768028Y-90847213D01*
X134912786Y-90991971D01*
X135067749Y-91104556D01*
X135078390Y-91112287D01*
X135169840Y-91158883D01*
X135171080Y-91159515D01*
X135221876Y-91207490D01*
X135238671Y-91275311D01*
X135216134Y-91341446D01*
X135171080Y-91380485D01*
X135078386Y-91427715D01*
X134912786Y-91548028D01*
X134768028Y-91692786D01*
X134647715Y-91858386D01*
X134554781Y-92040776D01*
X134491522Y-92235465D01*
X134459500Y-92437648D01*
X134459500Y-92642351D01*
X134491522Y-92844534D01*
X134554781Y-93039223D01*
X134583439Y-93095466D01*
X134647181Y-93220566D01*
X134647715Y-93221613D01*
X134768028Y-93387213D01*
X134912786Y-93531971D01*
X135045571Y-93628443D01*
X135078390Y-93652287D01*
X135135620Y-93681447D01*
X135171080Y-93699515D01*
X135221876Y-93747490D01*
X135238671Y-93815311D01*
X135216134Y-93881446D01*
X135171080Y-93920485D01*
X135078386Y-93967715D01*
X134912786Y-94088028D01*
X134768028Y-94232786D01*
X134647715Y-94398386D01*
X134554781Y-94580776D01*
X134491522Y-94775465D01*
X134459500Y-94977648D01*
X134459500Y-95182351D01*
X134491522Y-95384534D01*
X134554781Y-95579223D01*
X134618691Y-95704653D01*
X134640803Y-95748049D01*
X134647715Y-95761613D01*
X134768028Y-95927213D01*
X134912786Y-96071971D01*
X135067749Y-96184556D01*
X135078390Y-96192287D01*
X135135620Y-96221447D01*
X135171080Y-96239515D01*
X135221876Y-96287490D01*
X135238671Y-96355311D01*
X135216134Y-96421446D01*
X135171080Y-96460485D01*
X135078386Y-96507715D01*
X134912786Y-96628028D01*
X134768028Y-96772786D01*
X134647715Y-96938386D01*
X134554781Y-97120776D01*
X134491522Y-97315465D01*
X134459500Y-97517648D01*
X134459500Y-97722351D01*
X134491522Y-97924534D01*
X134554781Y-98119223D01*
X134647715Y-98301613D01*
X134768028Y-98467213D01*
X134912786Y-98611971D01*
X135045571Y-98708443D01*
X135078390Y-98732287D01*
X135135620Y-98761447D01*
X135171080Y-98779515D01*
X135221876Y-98827490D01*
X135238671Y-98895311D01*
X135216134Y-98961446D01*
X135171080Y-99000485D01*
X135078386Y-99047715D01*
X134912786Y-99168028D01*
X134768032Y-99312782D01*
X134768028Y-99312787D01*
X134734900Y-99358385D01*
X134679571Y-99401051D01*
X134634582Y-99409500D01*
X131266080Y-99409500D01*
X131121092Y-99438340D01*
X131121082Y-99438343D01*
X130984509Y-99494913D01*
X130984507Y-99494914D01*
X130943645Y-99522218D01*
X130943643Y-99522219D01*
X130861589Y-99577043D01*
X130861584Y-99577047D01*
X126684703Y-103753927D01*
X126644480Y-103780805D01*
X126620819Y-103790606D01*
X126620818Y-103790607D01*
X126489715Y-103878207D01*
X126489707Y-103878213D01*
X126378213Y-103989707D01*
X126378210Y-103989711D01*
X126290609Y-104120814D01*
X126290602Y-104120827D01*
X126230264Y-104266498D01*
X126230261Y-104266510D01*
X126199500Y-104421153D01*
X126199500Y-104578846D01*
X126230261Y-104733489D01*
X126230264Y-104733501D01*
X126290602Y-104879172D01*
X126290609Y-104879185D01*
X126378210Y-105010288D01*
X126378213Y-105010292D01*
X126489707Y-105121786D01*
X126489711Y-105121789D01*
X126620814Y-105209390D01*
X126620827Y-105209397D01*
X126707907Y-105245466D01*
X126766503Y-105269737D01*
X126921153Y-105300499D01*
X126921156Y-105300500D01*
X126921158Y-105300500D01*
X127078844Y-105300500D01*
X127078845Y-105300499D01*
X127233497Y-105269737D01*
X127379179Y-105209394D01*
X127510289Y-105121789D01*
X127621789Y-105010289D01*
X127709394Y-104879179D01*
X127719191Y-104855524D01*
X127746069Y-104815297D01*
X131614549Y-100946819D01*
X131675872Y-100913334D01*
X131702230Y-100910500D01*
X134634582Y-100910500D01*
X134701621Y-100930185D01*
X134734900Y-100961615D01*
X134768028Y-101007212D01*
X134768032Y-101007217D01*
X134912786Y-101151971D01*
X135020186Y-101230000D01*
X135078390Y-101272287D01*
X135169840Y-101318883D01*
X135171080Y-101319515D01*
X135221876Y-101367490D01*
X135238671Y-101435311D01*
X135216134Y-101501446D01*
X135171080Y-101540485D01*
X135078386Y-101587715D01*
X134912786Y-101708028D01*
X134768028Y-101852786D01*
X134647715Y-102018386D01*
X134554781Y-102200776D01*
X134491522Y-102395465D01*
X134459500Y-102597648D01*
X134459500Y-102802351D01*
X134491522Y-103004534D01*
X134554781Y-103199223D01*
X134647715Y-103381613D01*
X134768028Y-103547213D01*
X134912786Y-103691971D01*
X135035058Y-103780805D01*
X135078390Y-103812287D01*
X135135620Y-103841447D01*
X135171080Y-103859515D01*
X135221876Y-103907490D01*
X135238671Y-103975311D01*
X135216134Y-104041446D01*
X135171080Y-104080485D01*
X135078386Y-104127715D01*
X134912786Y-104248028D01*
X134768028Y-104392786D01*
X134647715Y-104558386D01*
X134554781Y-104740776D01*
X134491522Y-104935465D01*
X134459500Y-105137648D01*
X134459500Y-105342351D01*
X134491522Y-105544534D01*
X134554781Y-105739223D01*
X134571541Y-105772115D01*
X134647480Y-105921153D01*
X134647715Y-105921613D01*
X134768028Y-106087213D01*
X134912786Y-106231971D01*
X135020186Y-106310000D01*
X135078390Y-106352287D01*
X135166560Y-106397212D01*
X135171080Y-106399515D01*
X135221876Y-106447490D01*
X135238671Y-106515311D01*
X135216134Y-106581446D01*
X135171080Y-106620485D01*
X135078386Y-106667715D01*
X134912786Y-106788028D01*
X134768028Y-106932786D01*
X134647715Y-107098386D01*
X134554781Y-107280776D01*
X134491522Y-107475465D01*
X134459500Y-107677648D01*
X134459500Y-107882351D01*
X134491522Y-108084534D01*
X134554781Y-108279223D01*
X134647715Y-108461613D01*
X134768028Y-108627213D01*
X134912786Y-108771971D01*
X135045571Y-108868443D01*
X135078390Y-108892287D01*
X135135620Y-108921447D01*
X135171080Y-108939515D01*
X135221876Y-108987490D01*
X135238671Y-109055311D01*
X135216134Y-109121446D01*
X135171080Y-109160485D01*
X135078386Y-109207715D01*
X134912786Y-109328028D01*
X134768028Y-109472786D01*
X134647715Y-109638386D01*
X134554781Y-109820776D01*
X134491522Y-110015465D01*
X134459500Y-110217648D01*
X134459500Y-110422351D01*
X134491522Y-110624534D01*
X134554781Y-110819223D01*
X134647715Y-111001613D01*
X134768028Y-111167213D01*
X134912786Y-111311971D01*
X135067749Y-111424556D01*
X135078390Y-111432287D01*
X135153387Y-111470500D01*
X135171080Y-111479515D01*
X135221876Y-111527490D01*
X135238671Y-111595311D01*
X135216134Y-111661446D01*
X135171080Y-111700485D01*
X135078386Y-111747715D01*
X134912786Y-111868028D01*
X134768028Y-112012786D01*
X134647715Y-112178386D01*
X134554781Y-112360776D01*
X134491522Y-112555465D01*
X134459500Y-112757648D01*
X134459500Y-112962351D01*
X134491522Y-113164534D01*
X134554781Y-113359223D01*
X134647715Y-113541613D01*
X134768028Y-113707213D01*
X134912786Y-113851971D01*
X135053955Y-113954534D01*
X135078390Y-113972287D01*
X135169840Y-114018883D01*
X135171080Y-114019515D01*
X135221876Y-114067490D01*
X135238671Y-114135311D01*
X135216134Y-114201446D01*
X135171080Y-114240485D01*
X135078386Y-114287715D01*
X134912786Y-114408028D01*
X134768028Y-114552786D01*
X134647715Y-114718386D01*
X134554781Y-114900776D01*
X134491522Y-115095465D01*
X134459500Y-115297648D01*
X134459500Y-115502351D01*
X134491522Y-115704534D01*
X134554781Y-115899223D01*
X134647715Y-116081613D01*
X134768028Y-116247213D01*
X134912786Y-116391971D01*
X135054293Y-116494780D01*
X135078390Y-116512287D01*
X135169840Y-116558883D01*
X135171080Y-116559515D01*
X135221876Y-116607490D01*
X135238671Y-116675311D01*
X135216134Y-116741446D01*
X135171080Y-116780485D01*
X135078386Y-116827715D01*
X134912786Y-116948028D01*
X134912782Y-116948032D01*
X134857634Y-117003181D01*
X134796311Y-117036666D01*
X134769953Y-117039500D01*
X125524500Y-117039500D01*
X125457461Y-117019815D01*
X125411706Y-116967011D01*
X125400500Y-116915500D01*
X125400500Y-109921153D01*
X125699500Y-109921153D01*
X125699500Y-110078846D01*
X125730261Y-110233489D01*
X125730264Y-110233501D01*
X125790602Y-110379172D01*
X125790609Y-110379185D01*
X125878210Y-110510288D01*
X125878213Y-110510292D01*
X125989707Y-110621786D01*
X125989711Y-110621789D01*
X126120814Y-110709390D01*
X126120827Y-110709397D01*
X126220060Y-110750500D01*
X126266503Y-110769737D01*
X126421153Y-110800499D01*
X126421156Y-110800500D01*
X126421158Y-110800500D01*
X126578844Y-110800500D01*
X126578845Y-110800499D01*
X126712071Y-110773999D01*
X126733488Y-110769739D01*
X126733489Y-110769738D01*
X126733497Y-110769737D01*
X126757155Y-110759937D01*
X126804604Y-110750500D01*
X128073920Y-110750500D01*
X128171462Y-110731096D01*
X128218913Y-110721658D01*
X128355495Y-110665084D01*
X128420291Y-110621789D01*
X128420294Y-110621786D01*
X128420296Y-110621786D01*
X128464925Y-110591966D01*
X128478416Y-110582952D01*
X131315295Y-107746070D01*
X131355519Y-107719193D01*
X131379179Y-107709394D01*
X131510289Y-107621789D01*
X131621789Y-107510289D01*
X131709394Y-107379179D01*
X131769737Y-107233497D01*
X131800500Y-107078842D01*
X131800500Y-106921158D01*
X131800500Y-106921155D01*
X131800499Y-106921153D01*
X131776499Y-106800500D01*
X131769737Y-106766503D01*
X131769735Y-106766498D01*
X131709397Y-106620827D01*
X131709390Y-106620814D01*
X131621789Y-106489711D01*
X131621786Y-106489707D01*
X131510292Y-106378213D01*
X131510288Y-106378210D01*
X131379185Y-106290609D01*
X131379172Y-106290602D01*
X131233501Y-106230264D01*
X131233489Y-106230261D01*
X131078845Y-106199500D01*
X131078842Y-106199500D01*
X130921158Y-106199500D01*
X130921155Y-106199500D01*
X130766510Y-106230261D01*
X130766498Y-106230264D01*
X130620827Y-106290602D01*
X130620814Y-106290609D01*
X130489711Y-106378210D01*
X130489707Y-106378213D01*
X130378213Y-106489707D01*
X130378207Y-106489715D01*
X130290607Y-106620818D01*
X130290605Y-106620822D01*
X130280805Y-106644480D01*
X130253927Y-106684704D01*
X127725451Y-109213181D01*
X127664128Y-109246666D01*
X127637770Y-109249500D01*
X126804604Y-109249500D01*
X126757155Y-109240062D01*
X126733497Y-109230263D01*
X126733493Y-109230262D01*
X126733488Y-109230260D01*
X126578845Y-109199500D01*
X126578842Y-109199500D01*
X126421158Y-109199500D01*
X126421155Y-109199500D01*
X126266510Y-109230261D01*
X126266498Y-109230264D01*
X126120827Y-109290602D01*
X126120814Y-109290609D01*
X125989711Y-109378210D01*
X125989707Y-109378213D01*
X125878213Y-109489707D01*
X125878210Y-109489711D01*
X125790609Y-109620814D01*
X125790602Y-109620827D01*
X125730264Y-109766498D01*
X125730261Y-109766510D01*
X125699500Y-109921153D01*
X125400500Y-109921153D01*
X125400500Y-85899983D01*
X127517121Y-85899983D01*
X127517121Y-87100001D01*
X127517122Y-87100018D01*
X127527621Y-87202796D01*
X127527622Y-87202799D01*
X127582806Y-87369331D01*
X127582808Y-87369336D01*
X127594143Y-87387713D01*
X127674909Y-87518656D01*
X127798965Y-87642712D01*
X127948287Y-87734814D01*
X128114824Y-87789999D01*
X128217612Y-87800500D01*
X129417629Y-87800499D01*
X129520418Y-87789999D01*
X129686955Y-87734814D01*
X129836277Y-87642712D01*
X129960333Y-87518656D01*
X130052435Y-87369334D01*
X130075723Y-87299054D01*
X130079731Y-87291050D01*
X130097681Y-87271772D01*
X130112676Y-87250116D01*
X130121116Y-87246606D01*
X130127346Y-87239917D01*
X130152870Y-87233404D01*
X130177192Y-87223292D01*
X130193455Y-87223048D01*
X130195046Y-87222643D01*
X130196144Y-87223008D01*
X130200340Y-87222946D01*
X130238146Y-87225921D01*
X130917621Y-86546446D01*
X130917621Y-86552661D01*
X130944880Y-86654394D01*
X130997541Y-86745606D01*
X131072015Y-86820080D01*
X131163227Y-86872741D01*
X131264960Y-86900000D01*
X131271174Y-86900000D01*
X130591697Y-87579474D01*
X130636271Y-87611859D01*
X130818589Y-87704755D01*
X131013203Y-87767990D01*
X131215304Y-87800000D01*
X131419938Y-87800000D01*
X131622038Y-87767990D01*
X131816652Y-87704755D01*
X131998970Y-87611859D01*
X132043542Y-87579474D01*
X131364068Y-86900000D01*
X131370282Y-86900000D01*
X131472015Y-86872741D01*
X131563227Y-86820080D01*
X131637701Y-86745606D01*
X131690362Y-86654394D01*
X131717621Y-86552661D01*
X131717621Y-86546447D01*
X132397095Y-87225921D01*
X132429480Y-87181349D01*
X132522376Y-86999031D01*
X132585611Y-86804417D01*
X132617621Y-86602317D01*
X132617621Y-86397682D01*
X132585611Y-86195582D01*
X132522376Y-86000968D01*
X132429480Y-85818650D01*
X132397095Y-85774077D01*
X132397095Y-85774076D01*
X131717621Y-86453551D01*
X131717621Y-86447339D01*
X131690362Y-86345606D01*
X131637701Y-86254394D01*
X131563227Y-86179920D01*
X131472015Y-86127259D01*
X131370282Y-86100000D01*
X131364067Y-86100000D01*
X132043543Y-85420524D01*
X132043542Y-85420523D01*
X131998980Y-85388147D01*
X131998971Y-85388141D01*
X131816652Y-85295244D01*
X131622038Y-85232009D01*
X131419938Y-85200000D01*
X131215304Y-85200000D01*
X131013203Y-85232009D01*
X130818589Y-85295244D01*
X130636265Y-85388143D01*
X130591698Y-85420523D01*
X130591698Y-85420524D01*
X131271175Y-86100000D01*
X131264960Y-86100000D01*
X131163227Y-86127259D01*
X131072015Y-86179920D01*
X130997541Y-86254394D01*
X130944880Y-86345606D01*
X130917621Y-86447339D01*
X130917621Y-86453553D01*
X130238145Y-85774077D01*
X130200340Y-85777053D01*
X130131962Y-85762689D01*
X130082205Y-85713638D01*
X130079731Y-85708949D01*
X130075722Y-85700942D01*
X130052435Y-85630666D01*
X129960333Y-85481344D01*
X129836277Y-85357288D01*
X129689102Y-85266510D01*
X129686957Y-85265187D01*
X129686952Y-85265185D01*
X129685483Y-85264698D01*
X129520418Y-85210001D01*
X129520416Y-85210000D01*
X129417631Y-85199500D01*
X128217619Y-85199500D01*
X128217602Y-85199501D01*
X128114824Y-85210000D01*
X128114821Y-85210001D01*
X127948289Y-85265185D01*
X127948284Y-85265187D01*
X127798963Y-85357289D01*
X127674910Y-85481342D01*
X127582808Y-85630663D01*
X127582807Y-85630666D01*
X127527622Y-85797203D01*
X127527622Y-85797204D01*
X127527621Y-85797204D01*
X127517121Y-85899983D01*
X125400500Y-85899983D01*
X125400500Y-84924362D01*
X125420185Y-84857323D01*
X125436819Y-84836681D01*
X131699459Y-78574041D01*
X131699464Y-78574036D01*
X131798012Y-78426547D01*
X131865895Y-78262666D01*
X131900500Y-78088692D01*
X131900500Y-77911308D01*
X131865895Y-77737334D01*
X131798012Y-77573454D01*
X131699464Y-77425964D01*
X131699461Y-77425961D01*
X131699460Y-77425959D01*
X131574040Y-77300539D01*
X131574034Y-77300535D01*
X131426546Y-77201988D01*
X131426545Y-77201987D01*
X131426543Y-77201986D01*
X131262666Y-77134105D01*
X131262658Y-77134103D01*
X131088696Y-77099500D01*
X131088692Y-77099500D01*
X130911308Y-77099500D01*
X130911303Y-77099500D01*
X130737341Y-77134103D01*
X130737333Y-77134105D01*
X130573451Y-77201988D01*
X130425965Y-77300534D01*
X130425958Y-77300540D01*
X123800538Y-83925961D01*
X123800536Y-83925964D01*
X123792217Y-83938415D01*
X123701987Y-84073453D01*
X123680601Y-84125084D01*
X123677243Y-84133190D01*
X123677241Y-84133194D01*
X123654658Y-84187715D01*
X123634105Y-84237334D01*
X123601849Y-84399500D01*
X123599500Y-84411309D01*
X123599500Y-84411310D01*
X123599500Y-107705831D01*
X123579815Y-107772870D01*
X123527011Y-107818625D01*
X123457853Y-107828569D01*
X123406610Y-107808934D01*
X123379183Y-107790608D01*
X123379172Y-107790602D01*
X123233501Y-107730264D01*
X123233489Y-107730261D01*
X123078845Y-107699500D01*
X123078842Y-107699500D01*
X122921158Y-107699500D01*
X122921155Y-107699500D01*
X122766510Y-107730261D01*
X122766498Y-107730264D01*
X122620827Y-107790602D01*
X122620814Y-107790609D01*
X122489711Y-107878210D01*
X122489707Y-107878213D01*
X122378213Y-107989707D01*
X122378207Y-107989715D01*
X122290607Y-108120818D01*
X122290606Y-108120819D01*
X122280805Y-108144480D01*
X122253927Y-108184703D01*
X112687047Y-117751584D01*
X112687045Y-117751586D01*
X112653129Y-117802349D01*
X112653127Y-117802352D01*
X112604919Y-117874499D01*
X112604912Y-117874511D01*
X112548343Y-118011082D01*
X112548340Y-118011092D01*
X112519500Y-118156079D01*
X112519500Y-131812779D01*
X112499815Y-131879818D01*
X112468385Y-131913097D01*
X112390211Y-131969893D01*
X112390205Y-131969898D01*
X112239890Y-132120213D01*
X112114949Y-132292182D01*
X112110484Y-132300946D01*
X112062509Y-132351742D01*
X111994688Y-132368536D01*
X111928553Y-132345998D01*
X111889516Y-132300946D01*
X111885050Y-132292182D01*
X111760109Y-132120213D01*
X111609786Y-131969890D01*
X111437820Y-131844951D01*
X111248414Y-131748444D01*
X111248413Y-131748443D01*
X111248412Y-131748443D01*
X111046243Y-131682754D01*
X111046241Y-131682753D01*
X111046240Y-131682753D01*
X110884957Y-131657208D01*
X110836287Y-131649500D01*
X110623713Y-131649500D01*
X110575042Y-131657208D01*
X110413760Y-131682753D01*
X110211585Y-131748444D01*
X110022179Y-131844951D01*
X109850215Y-131969889D01*
X109736285Y-132083819D01*
X109674962Y-132117303D01*
X109605270Y-132112319D01*
X109549337Y-132070447D01*
X109532422Y-132039470D01*
X109483354Y-131907913D01*
X109483350Y-131907906D01*
X109397190Y-131792812D01*
X109397187Y-131792809D01*
X109282093Y-131706649D01*
X109282086Y-131706645D01*
X109147379Y-131656403D01*
X109147372Y-131656401D01*
X109087844Y-131650000D01*
X108440000Y-131650000D01*
X108440000Y-132566988D01*
X108382993Y-132534075D01*
X108255826Y-132500000D01*
X108124174Y-132500000D01*
X107997007Y-132534075D01*
X107940000Y-132566988D01*
X107940000Y-131650000D01*
X107292155Y-131650000D01*
X107232627Y-131656401D01*
X107232620Y-131656403D01*
X107097913Y-131706645D01*
X107097906Y-131706649D01*
X106982812Y-131792809D01*
X106982809Y-131792812D01*
X106896649Y-131907906D01*
X106896645Y-131907913D01*
X106846403Y-132042620D01*
X106846401Y-132042627D01*
X106840000Y-132102155D01*
X102000500Y-132102155D01*
X102000500Y-79368905D01*
X108500000Y-79368905D01*
X108500000Y-79631094D01*
X108534220Y-79891009D01*
X108534222Y-79891020D01*
X108602075Y-80144255D01*
X108702404Y-80386471D01*
X108702409Y-80386482D01*
X108833488Y-80613516D01*
X108833494Y-80613524D01*
X108920080Y-80726365D01*
X109814767Y-79831677D01*
X109826497Y-79859995D01*
X109909670Y-79984472D01*
X110015528Y-80090330D01*
X110140005Y-80173503D01*
X110168320Y-80185231D01*
X109273633Y-81079917D01*
X109273633Y-81079918D01*
X109386475Y-81166505D01*
X109386483Y-81166511D01*
X109613517Y-81297590D01*
X109613528Y-81297595D01*
X109855744Y-81397924D01*
X110108979Y-81465777D01*
X110108990Y-81465779D01*
X110368905Y-81499999D01*
X110368920Y-81500000D01*
X110631080Y-81500000D01*
X110631094Y-81499999D01*
X110891009Y-81465779D01*
X110891020Y-81465777D01*
X111144255Y-81397924D01*
X111386471Y-81297595D01*
X111386482Y-81297590D01*
X111613516Y-81166511D01*
X111613534Y-81166499D01*
X111726365Y-81079919D01*
X111726365Y-81079917D01*
X110831679Y-80185231D01*
X110859995Y-80173503D01*
X110984472Y-80090330D01*
X111090330Y-79984472D01*
X111173503Y-79859995D01*
X111185231Y-79831679D01*
X112079917Y-80726365D01*
X112079919Y-80726365D01*
X112166499Y-80613534D01*
X112166511Y-80613516D01*
X112297590Y-80386482D01*
X112297595Y-80386471D01*
X112397924Y-80144255D01*
X112465777Y-79891020D01*
X112465779Y-79891009D01*
X112499999Y-79631094D01*
X112500000Y-79631080D01*
X112500000Y-79368919D01*
X112499999Y-79368905D01*
X112465779Y-79108990D01*
X112465777Y-79108979D01*
X112397924Y-78855744D01*
X112297595Y-78613528D01*
X112297590Y-78613517D01*
X112166511Y-78386483D01*
X112166505Y-78386475D01*
X112079918Y-78273633D01*
X112079917Y-78273633D01*
X111185231Y-79168320D01*
X111173503Y-79140005D01*
X111090330Y-79015528D01*
X110984472Y-78909670D01*
X110859995Y-78826497D01*
X110831677Y-78814767D01*
X111726365Y-77920080D01*
X111714928Y-77911304D01*
X117099500Y-77911304D01*
X117099500Y-83588696D01*
X117134010Y-83762188D01*
X117134105Y-83762666D01*
X117168046Y-83844606D01*
X117201987Y-83926547D01*
X117250733Y-83999500D01*
X117254135Y-84004591D01*
X117300534Y-84074034D01*
X117300538Y-84074039D01*
X120925960Y-87699460D01*
X120925964Y-87699463D01*
X121073446Y-87798008D01*
X121073455Y-87798013D01*
X121110579Y-87813390D01*
X121237334Y-87865894D01*
X121411303Y-87900498D01*
X121411307Y-87900499D01*
X121411308Y-87900499D01*
X121588692Y-87900499D01*
X121588693Y-87900498D01*
X121762666Y-87865894D01*
X121926546Y-87798012D01*
X122074035Y-87699463D01*
X122199463Y-87574035D01*
X122298012Y-87426546D01*
X122365894Y-87262666D01*
X122400499Y-87088691D01*
X122400499Y-86911308D01*
X122365894Y-86737334D01*
X122298012Y-86573453D01*
X122298011Y-86573452D01*
X122298008Y-86573446D01*
X122199463Y-86425964D01*
X122199460Y-86425960D01*
X118936819Y-83163319D01*
X118903334Y-83101996D01*
X118900500Y-83075638D01*
X118900500Y-77911306D01*
X118900499Y-77911304D01*
X118865896Y-77737341D01*
X118865893Y-77737333D01*
X118848923Y-77696363D01*
X118798016Y-77573459D01*
X118798009Y-77573446D01*
X118699464Y-77425965D01*
X118699461Y-77425961D01*
X118574038Y-77300538D01*
X118574034Y-77300535D01*
X118426553Y-77201990D01*
X118426540Y-77201983D01*
X118262667Y-77134106D01*
X118262658Y-77134103D01*
X118088694Y-77099500D01*
X118088691Y-77099500D01*
X117911309Y-77099500D01*
X117911306Y-77099500D01*
X117737341Y-77134103D01*
X117737332Y-77134106D01*
X117573459Y-77201983D01*
X117573446Y-77201990D01*
X117425965Y-77300535D01*
X117425961Y-77300538D01*
X117300538Y-77425961D01*
X117300535Y-77425965D01*
X117201990Y-77573446D01*
X117201983Y-77573459D01*
X117134106Y-77737332D01*
X117134103Y-77737341D01*
X117099500Y-77911304D01*
X111714928Y-77911304D01*
X111613524Y-77833494D01*
X111613516Y-77833488D01*
X111386482Y-77702409D01*
X111386471Y-77702404D01*
X111144255Y-77602075D01*
X110891020Y-77534222D01*
X110891009Y-77534220D01*
X110631094Y-77500000D01*
X110368905Y-77500000D01*
X110108990Y-77534220D01*
X110108979Y-77534222D01*
X109855744Y-77602075D01*
X109613528Y-77702404D01*
X109613517Y-77702409D01*
X109386471Y-77833496D01*
X109273633Y-77920079D01*
X109273633Y-77920080D01*
X110168321Y-78814768D01*
X110140005Y-78826497D01*
X110015528Y-78909670D01*
X109909670Y-79015528D01*
X109826497Y-79140005D01*
X109814768Y-79168321D01*
X108920080Y-78273633D01*
X108920079Y-78273633D01*
X108833496Y-78386471D01*
X108702409Y-78613517D01*
X108702404Y-78613528D01*
X108602075Y-78855744D01*
X108534222Y-79108979D01*
X108534220Y-79108990D01*
X108500000Y-79368905D01*
X102000500Y-79368905D01*
X102000500Y-72872135D01*
X108499500Y-72872135D01*
X108499500Y-75967870D01*
X108499501Y-75967876D01*
X108505908Y-76027483D01*
X108556202Y-76162328D01*
X108556206Y-76162335D01*
X108642452Y-76277544D01*
X108642455Y-76277547D01*
X108757664Y-76363793D01*
X108757671Y-76363797D01*
X108892517Y-76414091D01*
X108892516Y-76414091D01*
X108899444Y-76414835D01*
X108952127Y-76420500D01*
X112047872Y-76420499D01*
X112107483Y-76414091D01*
X112242331Y-76363796D01*
X112357546Y-76277546D01*
X112443796Y-76162331D01*
X112494091Y-76027483D01*
X112500500Y-75967873D01*
X112500499Y-74327135D01*
X124149500Y-74327135D01*
X124149500Y-76122870D01*
X124149501Y-76122876D01*
X124155908Y-76182483D01*
X124206202Y-76317328D01*
X124206206Y-76317335D01*
X124292452Y-76432544D01*
X124292455Y-76432547D01*
X124407664Y-76518793D01*
X124407671Y-76518797D01*
X124539082Y-76567810D01*
X124595016Y-76609681D01*
X124619433Y-76675145D01*
X124604582Y-76743418D01*
X124583431Y-76771673D01*
X124469889Y-76885215D01*
X124344951Y-77057179D01*
X124248444Y-77246585D01*
X124248443Y-77246587D01*
X124248443Y-77246588D01*
X124230913Y-77300539D01*
X124182753Y-77448760D01*
X124163005Y-77573446D01*
X124149500Y-77658713D01*
X124149500Y-77871287D01*
X124182754Y-78081243D01*
X124241702Y-78262666D01*
X124248444Y-78283414D01*
X124344951Y-78472820D01*
X124469890Y-78644786D01*
X124620213Y-78795109D01*
X124792179Y-78920048D01*
X124792181Y-78920049D01*
X124792184Y-78920051D01*
X124981588Y-79016557D01*
X125183757Y-79082246D01*
X125393713Y-79115500D01*
X125393714Y-79115500D01*
X125606286Y-79115500D01*
X125606287Y-79115500D01*
X125816243Y-79082246D01*
X126018412Y-79016557D01*
X126207816Y-78920051D01*
X126311555Y-78844681D01*
X126379786Y-78795109D01*
X126379788Y-78795106D01*
X126379792Y-78795104D01*
X126530104Y-78644792D01*
X126530106Y-78644788D01*
X126530109Y-78644786D01*
X126655048Y-78472820D01*
X126655047Y-78472820D01*
X126655051Y-78472816D01*
X126751557Y-78283412D01*
X126817246Y-78081243D01*
X126850500Y-77871287D01*
X126850500Y-77658713D01*
X126817246Y-77448757D01*
X126751557Y-77246588D01*
X126655051Y-77057184D01*
X126655049Y-77057181D01*
X126655048Y-77057179D01*
X126530109Y-76885213D01*
X126416569Y-76771673D01*
X126383084Y-76710350D01*
X126388068Y-76640658D01*
X126429940Y-76584725D01*
X126460915Y-76567810D01*
X126592331Y-76518796D01*
X126707546Y-76432546D01*
X126793796Y-76317331D01*
X126844091Y-76182483D01*
X126850500Y-76122873D01*
X126850499Y-74327128D01*
X126844091Y-74267517D01*
X126793796Y-74132669D01*
X126793795Y-74132668D01*
X126793793Y-74132664D01*
X126707547Y-74017455D01*
X126707544Y-74017452D01*
X126592335Y-73931206D01*
X126592328Y-73931202D01*
X126457482Y-73880908D01*
X126457483Y-73880908D01*
X126397883Y-73874501D01*
X126397881Y-73874500D01*
X126397873Y-73874500D01*
X126397864Y-73874500D01*
X124602129Y-73874500D01*
X124602123Y-73874501D01*
X124542516Y-73880908D01*
X124407671Y-73931202D01*
X124407664Y-73931206D01*
X124292455Y-74017452D01*
X124292452Y-74017455D01*
X124206206Y-74132664D01*
X124206202Y-74132671D01*
X124155908Y-74267517D01*
X124149501Y-74327116D01*
X124149501Y-74327123D01*
X124149500Y-74327135D01*
X112500499Y-74327135D01*
X112500499Y-72872128D01*
X112494091Y-72812517D01*
X112467913Y-72742331D01*
X112443797Y-72677671D01*
X112443793Y-72677664D01*
X112357547Y-72562455D01*
X112357544Y-72562452D01*
X112242335Y-72476206D01*
X112242328Y-72476202D01*
X112107482Y-72425908D01*
X112107483Y-72425908D01*
X112047883Y-72419501D01*
X112047881Y-72419500D01*
X112047873Y-72419500D01*
X112047864Y-72419500D01*
X108952129Y-72419500D01*
X108952123Y-72419501D01*
X108892516Y-72425908D01*
X108757671Y-72476202D01*
X108757664Y-72476206D01*
X108642455Y-72562452D01*
X108642452Y-72562455D01*
X108556206Y-72677664D01*
X108556202Y-72677671D01*
X108505908Y-72812517D01*
X108499501Y-72872116D01*
X108499501Y-72872123D01*
X108499500Y-72872135D01*
X102000500Y-72872135D01*
X102000500Y-70452135D01*
X191499500Y-70452135D01*
X191499500Y-72547870D01*
X191499501Y-72547876D01*
X191505908Y-72607483D01*
X191556202Y-72742328D01*
X191556206Y-72742335D01*
X191642452Y-72857544D01*
X191642455Y-72857547D01*
X191757664Y-72943793D01*
X191757671Y-72943797D01*
X191892517Y-72994091D01*
X191892516Y-72994091D01*
X191899444Y-72994835D01*
X191952127Y-73000500D01*
X194047872Y-73000499D01*
X194107483Y-72994091D01*
X194242331Y-72943796D01*
X194357546Y-72857546D01*
X194443796Y-72742331D01*
X194494091Y-72607483D01*
X194500500Y-72547873D01*
X194500499Y-70452128D01*
X194494091Y-70392517D01*
X194443796Y-70257669D01*
X194443795Y-70257668D01*
X194443793Y-70257664D01*
X194357547Y-70142455D01*
X194357544Y-70142452D01*
X194242335Y-70056206D01*
X194242328Y-70056202D01*
X194107482Y-70005908D01*
X194107483Y-70005908D01*
X194047883Y-69999501D01*
X194047881Y-69999500D01*
X194047873Y-69999500D01*
X194047864Y-69999500D01*
X191952129Y-69999500D01*
X191952123Y-69999501D01*
X191892516Y-70005908D01*
X191757671Y-70056202D01*
X191757664Y-70056206D01*
X191642455Y-70142452D01*
X191642452Y-70142455D01*
X191556206Y-70257664D01*
X191556202Y-70257671D01*
X191505908Y-70392517D01*
X191499501Y-70452116D01*
X191499501Y-70452123D01*
X191499500Y-70452135D01*
X102000500Y-70452135D01*
X102000500Y-67624500D01*
X102020185Y-67557461D01*
X102072989Y-67511706D01*
X102124500Y-67500500D01*
X200875500Y-67500500D01*
X200942539Y-67520185D01*
G37*
%TD.AperFunction*%
M02*
