%TF.GenerationSoftware,KiCad,Pcbnew,9.0.6*%
%TF.CreationDate,2026-05-13T11:04:59+05:30*%
%TF.ProjectId,Microcontroller based Digital IC Tester,4d696372-6f63-46f6-9e74-726f6c6c6572,rev?*%
%TF.SameCoordinates,Original*%
%TF.FileFunction,Soldermask,Top*%
%TF.FilePolarity,Negative*%
%FSLAX46Y46*%
G04 Gerber Fmt 4.6, Leading zero omitted, Abs format (unit mm)*
G04 Created by KiCad (PCBNEW 9.0.6) date 2026-05-13 11:04:59*
%MOMM*%
%LPD*%
G01*
G04 APERTURE LIST*
G04 Aperture macros list*
%AMRoundRect*
0 Rectangle with rounded corners*
0 $1 Rounding radius*
0 $2 $3 $4 $5 $6 $7 $8 $9 X,Y pos of 4 corners*
0 Add a 4 corners polygon primitive as box body*
4,1,4,$2,$3,$4,$5,$6,$7,$8,$9,$2,$3,0*
0 Add four circle primitives for the rounded corners*
1,1,$1+$1,$2,$3*
1,1,$1+$1,$4,$5*
1,1,$1+$1,$6,$7*
1,1,$1+$1,$8,$9*
0 Add four rect primitives between the rounded corners*
20,1,$1+$1,$2,$3,$4,$5,0*
20,1,$1+$1,$4,$5,$6,$7,0*
20,1,$1+$1,$6,$7,$8,$9,0*
20,1,$1+$1,$8,$9,$2,$3,0*%
G04 Aperture macros list end*
%ADD10C,1.600000*%
%ADD11R,2.000000X2.000000*%
%ADD12C,2.000000*%
%ADD13R,1.700000X1.700000*%
%ADD14C,1.700000*%
%ADD15R,3.000000X3.000000*%
%ADD16C,3.000000*%
%ADD17RoundRect,0.250000X-0.550000X-0.550000X0.550000X-0.550000X0.550000X0.550000X-0.550000X0.550000X0*%
%ADD18R,1.800000X1.800000*%
%ADD19C,1.800000*%
%ADD20R,1.600000X1.600000*%
%ADD21O,1.600000X1.600000*%
G04 APERTURE END LIST*
D10*
X171500000Y-88500000D03*
X176500000Y-88500000D03*
D11*
X193000000Y-71500000D03*
D12*
X193000000Y-79100000D03*
D13*
X182500000Y-118460000D03*
D14*
X182500000Y-121000000D03*
X182500000Y-123540000D03*
D13*
X182500000Y-77460000D03*
D14*
X182500000Y-80000000D03*
X182500000Y-82540000D03*
D15*
X110500000Y-74420000D03*
D16*
X110500000Y-79500000D03*
D13*
X108190000Y-133000000D03*
D14*
X110730000Y-133000000D03*
X113270000Y-133000000D03*
X115810000Y-133000000D03*
D10*
X159690000Y-81250000D03*
X167310000Y-81250000D03*
X159690000Y-85300000D03*
X167310000Y-85300000D03*
X149500000Y-127190000D03*
X149500000Y-134810000D03*
X159690000Y-117700000D03*
X167310000Y-117700000D03*
X192000000Y-135310000D03*
X192000000Y-127690000D03*
D12*
X136250000Y-128750000D03*
X142750000Y-128750000D03*
X136250000Y-133250000D03*
X142750000Y-133250000D03*
D17*
X128817621Y-86500000D03*
D10*
X131317621Y-86500000D03*
X159690000Y-121750000D03*
X167310000Y-121750000D03*
D18*
X196225000Y-131500000D03*
D19*
X198765000Y-131500000D03*
D10*
X159690000Y-89350000D03*
X167310000Y-89350000D03*
X159690000Y-97450000D03*
X167310000Y-97450000D03*
X159690000Y-93400000D03*
X167310000Y-93400000D03*
D18*
X183225000Y-131500000D03*
D19*
X185765000Y-131500000D03*
D13*
X125500000Y-75225000D03*
D14*
X125500000Y-77765000D03*
D10*
X131500000Y-134310000D03*
X131500000Y-126690000D03*
D12*
X154250000Y-128750000D03*
X160750000Y-128750000D03*
X154250000Y-133250000D03*
X160750000Y-133250000D03*
D10*
X159690000Y-101500000D03*
X167310000Y-101500000D03*
X159690000Y-109600000D03*
X167310000Y-109600000D03*
X178725000Y-135310000D03*
X178725000Y-127690000D03*
X159690000Y-105550000D03*
X167310000Y-105550000D03*
X159690000Y-113650000D03*
X167310000Y-113650000D03*
D20*
X151000000Y-82380000D03*
D21*
X151000000Y-84920000D03*
X151000000Y-87460000D03*
X151000000Y-90000000D03*
X151000000Y-92540000D03*
X151000000Y-95080000D03*
X151000000Y-97620000D03*
X151000000Y-100160000D03*
X151000000Y-102700000D03*
X151000000Y-105240000D03*
X151000000Y-107780000D03*
X151000000Y-110320000D03*
X151000000Y-112860000D03*
X151000000Y-115400000D03*
X151000000Y-117940000D03*
X135760000Y-117940000D03*
X135760000Y-115400000D03*
X135760000Y-112860000D03*
X135760000Y-110320000D03*
X135760000Y-107780000D03*
X135760000Y-105240000D03*
X135760000Y-102700000D03*
X135760000Y-100160000D03*
X135760000Y-97620000D03*
X135760000Y-95080000D03*
X135760000Y-92540000D03*
X135760000Y-90000000D03*
X135760000Y-87460000D03*
X135760000Y-84920000D03*
X135760000Y-82380000D03*
D13*
X181500000Y-92340000D03*
D14*
X184040000Y-92340000D03*
X181500000Y-94880000D03*
X184040000Y-94880000D03*
X181500000Y-97420000D03*
X184040000Y-97420000D03*
X181500000Y-99960000D03*
X184040000Y-99960000D03*
X181500000Y-102500000D03*
X184040000Y-102500000D03*
X181500000Y-105040000D03*
X184040000Y-105040000D03*
X181500000Y-107580000D03*
X184040000Y-107580000D03*
X181500000Y-110120000D03*
X184040000Y-110120000D03*
M02*
