M48
; DRILL file {KiCad 9.0.6} date 2026-05-13T11:05:06+0530
; FORMAT={-:-/ absolute / metric / decimal}
; #@! TF.CreationDate,2026-05-13T11:05:06+05:30
; #@! TF.GenerationSoftware,Kicad,Pcbnew,9.0.6
; #@! TF.FileFunction,Plated,1,2,PTH
FMAT,2
METRIC
; #@! TA.AperFunction,Plated,PTH,ViaDrill
T1C0.300
; #@! TA.AperFunction,Plated,PTH,ComponentDrill
T2C0.800
; #@! TA.AperFunction,Plated,PTH,ComponentDrill
T3C0.900
; #@! TA.AperFunction,Plated,PTH,ComponentDrill
T4C1.000
; #@! TA.AperFunction,Plated,PTH,ComponentDrill
T5C1.100
; #@! TA.AperFunction,Plated,PTH,ComponentDrill
T6C1.520
%
G90
G05
T1
X118.0Y-78.0
X121.0Y-115.5
X121.5Y-87.0
X123.0Y-108.5
X126.5Y-110.0
X127.0Y-104.5
X131.0Y-78.0
X131.0Y-107.0
X132.5Y-120.5
X150.5Y-123.5
X151.0Y-120.5
X160.0Y-124.0
X164.5Y-125.0
X170.5Y-85.5
X171.0Y-133.5
X173.0Y-105.0
X174.0Y-134.0
X179.0Y-103.0
X180.5Y-89.5
X180.95Y-114.95
X184.0Y-127.5
X187.0Y-106.0
X190.0Y-90.5
X190.0Y-115.0
X192.0Y-120.5
T2
X128.818Y-86.5
X131.318Y-86.5
X131.5Y-126.69
X131.5Y-134.31
X149.5Y-127.19
X149.5Y-134.81
X159.69Y-81.25
X159.69Y-85.3
X159.69Y-89.35
X159.69Y-93.4
X159.69Y-97.45
X159.69Y-101.5
X159.69Y-105.55
X159.69Y-109.6
X159.69Y-113.65
X159.69Y-117.7
X159.69Y-121.75
X167.31Y-81.25
X167.31Y-85.3
X167.31Y-89.35
X167.31Y-93.4
X167.31Y-97.45
X167.31Y-101.5
X167.31Y-105.55
X167.31Y-109.6
X167.31Y-113.65
X167.31Y-117.7
X167.31Y-121.75
X171.5Y-88.5
X176.5Y-88.5
X178.725Y-127.69
X178.725Y-135.31
X192.0Y-127.69
X192.0Y-135.31
T3
X183.225Y-131.5
X185.765Y-131.5
X196.225Y-131.5
X198.765Y-131.5
T4
X108.19Y-133.0
X110.73Y-133.0
X113.27Y-133.0
X115.81Y-133.0
X125.5Y-75.225
X125.5Y-77.765
X135.76Y-82.38
X135.76Y-84.92
X135.76Y-87.46
X135.76Y-90.0
X135.76Y-92.54
X135.76Y-95.08
X135.76Y-97.62
X135.76Y-100.16
X135.76Y-102.7
X135.76Y-105.24
X135.76Y-107.78
X135.76Y-110.32
X135.76Y-112.86
X135.76Y-115.4
X135.76Y-117.94
X151.0Y-82.38
X151.0Y-84.92
X151.0Y-87.46
X151.0Y-90.0
X151.0Y-92.54
X151.0Y-95.08
X151.0Y-97.62
X151.0Y-100.16
X151.0Y-102.7
X151.0Y-105.24
X151.0Y-107.78
X151.0Y-110.32
X151.0Y-112.86
X151.0Y-115.4
X151.0Y-117.94
X181.5Y-92.34
X181.5Y-94.88
X181.5Y-97.42
X181.5Y-99.96
X181.5Y-102.5
X181.5Y-105.04
X181.5Y-107.58
X181.5Y-110.12
X182.5Y-77.46
X182.5Y-80.0
X182.5Y-82.54
X182.5Y-118.46
X182.5Y-121.0
X182.5Y-123.54
X184.04Y-92.34
X184.04Y-94.88
X184.04Y-97.42
X184.04Y-99.96
X184.04Y-102.5
X184.04Y-105.04
X184.04Y-107.58
X184.04Y-110.12
X193.0Y-71.5
X193.0Y-79.1
T5
X136.25Y-128.75
X136.25Y-133.25
X142.75Y-128.75
X142.75Y-133.25
X154.25Y-128.75
X154.25Y-133.25
X160.75Y-128.75
X160.75Y-133.25
T6
X110.5Y-74.42
X110.5Y-79.5
M30
